<?xml version="1.0" encoding="UTF-8"?>
<!-- Generated by Pixelmator Pro 3.4.2 -->
<svg width="2661" height="546" viewBox="0 0 2661 546" xmlns="http://www.w3.org/2000/svg">
    <path id="Rounded-Rectangle" fill="#009fdc" fill-rule="evenodd" stroke="none" d="M 2066 311 L 2661 311 L 2661 0 L 2066 0 Z"/>
    <path id="Shape" fill="#ffffff" fill-rule="evenodd" stroke="none" d="M 2491.39209 249 C 2490.432129 249 2489.615967 248.664001 2488.944092 247.992004 C 2488.271973 247.320007 2487.936035 246.503998 2487.936035 245.544006 L 2487.936035 50.855988 C 2487.936035 49.895996 2488.271973 49.080017 2488.944092 48.40799 C 2489.615967 47.735992 2490.432129 47.399994 2491.39209 47.399994 L 2525.087891 47.399994 C 2526.048096 47.399994 2526.864014 47.735992 2527.536133 48.40799 C 2528.208008 49.080017 2528.543945 49.895996 2528.543945 50.855988 L 2528.543945 147.911987 C 2528.543945 148.488007 2528.736084 148.824005 2529.120117 148.920013 C 2529.503906 149.015991 2529.887939 148.872009 2530.271973 148.488007 L 2569.439941 102.984009 C 2570.783936 101.639984 2572.224121 100.967987 2573.76001 100.967987 L 2612.063965 100.967987 C 2613.984131 100.967987 2614.944092 101.639984 2614.944092 102.984009 C 2614.944092 103.559998 2614.656006 104.328003 2614.080078 105.287994 L 2577.503906 151.656006 C 2577.120117 152.424011 2577.023926 153.096008 2577.216064 153.671997 L 2620.12793 244.967987 C 2620.511963 245.735992 2620.704102 246.312012 2620.704102 246.696014 C 2620.704102 248.231995 2619.647949 249 2617.536133 249 L 2582.112061 249 C 2580.191895 249 2578.8479 248.136017 2578.080078 246.40799 L 2549.568115 179.015991 C 2549.375977 178.631989 2549.040039 178.391998 2548.560059 178.29599 C 2548.080078 178.200012 2547.743896 178.343994 2547.552002 178.727997 L 2529.120117 201.768005 C 2528.736084 202.536011 2528.543945 203.112 2528.543945 203.496002 L 2528.543945 245.544006 C 2528.543945 246.503998 2528.208008 247.320007 2527.536133 247.992004 C 2526.864014 248.664001 2526.048096 249 2525.087891 249 L 2491.39209 249 Z M 2420.544189 249 C 2419.583984 249 2418.768066 248.664001 2418.096191 247.992004 C 2417.424072 247.320007 2417.088135 246.503998 2417.088135 245.544006 L 2417.088135 50.855988 C 2417.088135 49.895996 2417.424072 49.080017 2418.096191 48.40799 C 2418.768066 47.735992 2419.583984 47.399994 2420.544189 47.399994 L 2454.23999 47.399994 C 2455.200195 47.399994 2456.016113 47.735992 2456.687988 48.40799 C 2457.360107 49.080017 2457.696045 49.895996 2457.696045 50.855988 L 2457.696045 245.544006 C 2457.696045 246.503998 2457.360107 247.320007 2456.687988 247.992004 C 2456.016113 248.664001 2455.200195 249 2454.23999 249 L 2420.544189 249 Z M 2324.063965 98.664001 C 2336.544189 98.664001 2347.679932 100.823975 2357.472168 105.144012 C 2367.26416 109.46402 2374.895996 115.36795 2380.368164 122.855988 C 2385.840088 130.344025 2388.576172 138.695953 2388.576172 147.911987 L 2388.576172 245.544006 C 2388.576172 246.503998 2388.23999 247.320007 2387.568115 247.992004 C 2386.895996 248.664001 2386.080078 249 2385.120117 249 L 2351.424072 249 C 2350.464111 249 2349.648193 248.664001 2348.976074 247.992004 C 2348.303955 247.320007 2347.968018 246.503998 2347.968018 245.544006 L 2347.968018 236.040009 C 2347.968018 235.463989 2347.776123 235.079987 2347.39209 234.888 C 2347.008057 234.695984 2346.624023 234.888 2346.23999 235.463989 C 2338.176025 246.024048 2325.216064 251.303986 2307.360107 251.303986 C 2292.384033 251.303986 2280.288086 247.656036 2271.072021 240.359985 C 2261.855957 233.063965 2257.248047 222.312073 2257.248047 208.104004 C 2257.248047 193.319916 2262.432129 181.848053 2272.800049 173.687988 C 2283.168213 165.527954 2297.951904 161.447998 2317.1521 161.447998 L 2346.528076 161.447998 C 2347.488037 161.447998 2347.968018 160.968018 2347.968018 160.007996 L 2347.968018 153.671997 C 2347.968018 147.335968 2346.048096 142.392029 2342.208008 138.839996 C 2338.368164 135.287994 2332.608154 133.511993 2324.927979 133.511993 C 2318.976074 133.511993 2314.031982 134.567993 2310.096191 136.679993 C 2306.160156 138.792023 2303.615967 141.767975 2302.464111 145.608002 C 2301.888184 147.720001 2300.640137 148.679993 2298.719971 148.488007 L 2263.87207 143.880005 C 2261.568115 143.496002 2260.511963 142.632019 2260.704102 141.287994 C 2261.472168 133.223969 2264.687988 125.92804 2270.352051 119.399994 C 2276.016113 112.871979 2283.503906 107.784027 2292.816162 104.135986 C 2302.128174 100.487976 2312.543945 98.664001 2324.063965 98.664001 Z M 2318.303955 221.063995 C 2326.560059 221.063995 2333.568115 218.856018 2339.328125 214.440002 C 2345.088135 210.023987 2347.968018 204.360046 2347.968018 197.447998 L 2347.968018 187.079987 C 2347.968018 186.119995 2347.488037 185.640015 2346.528076 185.640015 L 2325.791992 185.640015 C 2317.1521 185.640015 2310.384033 187.271973 2305.488037 190.536011 C 2300.592041 193.800018 2298.144043 198.407959 2298.144043 204.359985 C 2298.144043 209.544037 2299.968018 213.623993 2303.615967 216.600006 C 2307.26416 219.576019 2312.160156 221.063995 2318.303955 221.063995 Z M 2248.608154 47.399994 C 2249.568115 47.399994 2250.384033 47.735992 2251.056152 48.40799 C 2251.728027 49.080017 2252.063965 49.895996 2252.063965 50.855988 L 2252.063965 79.079987 C 2252.063965 80.040009 2251.728027 80.855988 2251.056152 81.528015 C 2250.384033 82.200012 2249.568115 82.536011 2248.608154 82.536011 L 2197.056152 82.536011 C 2196.095947 82.536011 2195.615967 83.015991 2195.615967 83.976013 L 2195.615967 245.544006 C 2195.615967 246.503998 2195.280029 247.320007 2194.608154 247.992004 C 2193.936035 248.664001 2193.120117 249 2192.160156 249 L 2158.464111 249 C 2157.50415 249 2156.687988 248.664001 2156.016113 247.992004 C 2155.343994 247.320007 2155.008057 246.503998 2155.008057 245.544006 L 2155.008057 83.976013 C 2155.008057 83.015991 2154.528076 82.536011 2153.568115 82.536011 L 2103.456055 82.536011 C 2102.496094 82.536011 2101.680176 82.200012 2101.008057 81.528015 C 2100.336182 80.855988 2100 80.040009 2100 79.079987 L 2100 50.855988 C 2100 49.895996 2100.336182 49.080017 2101.008057 48.40799 C 2101.680176 47.735992 2102.496094 47.399994 2103.456055 47.399994 L 2248.608154 47.399994 Z"/>
    <path id="Making-HubSpot" fill="#000000" fill-rule="evenodd" stroke="none" d="M 2034.42395 130.056 C 2034.42395 131.015991 2034.088013 131.832001 2033.416016 132.503998 C 2032.744019 133.175995 2031.927979 133.511993 2030.968018 133.511993 L 2003.319946 133.511993 C 2002.359985 133.511993 2001.880005 133.992004 2001.880005 134.951996 L 2001.880005 196.007996 C 2001.880005 202.344025 2003.176025 207.047974 2005.767944 210.119995 C 2008.359985 213.192017 2012.536011 214.727997 2018.296021 214.727997 L 2027.800049 214.727997 C 2028.76001 214.727997 2029.57605 215.063995 2030.248047 215.735992 C 2030.920044 216.40799 2031.255981 217.223999 2031.255981 218.18399 L 2031.255981 245.544006 C 2031.255981 247.656006 2030.104004 248.903992 2027.800049 249.287994 C 2019.735962 249.671997 2013.976074 249.864014 2010.52002 249.864014 C 1994.583862 249.864014 1982.680054 247.22403 1974.807983 241.944 C 1966.935913 236.663971 1962.904053 226.728058 1962.712036 212.135986 L 1962.712036 134.951996 C 1962.712036 133.992004 1962.232056 133.511993 1961.271973 133.511993 L 1944.855957 133.511993 C 1943.895996 133.511993 1943.079956 133.175995 1942.407959 132.503998 C 1941.735962 131.832001 1941.400024 131.015991 1941.400024 130.056 L 1941.400024 104.424011 C 1941.400024 103.463989 1941.735962 102.64801 1942.407959 101.976013 C 1943.079956 101.303986 1943.895996 100.967987 1944.855957 100.967987 L 1961.271973 100.967987 C 1962.232056 100.967987 1962.712036 100.488007 1962.712036 99.528015 L 1962.712036 65.256012 C 1962.712036 64.29599 1963.047974 63.480011 1963.719971 62.808014 C 1964.391968 62.135986 1965.208008 61.799988 1966.167969 61.799988 L 1998.42395 61.799988 C 1999.384033 61.799988 2000.199951 62.135986 2000.871948 62.808014 C 2001.543945 63.480011 2001.880005 64.29599 2001.880005 65.256012 L 2001.880005 99.528015 C 2001.880005 100.488007 2002.359985 100.967987 2003.319946 100.967987 L 2030.968018 100.967987 C 2031.927979 100.967987 2032.744019 101.303986 2033.416016 101.976013 C 2034.088013 102.64801 2034.42395 103.463989 2034.42395 104.424011 L 2034.42395 130.056 Z M 1858.456055 251.303986 C 1842.327881 251.303986 1828.504028 247.080048 1816.984009 238.631989 C 1805.463989 230.18396 1797.592041 218.664063 1793.368042 204.071991 C 1790.679932 195.047943 1789.33606 185.256042 1789.33606 174.696014 C 1789.33606 163.36795 1790.679932 153.192047 1793.368042 144.167999 C 1797.784058 129.95993 1805.751953 118.824036 1817.271973 110.76001 C 1828.792114 102.695953 1842.615967 98.664001 1858.744019 98.664001 C 1874.488037 98.664001 1887.927979 102.647949 1899.063965 110.615997 C 1910.200073 118.584045 1918.072021 129.671936 1922.680054 143.880005 C 1925.752075 153.480042 1927.287964 163.559937 1927.287964 174.119995 C 1927.287964 184.488037 1925.94397 194.18396 1923.255981 203.208008 C 1919.031982 218.184082 1911.208008 229.94397 1899.784058 238.488007 C 1888.359985 247.032043 1874.584106 251.303986 1858.456055 251.303986 Z M 1858.456055 216.455994 C 1864.791992 216.455994 1870.167969 214.536011 1874.583984 210.696014 C 1879 206.855988 1882.167969 201.576019 1884.088013 194.855988 C 1885.624023 188.711975 1886.391968 181.992035 1886.391968 174.696014 C 1886.391968 166.631958 1885.624023 159.81604 1884.088013 154.247986 C 1881.975952 147.719971 1878.712036 142.632019 1874.296021 138.984009 C 1869.880005 135.335968 1864.504028 133.511993 1858.167969 133.511993 C 1851.640015 133.511993 1846.216064 135.335968 1841.895996 138.984009 C 1837.575928 142.632019 1834.456055 147.719971 1832.536011 154.247986 C 1831 158.856018 1830.232056 165.671967 1830.232056 174.696014 C 1830.232056 183.336029 1830.904053 190.055969 1832.248047 194.855988 C 1834.167969 201.576019 1837.384033 206.855988 1841.895996 210.696014 C 1846.408081 214.536011 1851.927979 216.455994 1858.456055 216.455994 Z M 1762.552002 140.712006 C 1766.008057 150.504059 1767.735962 162.023926 1767.735962 175.272003 C 1767.735962 188.520081 1765.911987 200.519958 1762.264038 211.272003 C 1757.848022 223.560059 1750.888062 233.303955 1741.384033 240.503998 C 1731.880005 247.704041 1720.120117 251.303986 1706.104004 251.303986 C 1692.279907 251.303986 1681.528076 246.504059 1673.848022 236.903992 C 1673.463989 236.328003 1673.079956 236.135986 1672.696045 236.328003 C 1672.312012 236.519989 1672.119995 236.903992 1672.119995 237.480011 L 1672.119995 299.112 C 1672.119995 300.072021 1671.784058 300.888 1671.112061 301.559998 C 1670.439941 302.231995 1669.624023 302.567993 1668.66394 302.567993 L 1634.968018 302.567993 C 1634.007935 302.567993 1633.192017 302.231995 1632.52002 301.559998 C 1631.848022 300.888 1631.511963 300.072021 1631.511963 299.112 L 1631.511963 104.424011 C 1631.511963 103.463989 1631.848022 102.64801 1632.52002 101.976013 C 1633.192017 101.303986 1634.007935 100.967987 1634.968018 100.967987 L 1668.66394 100.967987 C 1669.624023 100.967987 1670.439941 101.303986 1671.112061 101.976013 C 1671.784058 102.64801 1672.119995 103.463989 1672.119995 104.424011 L 1672.119995 113.928009 C 1672.119995 114.503998 1672.312012 114.839996 1672.696045 114.936005 C 1673.079956 115.032013 1673.463989 114.888 1673.848022 114.503998 C 1681.911987 103.943939 1693.047974 98.664001 1707.255981 98.664001 C 1720.504028 98.664001 1731.975952 102.359955 1741.671997 109.752014 C 1751.368042 117.144043 1758.328003 127.463928 1762.552002 140.712006 Z M 1718.488037 205.223999 C 1723.287964 197.735962 1725.687988 187.560059 1725.687988 174.696014 C 1725.687988 162.599945 1723.671997 153.000031 1719.640015 145.895996 C 1715.223999 137.639954 1708.119995 133.511993 1698.328003 133.511993 C 1689.495972 133.511993 1682.87207 137.639954 1678.456055 145.895996 C 1674.42395 152.808044 1672.407959 162.503937 1672.407959 174.984009 C 1672.407959 187.848053 1674.52002 197.83197 1678.744019 204.936005 C 1683.160034 212.616028 1689.687988 216.455994 1698.328003 216.455994 C 1706.968018 216.455994 1713.687988 212.712036 1718.488037 205.223999 Z M 1530.712036 251.303986 C 1515.351929 251.303986 1501.912109 248.856018 1490.391968 243.959991 C 1478.871948 239.063965 1469.992065 232.056061 1463.751953 222.936005 C 1457.511963 213.815948 1454.391968 203.208069 1454.391968 191.112 L 1454.391968 184.776001 C 1454.391968 183.81601 1454.728027 183 1455.400024 182.328003 C 1456.072021 181.656006 1456.887939 181.320007 1457.848022 181.320007 L 1490.680054 181.320007 C 1491.640015 181.320007 1492.456055 181.656006 1493.128052 182.328003 C 1493.800049 183 1494.135986 183.81601 1494.135986 184.776001 L 1494.135986 189.096008 C 1494.135986 196.776031 1497.687988 203.255981 1504.791992 208.536011 C 1511.895996 213.81604 1521.495972 216.455994 1533.592041 216.455994 C 1543.768066 216.455994 1551.351929 214.296021 1556.343994 209.976013 C 1561.33606 205.655975 1563.832031 200.328033 1563.832031 193.992004 C 1563.832031 189.383972 1562.296021 185.496002 1559.223999 182.328003 C 1556.151978 179.159973 1551.976074 176.376007 1546.696045 173.976013 C 1541.416016 171.575989 1533.016113 168.264008 1521.495972 164.040009 C 1508.631958 159.623993 1497.736084 155.11203 1488.807983 150.503998 C 1479.880005 145.895966 1472.39209 139.608032 1466.343994 131.640015 C 1460.296021 123.671967 1457.271973 113.832062 1457.271973 102.119995 C 1457.271973 90.599945 1460.247925 80.52005 1466.199951 71.880005 C 1472.151978 63.23996 1480.407959 56.616028 1490.968018 52.007996 C 1501.528076 47.399963 1513.719971 45.096008 1527.543945 45.096008 C 1542.136108 45.096008 1555.143921 47.687988 1566.567993 52.872009 C 1577.992065 58.05603 1586.919922 65.303955 1593.352051 74.615997 C 1599.784058 83.92804 1603 94.727936 1603 107.015991 L 1603 111.335999 C 1603 112.29599 1602.664063 113.112 1601.991943 113.783997 C 1601.319946 114.455994 1600.504028 114.791992 1599.543945 114.791992 L 1566.42395 114.791992 C 1565.463989 114.791992 1564.647949 114.455994 1563.975952 113.783997 C 1563.303955 113.112 1562.968018 112.29599 1562.968018 111.335999 L 1562.968018 109.032013 C 1562.968018 100.967957 1559.656006 94.104034 1553.031982 88.440002 C 1546.407959 82.77597 1537.33606 79.944 1525.81604 79.944 C 1516.791992 79.944 1509.736084 81.863983 1504.647949 85.70401 C 1499.559937 89.544006 1497.015991 94.823975 1497.015991 101.544006 C 1497.015991 106.344025 1498.504028 110.375977 1501.47998 113.640015 C 1504.456055 116.904022 1508.871948 119.832001 1514.728027 122.424011 C 1520.583984 125.016022 1529.655884 128.519989 1541.94397 132.936005 C 1555.57605 137.92804 1566.279907 142.343994 1574.05603 146.18399 C 1581.832031 150.024017 1588.839966 155.735962 1595.079956 163.320007 C 1601.320068 170.904053 1604.439941 180.743927 1604.439941 192.839996 C 1604.439941 210.888092 1597.81604 225.143951 1584.567993 235.608002 C 1571.319946 246.072052 1553.368164 251.303986 1530.712036 251.303986 Z M 1427.031982 138.696014 C 1430.680054 148.680054 1432.504028 160.583923 1432.504028 174.40799 C 1432.504028 187.656067 1430.87207 199.271942 1427.608032 209.256012 C 1423.192017 222.312073 1416.136108 232.583954 1406.439941 240.071991 C 1396.743896 247.560028 1385.272095 251.303986 1372.024048 251.303986 C 1358.007935 251.303986 1346.968018 246.024048 1338.904053 235.463989 C 1338.52002 235.079987 1338.135986 234.936005 1337.751953 235.032013 C 1337.368042 235.127991 1337.176025 235.463989 1337.176025 236.040009 L 1337.176025 245.544006 C 1337.176025 246.503998 1336.839966 247.320007 1336.167969 247.992004 C 1335.495972 248.664001 1334.680054 249 1333.719971 249 L 1300.024048 249 C 1299.063965 249 1298.248047 248.664001 1297.57605 247.992004 C 1296.904053 247.320007 1296.567993 246.503998 1296.567993 245.544006 L 1296.567993 50.855988 C 1296.567993 49.895996 1296.904053 49.080017 1297.57605 48.40799 C 1298.248047 47.735992 1299.063965 47.399994 1300.024048 47.399994 L 1333.719971 47.399994 C 1334.680054 47.399994 1335.495972 47.735992 1336.167969 48.40799 C 1336.839966 49.080017 1337.176025 49.895996 1337.176025 50.855988 L 1337.176025 112.488007 C 1337.176025 113.063995 1337.368042 113.447998 1337.751953 113.640015 C 1338.135986 113.832001 1338.52002 113.640015 1338.904053 113.063995 C 1346.39209 103.463959 1357.047974 98.664001 1370.871948 98.664001 C 1384.888062 98.664001 1396.647949 102.263977 1406.151978 109.463989 C 1415.656006 116.664032 1422.615967 126.407928 1427.031982 138.696014 Z M 1384.407959 204.071991 C 1388.440063 196.77597 1390.456055 187.176056 1390.456055 175.272003 C 1390.456055 162.023926 1388.151978 151.848022 1383.543945 144.743988 C 1378.936035 137.255951 1372.119995 133.511993 1363.095947 133.511993 C 1354.647949 133.511993 1348.216064 137.255951 1343.800049 144.743988 C 1339.575928 152.040039 1337.463989 162.119934 1337.463989 174.984009 C 1337.463989 187.848053 1339.384033 197.543976 1343.223999 204.071991 C 1347.832031 212.328033 1354.552002 216.455994 1363.384033 216.455994 C 1372.791992 216.455994 1379.799927 212.328033 1384.407959 204.071991 Z M 1225.432007 104.424011 C 1225.432007 103.463989 1225.767944 102.64801 1226.439941 101.976013 C 1227.112061 101.303986 1227.927979 100.967987 1228.887939 100.967987 L 1262.583984 100.967987 C 1263.543945 100.967987 1264.359985 101.303986 1265.031982 101.976013 C 1265.703979 102.64801 1266.040039 103.463989 1266.040039 104.424011 L 1266.040039 245.544006 C 1266.040039 246.503998 1265.703979 247.320007 1265.031982 247.992004 C 1264.359985 248.664001 1263.543945 249 1262.583984 249 L 1228.887939 249 C 1227.927979 249 1227.112061 248.664001 1226.439941 247.992004 C 1225.767944 247.320007 1225.432007 246.503998 1225.432007 245.544006 L 1225.432007 235.752014 C 1225.432007 235.175995 1225.23999 234.839996 1224.855957 234.743988 C 1224.472046 234.64801 1224.088013 234.888 1223.703979 235.463989 C 1216.023926 245.832062 1204.120117 251.015991 1187.991943 251.015991 C 1173.399902 251.015991 1161.400024 246.600037 1151.991943 237.768005 C 1142.583984 228.935944 1137.880005 216.552094 1137.880005 200.615997 L 1137.880005 104.424011 C 1137.880005 103.463989 1138.215942 102.64801 1138.887939 101.976013 C 1139.560059 101.303986 1140.375977 100.967987 1141.33606 100.967987 L 1174.744019 100.967987 C 1175.703979 100.967987 1176.52002 101.303986 1177.192017 101.976013 C 1177.864014 102.64801 1178.199951 103.463989 1178.199951 104.424011 L 1178.199951 190.536011 C 1178.199951 198.216034 1180.264038 204.455963 1184.391968 209.256012 C 1188.52002 214.05603 1194.231934 216.455994 1201.527954 216.455994 C 1208.05603 216.455994 1213.432007 214.488007 1217.656006 210.552002 C 1221.880005 206.615967 1224.472046 201.480042 1225.432007 195.144012 L 1225.432007 104.424011 Z M 1067.895996 50.855988 C 1067.895996 49.895996 1068.232056 49.080017 1068.904053 48.40799 C 1069.57605 47.735992 1070.391968 47.399994 1071.352051 47.399994 L 1105.047974 47.399994 C 1106.008057 47.399994 1106.823975 47.735992 1107.495972 48.40799 C 1108.167969 49.080017 1108.504028 49.895996 1108.504028 50.855988 L 1108.504028 245.544006 C 1108.504028 246.503998 1108.167969 247.320007 1107.495972 247.992004 C 1106.823975 248.664001 1106.008057 249 1105.047974 249 L 1071.352051 249 C 1070.391968 249 1069.57605 248.664001 1068.904053 247.992004 C 1068.232056 247.320007 1067.895996 246.503998 1067.895996 245.544006 L 1067.895996 166.056 C 1067.895996 165.096008 1067.416016 164.615997 1066.456055 164.615997 L 1002.807983 164.615997 C 1001.848022 164.615997 1001.367981 165.096008 1001.367981 166.056 L 1001.367981 245.544006 C 1001.367981 246.503998 1001.031982 247.320007 1000.359985 247.992004 C 999.687988 248.664001 998.872009 249 997.911987 249 L 964.216003 249 C 963.255981 249 962.440002 248.664001 961.768005 247.992004 C 961.096008 247.320007 960.76001 246.503998 960.76001 245.544006 L 960.76001 50.855988 C 960.76001 49.895996 961.096008 49.080017 961.768005 48.40799 C 962.440002 47.735992 963.255981 47.399994 964.216003 47.399994 L 997.911987 47.399994 C 998.872009 47.399994 999.687988 47.735992 1000.359985 48.40799 C 1001.031982 49.080017 1001.367981 49.895996 1001.367981 50.855988 L 1001.367981 128.328003 C 1001.367981 129.287994 1001.848022 129.768005 1002.807983 129.768005 L 1066.456055 129.768005 C 1067.416016 129.768005 1067.895996 129.287994 1067.895996 128.328003 L 1067.895996 50.855988 Z M 830.872009 104.424011 C 830.872009 103.463989 831.208008 102.64801 831.880005 101.976013 C 832.552002 101.303986 833.367981 100.967987 834.328003 100.967987 L 868.023987 100.967987 C 868.984009 100.967987 869.799988 101.303986 870.471985 101.976013 C 871.143982 102.64801 871.47998 103.463989 871.47998 104.424011 L 871.47998 235.752014 C 871.47998 260.904114 864.232056 278.855957 849.736023 289.608002 C 835.239929 300.360046 816.568115 305.735992 793.719971 305.735992 C 786.999939 305.735992 779.512024 305.256012 771.255981 304.296021 C 769.335999 304.104004 768.375977 302.856018 768.375977 300.552002 L 769.528015 270.888 C 769.528015 268.391998 770.872009 267.335999 773.559998 267.720001 C 780.472046 268.872009 786.807983 269.447998 792.567993 269.447998 C 804.856079 269.447998 814.311951 266.76004 820.935974 261.384003 C 827.560059 256.007965 830.872009 247.368073 830.872009 235.463989 C 830.872009 234.888 830.679993 234.552002 830.296021 234.455994 C 829.911987 234.359985 829.528015 234.503998 829.143982 234.888 C 821.847961 242.76004 811.192078 246.696014 797.176025 246.696014 C 784.695923 246.696014 773.22406 243.672028 762.76001 237.623993 C 752.295959 231.575958 744.856018 221.832062 740.440002 208.391998 C 737.559998 199.559967 736.119995 188.136078 736.119995 174.119995 C 736.119995 159.143921 737.847961 146.952057 741.304016 137.544006 C 745.335999 125.83194 752.151978 116.424042 761.752014 109.320007 C 771.352051 102.215973 782.487915 98.664001 795.159973 98.664001 C 809.944092 98.664001 821.271973 103.079956 829.143982 111.911987 C 829.528015 112.29599 829.911987 112.440002 830.296021 112.343994 C 830.679993 112.247986 830.872009 111.912018 830.872009 111.335999 L 830.872009 104.424011 Z M 828.567993 197.447998 C 830.104004 191.687958 830.872009 183.81604 830.872009 173.832001 C 830.872009 167.879974 830.679993 163.272003 830.296021 160.007996 C 829.911987 156.743988 829.23999 153.672028 828.280029 150.791992 C 826.552002 145.607971 823.671997 141.432007 819.640015 138.264008 C 815.607971 135.095978 810.616028 133.511993 804.664001 133.511993 C 798.903992 133.511993 794.007996 135.095978 789.976013 138.264008 C 785.94397 141.432007 782.968018 145.607971 781.047974 150.791992 C 778.359985 156.552032 777.015991 164.327942 777.015991 174.119995 C 777.015991 184.87204 778.167969 192.551971 780.471985 197.160004 C 782.200012 202.344025 785.223999 206.519989 789.544006 209.687988 C 793.864014 212.856018 799 214.440002 804.952026 214.440002 C 811.096008 214.440002 816.18396 212.856018 820.216003 209.687988 C 824.248047 206.519989 827.031982 202.440033 828.567993 197.447998 Z M 660.088013 98.664001 C 675.448059 98.664001 687.83197 103.36795 697.23999 112.776001 C 706.648071 122.184052 711.35199 134.951904 711.35199 151.079987 L 711.35199 245.544006 C 711.35199 246.503998 711.015991 247.320007 710.343994 247.992004 C 709.671997 248.664001 708.856018 249 707.895996 249 L 674.200012 249 C 673.23999 249 672.424011 248.664001 671.752014 247.992004 C 671.080017 247.320007 670.744019 246.503998 670.744019 245.544006 L 670.744019 159.432007 C 670.744019 151.751953 668.584045 145.512024 664.263977 140.712006 C 659.94397 135.911987 654.232056 133.511993 647.127991 133.511993 C 640.023987 133.511993 634.312012 135.911987 629.992004 140.712006 C 625.671997 145.512024 623.512024 151.751953 623.512024 159.432007 L 623.512024 245.544006 C 623.512024 246.503998 623.176025 247.320007 622.504028 247.992004 C 621.83197 248.664001 621.015991 249 620.05603 249 L 586.359985 249 C 585.400024 249 584.583984 248.664001 583.911987 247.992004 C 583.23999 247.320007 582.903992 246.503998 582.903992 245.544006 L 582.903992 104.424011 C 582.903992 103.463989 583.23999 102.64801 583.911987 101.976013 C 584.583984 101.303986 585.400024 100.967987 586.359985 100.967987 L 620.05603 100.967987 C 621.015991 100.967987 621.83197 101.303986 622.504028 101.976013 C 623.176025 102.64801 623.512024 103.463989 623.512024 104.424011 L 623.512024 114.503998 C 623.512024 115.080017 623.703979 115.463989 624.088013 115.656006 C 624.471985 115.847992 624.76001 115.752014 624.952026 115.368011 C 632.824036 104.231934 644.53595 98.664001 660.088013 98.664001 Z M 531.35199 84.264008 C 524.823975 84.264008 519.400024 82.104034 515.080017 77.783997 C 510.759979 73.463989 508.600006 68.040039 508.600006 61.511993 C 508.600006 54.791962 510.711975 49.320007 514.935974 45.096008 C 519.160034 40.871979 524.631958 38.76001 531.35199 38.76001 C 538.072021 38.76001 543.544006 40.871979 547.768005 45.096008 C 551.992004 49.320007 554.104004 54.791962 554.104004 61.511993 C 554.104004 68.040039 551.944031 73.463989 547.624023 77.783997 C 543.303955 82.104034 537.880005 84.264008 531.35199 84.264008 Z M 514.072021 249 C 513.112 249 512.296021 248.664001 511.623993 247.992004 C 510.951996 247.320007 510.615997 246.503998 510.615997 245.544006 L 510.615997 104.135986 C 510.615997 103.175995 510.951996 102.360016 511.623993 101.687988 C 512.296021 101.015991 513.112 100.679993 514.072021 100.679993 L 547.768005 100.679993 C 548.728027 100.679993 549.544006 101.015991 550.216003 101.687988 C 550.888 102.360016 551.223999 103.175995 551.223999 104.135986 L 551.223999 245.544006 C 551.223999 246.503998 550.888 247.320007 550.216003 247.992004 C 549.544006 248.664001 548.728027 249 547.768005 249 L 514.072021 249 Z M 359.415985 249 C 358.455994 249 357.640015 248.664001 356.967987 247.992004 C 356.29599 247.320007 355.959991 246.503998 355.959991 245.544006 L 355.959991 50.855988 C 355.959991 49.895996 356.29599 49.080017 356.967987 48.40799 C 357.640015 47.735992 358.455994 47.399994 359.415985 47.399994 L 393.112 47.399994 C 394.071991 47.399994 394.888 47.735992 395.559998 48.40799 C 396.231995 49.080017 396.567993 49.895996 396.567993 50.855988 L 396.567993 147.911987 C 396.567993 148.488007 396.76001 148.824005 397.144012 148.920013 C 397.528015 149.015991 397.911987 148.872009 398.29599 148.488007 L 437.463989 102.984009 C 438.808014 101.639984 440.247986 100.967987 441.783997 100.967987 L 480.088013 100.967987 C 482.007996 100.967987 482.967987 101.639984 482.967987 102.984009 C 482.967987 103.559998 482.679993 104.328003 482.104004 105.287994 L 445.528015 151.656006 C 445.144012 152.424011 445.048004 153.096008 445.23999 153.671997 L 488.152008 244.967987 C 488.536011 245.735992 488.727997 246.312012 488.727997 246.696014 C 488.727997 248.231995 487.671997 249 485.559998 249 L 450.135986 249 C 448.216003 249 446.872009 248.136017 446.104004 246.40799 L 417.59201 179.015991 C 417.399994 178.631989 417.063995 178.391998 416.584015 178.29599 C 416.104004 178.200012 415.768005 178.343994 415.575989 178.727997 L 397.144012 201.768005 C 396.76001 202.536011 396.567993 203.112 396.567993 203.496002 L 396.567993 245.544006 C 396.567993 246.503998 396.231995 247.320007 395.559998 247.992004 C 394.888 248.664001 394.071991 249 393.112 249 L 359.415985 249 Z M 262.936005 98.664001 C 275.416077 98.664001 286.551941 100.823975 296.343994 105.144012 C 306.136047 109.46402 313.767975 115.36795 319.23999 122.855988 C 324.712036 130.344025 327.447998 138.695953 327.447998 147.911987 L 327.447998 245.544006 C 327.447998 246.503998 327.112 247.320007 326.440002 247.992004 C 325.768005 248.664001 324.951996 249 323.992004 249 L 290.29599 249 C 289.335999 249 288.519989 248.664001 287.847992 247.992004 C 287.175995 247.320007 286.839996 246.503998 286.839996 245.544006 L 286.839996 236.040009 C 286.839996 235.463989 286.64801 235.079987 286.264008 234.888 C 285.880005 234.695984 285.496002 234.888 285.112 235.463989 C 277.047974 246.024048 264.088104 251.303986 246.231995 251.303986 C 231.25592 251.303986 219.160049 247.656036 209.944 240.359985 C 200.727951 233.063965 196.119995 222.312073 196.119995 208.104004 C 196.119995 193.319916 201.303955 181.848053 211.671997 173.687988 C 222.040054 165.527954 236.823898 161.447998 256.023987 161.447998 L 285.399994 161.447998 C 286.360016 161.447998 286.839996 160.968018 286.839996 160.007996 L 286.839996 153.671997 C 286.839996 147.335968 284.920013 142.392029 281.079987 138.839996 C 277.23999 135.287994 271.480042 133.511993 263.799988 133.511993 C 257.847961 133.511993 252.904022 134.567993 248.968002 136.679993 C 245.031982 138.792023 242.488007 141.767975 241.335999 145.608002 C 240.759995 147.720001 239.512009 148.679993 237.591995 148.488007 L 202.744003 143.880005 C 200.439987 143.496002 199.384003 142.632019 199.576004 141.287994 C 200.344009 133.223969 203.559967 125.92804 209.223999 119.399994 C 214.888031 112.871979 222.375946 107.784027 231.688004 104.135986 C 241.000046 100.487976 251.415939 98.664001 262.936005 98.664001 Z M 257.175995 221.063995 C 265.432037 221.063995 272.439972 218.856018 278.200012 214.440002 C 283.960022 210.023987 286.839996 204.360046 286.839996 197.447998 L 286.839996 187.079987 C 286.839996 186.119995 286.360016 185.640015 285.399994 185.640015 L 264.664001 185.640015 C 256.023956 185.640015 249.256027 187.271973 244.360001 190.536011 C 239.463974 193.800018 237.016006 198.407959 237.016006 204.359985 C 237.016006 209.544037 238.839981 213.623993 242.488007 216.600006 C 246.136017 219.576019 251.031967 221.063995 257.175995 221.063995 Z M 130.167999 49.70401 C 131.128006 48.167999 132.471985 47.399994 134.199997 47.399994 L 167.895996 47.399994 C 168.856003 47.399994 169.671997 47.735992 170.343994 48.40799 C 171.016006 49.080017 171.352005 49.895996 171.352005 50.855988 L 171.352005 245.544006 C 171.352005 246.503998 171.016006 247.320007 170.343994 247.992004 C 169.671997 248.664001 168.856003 249 167.895996 249 L 134.199997 249 C 133.23999 249 132.423996 248.664001 131.751999 247.992004 C 131.080002 247.320007 130.744003 246.503998 130.744003 245.544006 L 130.744003 118.536011 C 130.744003 117.768005 130.552002 117.384003 130.167999 117.384003 C 129.783997 117.384003 129.400009 117.671997 129.016006 118.247986 L 98.487999 166.056 C 97.527992 167.59201 96.184006 168.359985 94.456001 168.359985 L 77.463997 168.359985 C 75.735992 168.359985 74.392006 167.59201 73.431999 166.056 L 42.903999 118.247986 C 42.519997 117.671997 42.136002 117.432007 41.751999 117.528015 C 41.367996 117.623993 41.175999 118.056 41.175999 118.824005 L 41.175999 245.544006 C 41.175999 246.503998 40.840004 247.320007 40.167999 247.992004 C 39.495998 248.664001 38.680004 249 37.720001 249 L 4.024 249 C 3.063995 249 2.248003 248.664001 1.576 247.992004 C 0.903997 247.320007 0.568 246.503998 0.568 245.544006 L 0.568 50.855988 C 0.568 49.895996 0.903997 49.080017 1.576 48.40799 C 2.248003 47.735992 3.063995 47.399994 4.024 47.399994 L 37.720001 47.399994 C 39.448009 47.399994 40.791996 48.167999 41.751999 49.70401 L 84.952003 116.808014 C 85.528 117.959991 86.103996 117.959991 86.68 116.808014 L 130.167999 49.70401 Z"/>
    <g id="Group">
        <path id="Powered-by" fill="#000000" fill-rule="evenodd" stroke="none" d="M 1372.5 545.849976 C 1371.799927 545.849976 1371.449951 545.349976 1371.449951 544.349976 L 1371.449951 535.5 C 1371.449951 534.5 1371.949951 534 1372.949951 534 L 1373.25 534 C 1377.25 533.900024 1380.400024 533.400024 1382.699951 532.5 C 1385 531.599976 1386.900024 529.924988 1388.400024 527.474976 C 1389.900024 525.024963 1391.349976 521.350037 1392.75 516.450012 C 1392.849976 516.349976 1392.875 516.174988 1392.824951 515.924988 C 1392.775024 515.674988 1392.75 515.549988 1392.75 515.549988 L 1367.699951 441.299988 L 1367.549927 440.700012 C 1367.549927 440 1368 439.649994 1368.900024 439.649994 L 1381.049927 439.649994 C 1381.949951 439.649994 1382.549927 440.049988 1382.849976 440.850006 L 1399.799927 497.399994 C 1399.900024 497.600006 1400.049927 497.700012 1400.25 497.700012 C 1400.449951 497.700012 1400.599976 497.600006 1400.699951 497.399994 L 1417.5 440.850006 C 1417.799927 440.049988 1418.400024 439.649994 1419.299927 439.649994 L 1431.150024 439.649994 C 1432.25 439.649994 1432.650024 440.200012 1432.349976 441.299988 L 1405.049927 521.25 C 1402.75 528.150024 1400.449951 533.274963 1398.150024 536.625 C 1395.849976 539.975037 1392.849976 542.349976 1389.150024 543.75 C 1385.449951 545.150024 1380.25 545.849976 1373.549927 545.849976 L 1372.5 545.849976 Z M 1355.549927 459.450012 C 1357.150024 464.550018 1357.949951 470.599976 1357.949951 477.600006 C 1357.949951 485.100037 1357 491.499969 1355.099976 496.799988 C 1352.900024 503.300049 1349.425049 508.324982 1344.674927 511.875 C 1339.924927 515.425049 1333.949951 517.200012 1326.75 517.200012 C 1323.25 517.200012 1320 516.5 1317 515.099976 C 1314 513.700012 1311.400024 511.75 1309.199951 509.25 C 1309 509.049988 1308.824951 509 1308.674927 509.100006 C 1308.525024 509.200012 1308.449951 509.350006 1308.449951 509.549988 L 1308.449951 514.5 C 1308.449951 515.5 1307.949951 516 1306.949951 516 L 1295.549927 516 C 1294.549927 516 1294.049927 515.5 1294.049927 514.5 L 1294.049927 412.5 C 1294.049927 411.5 1294.549927 411 1295.549927 411 L 1306.949951 411 C 1307.949951 411 1308.449951 411.5 1308.449951 412.5 L 1308.449951 445.950012 C 1308.449951 446.149994 1308.525024 446.299988 1308.674927 446.399994 C 1308.824951 446.5 1309 446.450012 1309.199951 446.25 C 1311.400024 443.75 1314.024902 441.825012 1317.074951 440.475006 C 1320.125 439.125 1323.349976 438.450012 1326.75 438.450012 C 1334.25 438.450012 1340.399902 440.299988 1345.199951 444 C 1350 447.700012 1353.449951 452.849976 1355.549927 459.450012 Z M 1339.650024 496.5 C 1342.150024 491.799988 1343.400024 485.600037 1343.400024 477.899994 C 1343.400024 469.699951 1341.800049 463.100037 1338.599976 458.100006 C 1335.699951 453.299988 1331.25 450.899994 1325.25 450.899994 C 1319.649902 450.899994 1315.400024 453.449982 1312.5 458.549988 C 1309.899902 463.150024 1308.599976 469.549957 1308.599976 477.75 C 1308.599976 485.950043 1309.799927 492.249969 1312.199951 496.649994 C 1315.199951 502.050018 1319.599976 504.75 1325.400024 504.75 C 1332 504.75 1336.75 502.000031 1339.650024 496.5 Z M 1228.349976 412.5 C 1228.349976 411.5 1228.849976 411 1229.849976 411 L 1241.25 411 C 1242.25 411 1242.75 411.5 1242.75 412.5 L 1242.75 514.5 C 1242.75 515.5 1242.25 516 1241.25 516 L 1229.849976 516 C 1228.849976 516 1228.349976 515.5 1228.349976 514.5 L 1228.349976 509.549988 C 1228.349976 509.350006 1228.275024 509.200012 1228.125 509.100006 C 1227.974976 509 1227.800049 509.049988 1227.599976 509.25 C 1225.400024 511.75 1222.800049 513.700012 1219.800049 515.099976 C 1216.800049 516.5 1213.550049 517.200012 1210.050049 517.200012 C 1202.849976 517.200012 1196.875 515.425049 1192.125 511.875 C 1187.375 508.324982 1183.900024 503.300049 1181.699951 496.799988 C 1179.800049 491.499969 1178.849976 485.100037 1178.849976 477.600006 C 1178.849976 470.599976 1179.650024 464.550018 1181.25 459.450012 C 1183.349976 452.849976 1186.799927 447.700012 1191.599976 444 C 1196.400024 440.299988 1202.549927 438.450012 1210.050049 438.450012 C 1213.450073 438.450012 1216.675049 439.125 1219.724976 440.475006 C 1222.775024 441.825012 1225.400024 443.75 1227.599976 446.25 C 1227.800049 446.450012 1227.974976 446.5 1228.125 446.399994 C 1228.275024 446.299988 1228.349976 446.149994 1228.349976 445.950012 L 1228.349976 412.5 Z M 1224.599976 496.649994 C 1226.900024 492.449982 1228.050049 486.150055 1228.050049 477.75 C 1228.050049 469.349976 1226.800049 462.950012 1224.300049 458.549988 C 1221.400024 453.449982 1217.150024 450.899994 1211.550049 450.899994 C 1205.549927 450.899994 1201.099976 453.299988 1198.199951 458.100006 C 1195 463.100037 1193.400024 469.699951 1193.400024 477.899994 C 1193.400024 485.600037 1194.650024 491.799988 1197.150024 496.5 C 1200.050049 502.000031 1204.799927 504.75 1211.400024 504.75 C 1217.200073 504.75 1221.599976 502.050018 1224.599976 496.649994 Z M 1162.349976 468.299988 C 1162.75 472.400024 1162.900024 476.999969 1162.800049 482.100006 C 1162.800049 483.100006 1162.300049 483.600006 1161.300049 483.600006 L 1113.449951 483.600006 C 1113.050049 483.600006 1112.849976 483.799988 1112.849976 484.200012 C 1112.849976 487.600006 1113.150024 490.199982 1113.75 492 C 1114.849976 496.000031 1117.074951 499.125 1120.425049 501.375 C 1123.775024 503.625 1128 504.75 1133.099976 504.75 C 1140.5 504.75 1146.199951 501.700043 1150.199951 495.600006 C 1150.699951 494.600006 1151.349976 494.450012 1152.150024 495.149994 L 1160.699951 500.850006 C 1161.400024 501.450012 1161.550049 502.100006 1161.150024 502.799988 C 1158.349976 507.300018 1154.375 510.849976 1149.224976 513.450012 C 1144.074951 516.049988 1138.25 517.349976 1131.75 517.349976 C 1124.449951 517.349976 1118.300049 515.75 1113.300049 512.549988 C 1108.299927 509.349976 1104.550049 504.800018 1102.050049 498.899994 C 1099.650024 492.999969 1098.449951 485.850037 1098.449951 477.450012 C 1098.449951 470.149963 1099 464.600037 1100.099976 460.799988 C 1101.900024 453.899963 1105.5 448.450012 1110.900024 444.450012 C 1116.300049 440.449982 1122.849976 438.450012 1130.550049 438.450012 C 1140.650024 438.450012 1148.199951 440.974976 1153.199951 446.024994 C 1158.200073 451.075012 1161.25 458.499939 1162.349976 468.299988 Z M 1130.550049 450.899994 C 1126.25 450.899994 1122.700073 451.974976 1119.900024 454.125 C 1117.099976 456.275024 1115.199951 459.149963 1114.199951 462.75 C 1113.5 464.950012 1113.050049 467.75 1112.849976 471.149994 C 1112.849976 471.549988 1113.050049 471.75 1113.449951 471.75 L 1147.800049 471.75 C 1148.199951 471.75 1148.400024 471.549988 1148.400024 471.149994 C 1148.199951 467.849976 1147.900024 465.400024 1147.5 463.799988 C 1146.5 459.899963 1144.525024 456.775024 1141.574951 454.424988 C 1138.625 452.074982 1134.950073 450.899994 1130.550049 450.899994 Z M 1079.550049 438.899994 C 1082.75 438.899994 1085.650024 439.549988 1088.25 440.850006 C 1088.949951 441.149994 1089.199951 441.75 1089 442.649994 L 1086.599976 453.899994 C 1086.5 454.799988 1085.900024 455.100006 1084.800049 454.799988 C 1083.099976 454.100006 1081.099976 453.75 1078.800049 453.75 L 1076.699951 453.899994 C 1072 454.100006 1068.125 455.724976 1065.074951 458.774994 C 1062.025024 461.825012 1060.5 465.799988 1060.5 470.700012 L 1060.5 514.5 C 1060.5 515.5 1060 516 1059 516 L 1047.599976 516 C 1046.599976 516 1046.099976 515.5 1046.099976 514.5 L 1046.099976 441.149994 C 1046.099976 440.149994 1046.599976 439.649994 1047.599976 439.649994 L 1059 439.649994 C 1060 439.649994 1060.5 440.149994 1060.5 441.149994 L 1060.5 449.100006 C 1060.5 449.399994 1060.574951 449.575012 1060.724976 449.625 C 1060.875 449.674988 1061 449.600006 1061.099976 449.399994 C 1065.599976 442.399963 1071.75 438.899994 1079.550049 438.899994 Z M 1027.5 468.299988 C 1027.900024 472.400024 1028.050049 476.999969 1027.949951 482.100006 C 1027.949951 483.100006 1027.449951 483.600006 1026.449951 483.600006 L 978.600037 483.600006 C 978.200012 483.600006 978.000061 483.799988 978.000061 484.200012 C 978.000061 487.600006 978.300049 490.199982 978.900024 492 C 980.000061 496.000031 982.225037 499.125 985.575012 501.375 C 988.925049 503.625 993.150024 504.75 998.250061 504.75 C 1005.650085 504.75 1011.350037 501.700043 1015.350037 495.600006 C 1015.850037 494.600006 1016.500061 494.450012 1017.300049 495.149994 L 1025.849976 500.850006 C 1026.550049 501.450012 1026.699951 502.100006 1026.300049 502.799988 C 1023.5 507.300018 1019.525085 510.849976 1014.375061 513.450012 C 1009.225037 516.049988 1003.400085 517.349976 996.900024 517.349976 C 989.599976 517.349976 983.450073 515.75 978.450012 512.549988 C 973.450012 509.349976 969.700073 504.800018 967.200012 498.899994 C 964.800049 492.999969 963.600037 485.850037 963.600037 477.450012 C 963.600037 470.149963 964.150024 464.600037 965.250061 460.799988 C 967.050049 453.899963 970.650024 448.450012 976.050049 444.450012 C 981.450073 440.449982 988 438.450012 995.700012 438.450012 C 1005.80011 438.450012 1013.350037 440.974976 1018.350037 446.024994 C 1023.350037 451.075012 1026.400024 458.499939 1027.5 468.299988 Z M 995.700012 450.899994 C 991.400024 450.899994 987.850037 451.974976 985.050049 454.125 C 982.25 456.275024 980.350037 459.149963 979.350037 462.75 C 978.650024 464.950012 978.200012 467.75 978.000061 471.149994 C 978.000061 471.549988 978.200012 471.75 978.600037 471.75 L 1012.950012 471.75 C 1013.350037 471.75 1013.550049 471.549988 1013.550049 471.149994 C 1013.350037 467.849976 1013.050049 465.400024 1012.650024 463.799988 C 1011.650024 459.899963 1009.675049 456.775024 1006.725037 454.424988 C 1003.775024 452.074982 1000.100037 450.899994 995.700012 450.899994 Z M 874.500061 516 C 873.700012 516 873.150024 515.599976 872.850037 514.799988 L 851.250061 441.299988 L 851.100037 440.850006 C 851.100037 440.049988 851.600037 439.649994 852.600037 439.649994 L 864.300049 439.649994 C 865.200012 439.649994 865.750061 440.100006 865.950012 441 L 880.200012 495.450012 C 880.300049 495.649994 880.425049 495.75 880.575012 495.75 C 880.725037 495.75 880.850037 495.649994 880.950012 495.450012 L 895.500061 441 C 895.700012 440.100006 896.250061 439.649994 897.150024 439.649994 L 907.500061 439.649994 C 908.400024 439.649994 908.950012 440.100006 909.150024 441 L 924.000061 495.299988 C 924.100037 495.5 924.225037 495.600006 924.375061 495.600006 C 924.525024 495.600006 924.650024 495.5 924.750061 495.299988 L 939.600037 441 C 939.800049 440.100006 940.350037 439.649994 941.250061 439.649994 L 952.800049 439.799988 C 953.300049 439.799988 953.675049 439.950012 953.925049 440.25 C 954.175049 440.549988 954.250061 440.950012 954.150024 441.450012 L 932.400024 514.799988 C 932.100037 515.599976 931.550049 516 930.750061 516 L 919.050049 516 C 918.250061 516 917.700012 515.599976 917.400024 514.799988 L 902.700012 464.100006 C 902.600037 463.899994 902.475037 463.799988 902.325012 463.799988 C 902.175049 463.799988 902.050049 463.899994 901.950012 464.100006 L 888.000061 514.650024 C 887.800049 515.549988 887.250061 516 886.350037 516 L 874.500061 516 Z M 808.950012 517.200012 C 801.549988 517.200012 795.100037 515.325012 789.600037 511.575012 C 784.100037 507.824982 780.250061 502.600037 778.050049 495.899994 C 776.25 490.499969 775.350037 484.400024 775.350037 477.600006 C 775.350037 470.499969 776.200012 464.500031 777.900024 459.600006 C 780.100037 452.999969 783.950012 447.825012 789.450012 444.075012 C 794.950073 440.324982 801.5 438.450012 809.100037 438.450012 C 816.300049 438.450012 822.575012 440.324982 827.925049 444.075012 C 833.275085 447.825012 837.100037 452.949951 839.400024 459.450012 C 841.200073 464.550018 842.100037 470.549957 842.100037 477.450012 C 842.100037 484.450043 841.200073 490.599976 839.400024 495.899994 C 837.200012 502.600037 833.400085 507.824982 828.000061 511.575012 C 822.600037 515.325012 816.250061 517.200012 808.950012 517.200012 Z M 808.950012 504.75 C 812.950073 504.75 816.450012 503.625 819.450012 501.375 C 822.450073 499.125 824.600037 495.950012 825.900024 491.850006 C 827.000061 488.049988 827.550049 483.350037 827.550049 477.75 C 827.550049 472.149963 827.050049 467.5 826.050049 463.799988 C 824.75 459.699982 822.600037 456.525024 819.600037 454.274994 C 816.600037 452.024994 812.950073 450.899994 808.650024 450.899994 C 804.549988 450.899994 801.000061 452.024994 798.000061 454.274994 C 795 456.525024 792.850037 459.699982 791.550049 463.799988 C 790.450012 467.300018 789.900024 471.949982 789.900024 477.75 C 789.900024 483.550018 790.450012 488.249969 791.550049 491.850006 C 792.750061 495.950012 794.875 499.125 797.925049 501.375 C 800.975037 503.625 804.650024 504.75 808.950012 504.75 Z M 735.000061 410.850006 C 741.100037 410.850006 746.475037 412.125 751.125061 414.674988 C 755.775085 417.225006 759.375 420.799988 761.925049 425.399994 C 764.475037 430.000031 765.750061 435.299988 765.750061 441.299988 C 765.750061 447.300049 764.450073 452.549988 761.850037 457.049988 C 759.25 461.550018 755.575073 465.049988 750.825012 467.549988 C 746.075012 470.050018 740.600098 471.299988 734.400024 471.299988 L 708 471.299988 C 707.600037 471.299988 707.400024 471.5 707.400024 471.899994 L 707.400024 514.5 C 707.400024 515.5 706.900024 516 705.900024 516 L 694.5 516 C 693.5 516 693 515.5 693 514.5 L 693 412.350006 C 693 411.349976 693.5 410.850006 694.5 410.850006 L 735.000061 410.850006 Z M 733.050049 459.600006 C 738.550049 459.600006 742.975037 457.950012 746.325012 454.649994 C 749.675049 451.349976 751.350037 447.000031 751.350037 441.600006 C 751.350037 436.099976 749.675049 431.675018 746.325012 428.325012 C 742.975037 424.974976 738.550049 423.299988 733.050049 423.299988 L 708 423.299988 C 707.600037 423.299988 707.400024 423.5 707.400024 423.899994 L 707.400024 459 C 707.400024 459.399994 707.600037 459.600006 708 459.600006 L 733.050049 459.600006 Z"/>
        <g id="Sesam-Logo-Cyan">
            <path id="Path" fill="#009fdc" stroke="none" d="M 1962.099976 424.547424 C 1956.478638 416.172607 1947.237427 411.542053 1929.188232 411.542053 C 1910.003906 411.542053 1900.309692 417.043945 1894.972046 426.897522 C 1889.659424 417.043945 1880.0896 411.542053 1860.616455 411.542053 C 1842.876099 411.542053 1833.450684 416.172607 1827.829346 424.547424 L 1853.063232 424.547424 C 1855.586182 424.151215 1858.132935 423.924988 1860.686279 423.87027 C 1864.013062 423.946564 1867.327515 424.303009 1870.594604 424.935791 C 1880.478027 427.54483 1887.379028 434.864044 1888.180664 446.16156 L 1888.180664 510.824768 L 1901.71875 510.824768 L 1901.71875 446.480225 C 1902.415771 435.003479 1909.356689 427.559753 1919.324707 424.940765 C 1922.591797 424.308533 1925.90625 423.952087 1929.233032 423.875244 C 1931.786377 423.929749 1934.33313 424.156006 1936.856079 424.552399 Z"/>
            <path id="path1" fill="#009fdc" stroke="none" d="M 1822.317505 440.05722 C 1821.766724 443.897705 1821.502075 447.773804 1821.525757 451.653473 L 1821.525757 510.824768 L 1833.639893 510.824768 L 1834.635742 499.507355 C 1834.725342 498.755524 1835.039063 487.597412 1835.039063 487.597412 L 1835.039063 487.597412 L 1835.088745 447.222107 C 1835.162231 444.806824 1835.48584 442.405701 1836.054688 440.05722 Z"/>
            <path id="path2" fill="#009fdc" stroke="none" d="M 1953.904419 440.05722 C 1954.984863 443.009796 1954.900269 448.830322 1954.900269 448.875153 L 1954.900269 487.597412 L 1954.900269 487.597412 C 1954.900269 487.597412 1955.213867 498.755524 1955.303589 499.507355 L 1956.299316 510.824768 L 1968.408447 510.824768 L 1968.408447 451.653473 C 1968.433105 447.77356 1968.166748 443.897278 1967.611816 440.05722 Z"/>
            <path id="path3" fill="#009fdc" stroke="none" d="M 1666.178711 424.547424 C 1668.804077 423.486633 1671.607544 422.93576 1674.439087 422.924255 C 1681.588989 422.924255 1688.733887 425.70755 1694.096436 429.894958 L 1701.440552 420.763306 C 1693.897217 414.609192 1684.964844 411.432556 1674.837402 411.432556 C 1663.385498 411.432556 1653.163452 416.048126 1648.069824 424.567322 Z"/>
            <path id="path4" fill="#009fdc" stroke="none" d="M 1682.156616 456.687317 C 1671.322144 452.146393 1660.348267 448.671021 1657.868652 440.05722 L 1644.768799 440.05722 C 1646.078247 455.6716 1658.998901 461.123657 1671.04834 466.018097 C 1681.967407 470.38974 1692.293945 474.358032 1692.293945 485.476318 C 1692.293945 496.594604 1681.374878 501.56369 1672.039185 501.56369 C 1662.907471 501.56369 1655.563354 497.580444 1649.802612 491.436279 L 1641.661865 499.975372 C 1649.372437 508.366669 1660.259888 513.123596 1671.655762 513.080322 C 1687.937256 513.080322 1705.807251 502.753723 1705.807251 485.695404 C 1705.787231 468.403076 1694.061523 461.651459 1682.156616 456.687317 Z"/>
            <path id="path5" fill="#009fdc" stroke="none" d="M 1492.533569 424.547424 C 1495.585327 423.014252 1498.952148 422.213013 1502.36731 422.207245 C 1509.512207 422.207245 1516.662231 424.985565 1522.024658 429.177948 L 1529.368774 420.041351 C 1521.825439 413.887207 1512.888062 410.710571 1502.76062 410.710571 C 1491.01001 410.710571 1480.534058 415.595032 1475.594849 424.567322 Z"/>
            <path id="path6" fill="#009fdc" stroke="none" d="M 1510.109741 455.970337 C 1499.588989 451.553894 1488.94873 448.14325 1486.070801 440.037292 L 1472.766724 440.037292 C 1474.39978 455.113953 1487.121338 460.451477 1498.991455 465.281189 C 1509.910522 469.647827 1520.232178 473.621155 1520.232178 484.73941 C 1520.232178 495.857697 1509.31311 500.821838 1499.9823 500.821838 C 1490.845703 500.821838 1483.501587 496.838562 1477.740845 490.694397 L 1469.599976 499.23349 C 1477.307983 507.622742 1488.191406 512.379517 1499.583984 512.33844 C 1515.865479 512.33844 1533.735474 502.01181 1533.735474 484.953522 C 1533.735474 467.681122 1522.024658 460.929504 1510.109741 455.970337 Z"/>
            <path id="path7" fill="#009fdc" stroke="none" d="M 1761.279053 411.024231 C 1743.324463 411.024231 1734.083374 415.70459 1728.481934 424.164032 L 1753.033691 424.164032 C 1755.80835 423.689056 1758.614136 423.417786 1761.428345 423.352417 C 1764.755005 423.431793 1768.069336 423.788208 1771.336792 424.417969 C 1781.329712 426.673492 1787.060669 435.117981 1787.060669 448.2229 L 1787.100464 465.799011 L 1735.766235 465.799011 L 1735.766235 448.372253 C 1735.79187 445.457031 1736.085205 442.550354 1736.642578 439.688782 L 1723.039795 439.688782 C 1722.500122 443.481812 1722.240479 447.309448 1722.263062 451.140625 L 1722.263062 510.306946 L 1734.39209 510.306946 L 1735.387817 498.984558 C 1735.477417 498.232697 1735.791138 487.074585 1735.791138 487.074585 L 1735.791138 487.074585 L 1735.791138 477.280762 L 1787.110474 477.280762 L 1787.110474 487.074585 L 1787.110474 487.074585 C 1787.110474 487.074585 1787.424194 498.232697 1787.513794 498.984558 L 1788.509521 510.306946 L 1800.613647 510.306946 L 1800.613647 451.135651 C 1800.613647 426.115814 1792.43811 411.024231 1761.279053 411.024231 Z"/>
            <path id="path8" fill="#009fdc" stroke="none" d="M 1612.056274 492.920044 C 1604.015015 503.405975 1586.015747 501.6633 1586.015747 501.6633 C 1568.837891 499.835968 1562.673828 488.359192 1561.991699 474.671753 C 1561.991699 474.636871 1561.951782 465.306091 1561.951782 465.306091 L 1627.272217 465.306091 L 1627.272217 458.021729 C 1627.272217 436.073975 1627.680542 410.909729 1587.504395 410.909729 C 1571.377197 410.909729 1561.259766 414.629089 1555.005981 424.059479 L 1579.403442 424.059479 C 1581.85022 423.568268 1584.341797 423.334656 1586.83728 423.362396 L 1589.29187 423.362396 C 1614.187256 423.362396 1614.052856 443.711853 1614.052856 446.544952 C 1614.052856 446.913391 1614.082764 453.839294 1614.082764 453.839294 L 1561.951782 453.839294 C 1561.951782 453.839294 1561.976685 446.594727 1561.976685 446.559875 C 1561.991089 444.203461 1562.264893 441.855774 1562.793335 439.559326 L 1549.319946 439.559326 C 1548.951416 442.367523 1548.822021 447.983887 1548.822021 448.292603 C 1548.822021 449.044434 1548.777222 470.135803 1548.777222 470.135803 C 1548.777222 502.997681 1565.805664 512.612244 1586.189941 512.612244 C 1587.245483 512.612244 1588.490234 512.5625 1589.356689 512.5625 C 1605.643188 512.5625 1621.755493 507.180084 1626.04248 493.034546 Z"/>
        </g>
    </g>
</svg>
