<svg xmlns="http://www.w3.org/2000/svg" viewBox="0 0 300 35" width="inherit" height="inherit">
    <title>SuperOffice logo</title>
    <style>
        <![CDATA[
            text.dataSyncText {
                font-family: "Barlow",sans-serif;
                font-weight: 700;
                font-size: 16px;
                fill: "#0c5d58";
            }
        ]]>
      </style>
    <g fill="#0c5d58" fill-rule="evenodd">
      <path d="M42.51 26.84L44.68 23.8C46 25.18 48.06 26.33 50.65 26.33 52.85 26.33 53.92 25.32 53.92 24.25 53.92 20.93 43.11 23.21 43.11 16.14 43.11 13.01 45.81 10.42 50.23 10.42 53.21 10.42 55.69 11.32 57.55 13.04L55.33 15.97C53.81 14.56 51.78 13.91 49.87 13.91 48.15 13.91 47.19 14.67 47.19 15.8 47.19 18.79 57.98 16.79 57.98 23.8 57.98 27.24 55.53 29.83 50.46 29.83 46.84 29.83 44.25 28.62 42.51 26.84zM68.64 29.49L68.64 27.77C67.71 28.81 66.08 29.83 63.85 29.83 60.86 29.83 59.46 28.2 59.46 25.55L59.46 15.89 63.04 15.89 63.04 24.14C63.04 26.03 64.03 26.65 65.55 26.65 66.93 26.65 68.03 25.89 68.65 25.1L68.65 15.89 72.23 15.89 72.23 29.49 68.64 29.49z"></path>
      <path
        fill-rule="nonzero"
        d="M77.82 27.74L77.82 34.67 74.24 34.67 74.24 15.89 77.82 15.89 77.82 17.61C78.86 16.29 80.35 15.55 82.02 15.55 85.51 15.55 88.05 18.14 88.05 22.67 88.05 27.2 85.52 29.82 82.02 29.82 80.41 29.83 78.92 29.15 77.82 27.74zM84.33 22.68C84.33 20.34 82.95 18.74 80.89 18.74 79.74 18.74 78.41 19.42 77.82 20.29L77.82 25.11C78.41 25.95 79.74 26.66 80.89 26.66 82.95 26.65 84.33 25.04 84.33 22.68zM89.35 22.68C89.35 18.74 92.25 15.56 96.39 15.56 100.44 15.56 103.2 18.6 103.2 23.05L103.2 23.84 93.09 23.84C93.32 25.56 94.7 26.99 97 26.99 98.15 26.99 99.76 26.48 100.63 25.64L102.21 27.95C100.86 29.19 98.72 29.84 96.61 29.84 92.47 29.83 89.35 27.04 89.35 22.68zM96.39 18.4C94.17 18.4 93.21 20.06 93.04 21.41L99.74 21.41C99.65 20.11 98.75 18.4 96.39 18.4z"
      ></path>
      <path d="M104.91,29.49 L104.91,15.89 L108.49,15.89 L108.49,17.75 C109.45,16.54 111.14,15.55 112.83,15.55 L112.83,19.04 C112.58,18.98 112.24,18.96 111.84,18.96 C110.66,18.96 109.08,19.64 108.49,20.51 L108.49,29.49 L104.91,29.49 Z"></path>
      <path
        fill-rule="nonzero"
        d="M114.81 20.11C114.81 14.45 118.95 10.39 124.61 10.39 130.3 10.39 134.44 14.44 134.44 20.11 134.44 25.77 130.3 29.82 124.61 29.82 118.95 29.83 114.81 25.77 114.81 20.11zM130.33 20.11C130.33 16.59 128.08 13.94 124.61 13.94 121.15 13.94 118.92 16.59 118.92 20.11 118.92 23.6 121.15 26.28 124.61 26.28 128.08 26.28 130.33 23.6 130.33 20.11zM137.75 29.49L137.75 19.01 135.5 19.01 135.5 15.88 137.75 15.88 137.75 15.15C137.75 12.25 139.61 10.42 142.34 10.42 143.64 10.42 145.02 10.76 145.89 11.69L144.54 13.8C144.17 13.43 143.7 13.24 143.05 13.24 142.06 13.24 141.36 13.89 141.36 15.16L141.36 15.89 144.12 15.89 144.12 19.02 141.36 19.02 141.36 29.5 137.75 29.5 137.75 29.49zM146.96 29.49L146.96 19.01 144.71 19.01 144.71 15.88 146.96 15.88 146.96 15.15C146.96 12.19 148.87 10.42 151.55 10.42 152.56 10.42 153.49 10.65 154.14 10.98L153.41 13.57C153.13 13.37 152.73 13.23 152.26 13.23 151.25 13.23 150.57 13.91 150.57 15.15L150.57 15.88 153.33 15.88 153.33 19.01 150.57 19.01 150.57 29.49 146.96 29.49zM155.04 12.28C155.04 11.1 156.03 10.17 157.18 10.17 158.36 10.17 159.32 11.1 159.32 12.28 159.32 13.46 158.36 14.42 157.18 14.42 156.03 14.42 155.04 13.47 155.04 12.28zM155.41 29.49L155.41 15.89 158.99 15.89 158.99 29.49 155.41 29.49z"
      ></path>
      <path d="M160.74,22.68 C160.74,18.51 163.75,15.56 167.95,15.56 C170.74,15.56 172.43,16.77 173.33,18.01 L170.99,20.21 C170.34,19.25 169.36,18.75 168.12,18.75 C165.95,18.75 164.43,20.33 164.43,22.69 C164.43,25.06 165.95,26.66 168.12,26.66 C169.36,26.66 170.35,26.1 170.99,25.2 L173.33,27.37 C172.43,28.64 170.74,29.85 167.95,29.85 C163.75,29.83 160.74,26.87 160.74,22.68 Z"></path>
      <path
        fill-rule="nonzero"
        d="M173.79 22.68C173.79 18.74 176.69 15.56 180.83 15.56 184.89 15.56 187.64 18.6 187.64 23.05L187.64 23.84 177.53 23.84C177.76 25.56 179.14 26.99 181.44 26.99 182.59 26.99 184.2 26.48 185.07 25.64L186.65 27.95C185.3 29.19 183.16 29.84 181.05 29.84 176.91 29.83 173.79 27.04 173.79 22.68zM180.83 18.4C178.61 18.4 177.65 20.06 177.48 21.41L184.18 21.41C184.09 20.11 183.19 18.4 180.83 18.4zM192.48 29.5C191.29 29.5 190.33 28.53 190.33 27.35 190.33 26.15 191.3 25.2 192.48 25.2 193.68 25.2 194.63 26.16 194.63 27.35 194.63 28.54 193.68 29.5 192.48 29.5zM192.48 25.49C191.44 25.49 190.61 26.31 190.61 27.35 190.61 28.38 191.44 29.22 192.48 29.22 193.51 29.22 194.34 28.38 194.34 27.35 194.34 26.31 193.5 25.49 192.48 25.49zM193.07 28.59L192.43 27.61 191.98 27.61 191.98 28.59 191.65 28.59 191.65 26.12 192.66 26.12C193.08 26.12 193.44 26.41 193.44 26.87 193.44 27.42 192.95 27.6 192.81 27.6L193.47 28.59 193.07 28.59zM192.66 26.4L191.98 26.4 191.98 27.31 192.66 27.31C192.87 27.31 193.11 27.12 193.11 26.86 193.11 26.6 192.87 26.4 192.66 26.4z"
      ></path>
      <path d="M22.44,14.58 C22.12,17.73 20.76,20.44 18.84,22.13 C19.17,22.67 19.85,23.77 20.43,24.63 C21.79,26.64 24.19,29.83 24.19,29.83 C26.74,26.94 28.04,21.86 27.07,19.68 C26.35,18.01 23.91,15.51 22.44,14.58 Z"></path>
      <path d="M21.41,15.72 C21.41,15.72 23.73,4.94 13.98,2.61 C9.55,1.55 9.92,3.73 0.25,0.37 C0.25,0.37 2.96,6.37 7.75,7.43 C8.7,7.64 9.75,7.67 10.82,7.67 C10.82,7.67 10.83,7.67 10.83,7.67 C10.84,7.67 10.85,7.67 10.86,7.67 C11.02,7.67 11.19,7.67 11.35,7.67 C11.52,7.67 11.68,7.67 11.85,7.67 C11.86,7.67 11.88,7.67 11.89,7.67 C12.1,7.67 12.31,7.67 12.51,7.67 C12.52,7.67 12.54,7.67 12.55,7.67 C12.97,7.68 13.39,7.69 13.81,7.73 C13.82,7.73 13.83,7.73 13.85,7.73 C14.06,7.75 14.26,7.77 14.46,7.8 C14.46,7.8 14.46,7.8 14.46,7.8 C14.48,7.8 14.5,7.8 14.51,7.8 C15.41,7.93 16.26,8.18 17.02,8.66 C18.57,9.86 19.57,12.17 19.46,14.78 C19.37,16.89 18.57,18.74 17.39,19.93 C17.78,19.18 18.03,18.29 18.08,17.32 C18.2,14.61 16.67,12.34 14.67,12.25 C14.33,12.24 14,12.28 13.69,12.39 C13.83,13.48 13.97,14.67 13.96,14.82 C13.95,14.99 13.04,14.11 12.27,13.32 C11.46,14.19 10.9,15.5 10.84,16.99 C10.79,18.16 11.05,19.25 11.52,20.12 C10.18,18.86 9.35,16.72 9.46,14.33 C9.58,11.55 10.93,9.21 12.76,8.25 C12.47,8.24 12.18,8.24 11.88,8.24 C11.7,8.24 11.53,8.24 11.35,8.24 C11.17,8.24 11,8.24 10.82,8.24 C10.22,8.24 9.57,8.23 8.92,8.18 C7.83,9.7 7.12,11.66 7.03,13.83 C6.8,18.82 9.86,23.01 13.87,23.18 C17.54,23.34 20.71,20.09 21.41,15.72 Z"></path>
      <path d="M28.94,7.72 C29.15,7.68 29.37,7.65 29.61,7.63 C32.22,7.47 32.55,8.29 35.46,6.72 C38.37,5.15 39.39,1.42 39.39,1.42 C39.39,1.42 36.74,2.7 34.75,2.96 C32.08,3.32 29.72,2.49 26.5,4.68 C23.09,7 23.27,13.48 23.31,14.3 C24.08,14.87 25,15.72 25.81,16.63 C25.83,16.65 25.84,16.67 25.86,16.69 C25.94,16.77 26.01,16.86 26.08,16.95 C26.11,16.99 26.15,17.03 26.18,17.07 C26.24,17.14 26.3,17.22 26.37,17.3 C26.41,17.35 26.45,17.4 26.49,17.45 C26.54,17.52 26.6,17.59 26.65,17.66 C26.69,17.72 26.74,17.77 26.78,17.83 C26.83,17.89 26.87,17.96 26.92,18.02 C26.96,18.08 27.01,18.14 27.05,18.21 C27.09,18.27 27.13,18.33 27.17,18.38 C27.21,18.45 27.26,18.51 27.3,18.58 C27.33,18.63 27.37,18.68 27.4,18.73 C27.44,18.8 27.48,18.88 27.52,18.95 C27.54,18.99 27.57,19.03 27.59,19.07 C27.65,19.18 27.7,19.29 27.75,19.4 C27.8,19.52 27.85,19.65 27.89,19.78 C27.9,19.82 27.91,19.86 27.92,19.9 C27.95,20 27.97,20.09 27.99,20.19 C28.05,20.46 28.08,20.74 28.1,21.04 C28.59,21.19 29.11,21.27 29.64,21.26 C33.06,21.22 35.78,17.68 35.71,13.37 C35.68,11.3 35.01,9.43 33.95,8.05 C33.33,8.25 32.83,8.31 32.35,8.31 C32.07,8.31 31.79,8.29 31.51,8.27 C32.84,9.24 33.73,11.23 33.7,13.52 C33.67,15.64 32.85,17.48 31.66,18.5 C32.07,17.79 32.35,16.91 32.41,15.96 C32.58,13.4 31.19,11.23 29.3,11.1 C28.78,11.07 28.29,11.19 27.83,11.44 C27.94,12.33 28.1,13.62 28.1,13.76 C28.09,13.9 27.26,13.08 26.66,12.47 C26.15,13.13 25.79,13.99 25.64,14.96 C25.56,14.48 25.51,13.98 25.52,13.46 C25.56,10.57 27.03,8.21 28.94,7.72 Z"></path>
      <path
        display="none"
        d="M21.3937273,15.7282636 C21.3937273,15.7282636 23.7144304,4.93271205 13.9593523,2.60595317 C9.52614917,1.54417892 9.8968523,3.72361027 0.217946048,0.360478443 C0.217946048,0.360478443 2.9296648,6.37042551 7.72849292,7.43219975 C8.6781023,7.6404904 9.72927417,7.66589169 10.8007585,7.66589169 L10.8159929,7.66589169 L10.8464617,7.66589169 C11.0089617,7.66589169 11.1714617,7.66589169 11.3390398,7.66589169 C11.5066179,7.66589169 11.6691179,7.66589169 11.836696,7.66589169 L11.8823992,7.66589169 C12.0906023,7.66589169 12.2988054,7.66589169 12.5070085,7.67097195 C12.5222429,7.67097195 12.5374773,7.67097195 12.5527117,7.67097195 C12.974196,7.67605221 13.3956804,7.69637325 13.8070085,7.72685481 C13.8171648,7.72685481 13.8323992,7.72685481 13.8425554,7.73193507 C14.0507585,7.75225611 14.2538835,7.77257715 14.4570085,7.79797844 C14.4570085,7.79797844 14.4620867,7.79797844 14.4620867,7.79797844 L14.4620867,7.8030587 C14.4823992,7.8030587 14.4976335,7.8030587 14.517946,7.8030587 C15.4218523,7.93514545 16.2749773,8.18915843 17.0316179,8.66670283 C18.5906023,9.86564408 19.5859148,12.1771622 19.474196,14.7884156 C19.4183367,16.0178384 19.1288835,17.1558166 18.661696,18.1312264 C18.7226335,17.7502069 18.7581804,17.3539467 18.7581804,16.9576864 C18.7581804,15.4996519 18.3316179,14.1178213 17.564821,13.0763681 C16.752321,11.9739518 15.655446,11.3694009 14.477321,11.3694009 C13.299196,11.3694009 12.202321,11.9739518 11.389821,13.0763681 C10.617946,14.1229016 10.1964617,15.4996519 10.1964617,16.9576864 C10.1964617,17.5520768 10.2675554,18.1312264 10.4046648,18.6798944 C9.74958667,17.4809532 9.3890398,15.9721161 9.46013355,14.3515133 C9.58200855,11.5624508 10.9327898,9.22553138 12.7609148,8.26536232 C12.4714617,8.26028206 12.1769304,8.2552018 11.877321,8.2552018 C11.6995867,8.2552018 11.5269304,8.2552018 11.349196,8.2552018 C11.1714617,8.2552018 10.9988054,8.2552018 10.821071,8.2552018 C10.2218523,8.2552018 9.5718523,8.24504128 8.91677417,8.19423869 C7.8249773,9.7132363 7.11911792,11.6792967 7.01755542,13.8536478 C6.7890398,18.8577035 9.85114917,23.0438374 13.8628679,23.211486 C17.5140398,23.3638937 20.692946,20.1023671 21.3937273,15.7282636 Z M18.0777117,17.3285454 C18.0370867,18.298875 17.7882585,19.1930006 17.3972429,19.9397988 C16.4933367,20.8593258 15.3609148,21.3876728 14.1573992,21.3317899 C13.1671648,21.2911478 12.2581804,20.8593258 11.511696,20.1531697 C11.0394304,19.2844453 10.780446,18.1871092 10.8312273,17.008489 C10.8972429,15.5148927 11.4456804,14.1940252 12.2632585,13.3303811 C13.0402117,14.1178213 13.949196,15.0017865 13.9542742,14.8290577 C13.9593523,14.6715696 13.8222429,13.4827889 13.6851335,12.3905331 C13.9999773,12.2889279 14.3300554,12.2381253 14.6652117,12.2533661 C16.6659929,12.3397305 18.1945085,14.6106065 18.0777117,17.3285454 Z"
        fill-rule="nonzero"
      ></path>
      <path
        display="none"
        d="M28.9245867,7.71669429 C29.1378679,7.67605221 29.3562273,7.64557066 29.5948992,7.63032988 C29.6863054,7.62524962 29.7726335,7.62016936 29.8589617,7.6150891 C31.4027117,7.55412598 32.1136492,7.83354026 33.1952898,7.62016936 C33.7792742,7.50840365 34.464821,7.24931041 35.4499773,6.71588316 C38.364821,5.14100269 39.380446,1.41209217 39.380446,1.41209217 C39.380446,1.41209217 36.7296648,2.69231758 34.7339617,2.95649108 C32.067946,3.31718951 29.6964617,2.48402694 26.4769304,4.67869907 C23.0695085,7.00545795 23.252321,13.4980297 23.2878679,14.3210317 C23.577321,14.5394829 23.8921648,14.7934959 24.2070085,15.0779904 C25.608571,16.322654 27.1370867,18.0956646 27.721071,19.4063715 C27.7718523,19.5181373 27.8124773,19.6349832 27.8531023,19.7569095 C27.9749773,20.1430092 28.0511492,20.5748312 28.0816179,21.0523756 C28.574196,21.2047834 29.0921648,21.2809873 29.6253679,21.2759071 C33.0480242,21.2301847 35.7698992,17.6943241 35.7038835,13.3761034 C35.6734148,11.3033575 35.0031023,9.43382202 33.936696,8.04691116 C33.8300554,8.08247298 33.7284929,8.10787428 33.6269304,8.13835583 C33.1445085,8.26536232 32.7382585,8.3060044 32.3421648,8.3060044 C32.0577898,8.3060044 31.783571,8.28568336 31.499196,8.26536232 C32.8296648,9.2356919 33.7234148,11.2322339 33.692946,13.523431 C33.6777117,14.7833353 33.3831804,15.9416345 32.8956804,16.8916431 C32.9820085,16.5512657 33.0327898,16.2007278 33.0632585,15.8349491 C33.0734148,15.677461 33.083571,15.5148927 33.083571,15.3523244 C33.083571,12.5124593 31.2605242,10.2009412 29.021071,10.2009412 C27.639821,10.2009412 26.4159929,11.0798261 25.6796648,12.4260949 C25.852321,10.9223381 26.4312273,9.61163111 27.2538835,8.74290672 C27.7363054,8.22980051 28.3101335,7.87418234 28.9245867,7.71669429 M26.6394304,12.4514962 C27.2386492,13.0611273 28.0714617,13.8892097 28.0765398,13.7469624 C28.0816179,13.6047151 27.924196,12.3092489 27.8124773,11.4252838 C28.2695085,11.1763511 28.7671648,11.0544248 29.2851335,11.0899866 C31.174196,11.2169931 32.5656023,13.3913442 32.3980242,15.9568753 C32.3573992,16.5360249 32.2456804,17.0796127 32.067946,17.5825584 C31.3671648,18.4208012 30.4632585,18.9186666 29.4882585,18.9135864 C27.6195085,18.8983456 26.0757585,17.0186495 25.7050554,14.5090013 C25.8878679,13.7164808 26.2128679,13.0103248 26.6394304,12.4514962"
        fill-rule="nonzero"
      ></path>
    </g>
    <g fill="#0c5d58">
      <text x="200" y="29" fontSize="1.25rem" fontWeight="700" class="dataSyncText">
        DATA SYNC
      </text>
    </g>
     <g id="Group">
        <path id="Powered-by" fill="#000000" fill-rule="evenodd" stroke="none" d="M 1372.5 545.849976 C 1371.799927 545.849976 1371.449951 545.349976 1371.449951 544.349976 L 1371.449951 535.5 C 1371.449951 534.5 1371.949951 534 1372.949951 534 L 1373.25 534 C 1377.25 533.900024 1380.400024 533.400024 1382.699951 532.5 C 1385 531.599976 1386.900024 529.924988 1388.400024 527.474976 C 1389.900024 525.024963 1391.349976 521.350037 1392.75 516.450012 C 1392.849976 516.349976 1392.875 516.174988 1392.824951 515.924988 C 1392.775024 515.674988 1392.75 515.549988 1392.75 515.549988 L 1367.699951 441.299988 L 1367.549927 440.700012 C 1367.549927 440 1368 439.649994 1368.900024 439.649994 L 1381.049927 439.649994 C 1381.949951 439.649994 1382.549927 440.049988 1382.849976 440.850006 L 1399.799927 497.399994 C 1399.900024 497.600006 1400.049927 497.700012 1400.25 497.700012 C 1400.449951 497.700012 1400.599976 497.600006 1400.699951 497.399994 L 1417.5 440.850006 C 1417.799927 440.049988 1418.400024 439.649994 1419.299927 439.649994 L 1431.150024 439.649994 C 1432.25 439.649994 1432.650024 440.200012 1432.349976 441.299988 L 1405.049927 521.25 C 1402.75 528.150024 1400.449951 533.274963 1398.150024 536.625 C 1395.849976 539.975037 1392.849976 542.349976 1389.150024 543.75 C 1385.449951 545.150024 1380.25 545.849976 1373.549927 545.849976 L 1372.5 545.849976 Z M 1355.549927 459.450012 C 1357.150024 464.550018 1357.949951 470.599976 1357.949951 477.600006 C 1357.949951 485.100037 1357 491.499969 1355.099976 496.799988 C 1352.900024 503.300049 1349.425049 508.324982 1344.674927 511.875 C 1339.924927 515.425049 1333.949951 517.200012 1326.75 517.200012 C 1323.25 517.200012 1320 516.5 1317 515.099976 C 1314 513.700012 1311.400024 511.75 1309.199951 509.25 C 1309 509.049988 1308.824951 509 1308.674927 509.100006 C 1308.525024 509.200012 1308.449951 509.350006 1308.449951 509.549988 L 1308.449951 514.5 C 1308.449951 515.5 1307.949951 516 1306.949951 516 L 1295.549927 516 C 1294.549927 516 1294.049927 515.5 1294.049927 514.5 L 1294.049927 412.5 C 1294.049927 411.5 1294.549927 411 1295.549927 411 L 1306.949951 411 C 1307.949951 411 1308.449951 411.5 1308.449951 412.5 L 1308.449951 445.950012 C 1308.449951 446.149994 1308.525024 446.299988 1308.674927 446.399994 C 1308.824951 446.5 1309 446.450012 1309.199951 446.25 C 1311.400024 443.75 1314.024902 441.825012 1317.074951 440.475006 C 1320.125 439.125 1323.349976 438.450012 1326.75 438.450012 C 1334.25 438.450012 1340.399902 440.299988 1345.199951 444 C 1350 447.700012 1353.449951 452.849976 1355.549927 459.450012 Z M 1339.650024 496.5 C 1342.150024 491.799988 1343.400024 485.600037 1343.400024 477.899994 C 1343.400024 469.699951 1341.800049 463.100037 1338.599976 458.100006 C 1335.699951 453.299988 1331.25 450.899994 1325.25 450.899994 C 1319.649902 450.899994 1315.400024 453.449982 1312.5 458.549988 C 1309.899902 463.150024 1308.599976 469.549957 1308.599976 477.75 C 1308.599976 485.950043 1309.799927 492.249969 1312.199951 496.649994 C 1315.199951 502.050018 1319.599976 504.75 1325.400024 504.75 C 1332 504.75 1336.75 502.000031 1339.650024 496.5 Z M 1228.349976 412.5 C 1228.349976 411.5 1228.849976 411 1229.849976 411 L 1241.25 411 C 1242.25 411 1242.75 411.5 1242.75 412.5 L 1242.75 514.5 C 1242.75 515.5 1242.25 516 1241.25 516 L 1229.849976 516 C 1228.849976 516 1228.349976 515.5 1228.349976 514.5 L 1228.349976 509.549988 C 1228.349976 509.350006 1228.275024 509.200012 1228.125 509.100006 C 1227.974976 509 1227.800049 509.049988 1227.599976 509.25 C 1225.400024 511.75 1222.800049 513.700012 1219.800049 515.099976 C 1216.800049 516.5 1213.550049 517.200012 1210.050049 517.200012 C 1202.849976 517.200012 1196.875 515.425049 1192.125 511.875 C 1187.375 508.324982 1183.900024 503.300049 1181.699951 496.799988 C 1179.800049 491.499969 1178.849976 485.100037 1178.849976 477.600006 C 1178.849976 470.599976 1179.650024 464.550018 1181.25 459.450012 C 1183.349976 452.849976 1186.799927 447.700012 1191.599976 444 C 1196.400024 440.299988 1202.549927 438.450012 1210.050049 438.450012 C 1213.450073 438.450012 1216.675049 439.125 1219.724976 440.475006 C 1222.775024 441.825012 1225.400024 443.75 1227.599976 446.25 C 1227.800049 446.450012 1227.974976 446.5 1228.125 446.399994 C 1228.275024 446.299988 1228.349976 446.149994 1228.349976 445.950012 L 1228.349976 412.5 Z M 1224.599976 496.649994 C 1226.900024 492.449982 1228.050049 486.150055 1228.050049 477.75 C 1228.050049 469.349976 1226.800049 462.950012 1224.300049 458.549988 C 1221.400024 453.449982 1217.150024 450.899994 1211.550049 450.899994 C 1205.549927 450.899994 1201.099976 453.299988 1198.199951 458.100006 C 1195 463.100037 1193.400024 469.699951 1193.400024 477.899994 C 1193.400024 485.600037 1194.650024 491.799988 1197.150024 496.5 C 1200.050049 502.000031 1204.799927 504.75 1211.400024 504.75 C 1217.200073 504.75 1221.599976 502.050018 1224.599976 496.649994 Z M 1162.349976 468.299988 C 1162.75 472.400024 1162.900024 476.999969 1162.800049 482.100006 C 1162.800049 483.100006 1162.300049 483.600006 1161.300049 483.600006 L 1113.449951 483.600006 C 1113.050049 483.600006 1112.849976 483.799988 1112.849976 484.200012 C 1112.849976 487.600006 1113.150024 490.199982 1113.75 492 C 1114.849976 496.000031 1117.074951 499.125 1120.425049 501.375 C 1123.775024 503.625 1128 504.75 1133.099976 504.75 C 1140.5 504.75 1146.199951 501.700043 1150.199951 495.600006 C 1150.699951 494.600006 1151.349976 494.450012 1152.150024 495.149994 L 1160.699951 500.850006 C 1161.400024 501.450012 1161.550049 502.100006 1161.150024 502.799988 C 1158.349976 507.300018 1154.375 510.849976 1149.224976 513.450012 C 1144.074951 516.049988 1138.25 517.349976 1131.75 517.349976 C 1124.449951 517.349976 1118.300049 515.75 1113.300049 512.549988 C 1108.299927 509.349976 1104.550049 504.800018 1102.050049 498.899994 C 1099.650024 492.999969 1098.449951 485.850037 1098.449951 477.450012 C 1098.449951 470.149963 1099 464.600037 1100.099976 460.799988 C 1101.900024 453.899963 1105.5 448.450012 1110.900024 444.450012 C 1116.300049 440.449982 1122.849976 438.450012 1130.550049 438.450012 C 1140.650024 438.450012 1148.199951 440.974976 1153.199951 446.024994 C 1158.200073 451.075012 1161.25 458.499939 1162.349976 468.299988 Z M 1130.550049 450.899994 C 1126.25 450.899994 1122.700073 451.974976 1119.900024 454.125 C 1117.099976 456.275024 1115.199951 459.149963 1114.199951 462.75 C 1113.5 464.950012 1113.050049 467.75 1112.849976 471.149994 C 1112.849976 471.549988 1113.050049 471.75 1113.449951 471.75 L 1147.800049 471.75 C 1148.199951 471.75 1148.400024 471.549988 1148.400024 471.149994 C 1148.199951 467.849976 1147.900024 465.400024 1147.5 463.799988 C 1146.5 459.899963 1144.525024 456.775024 1141.574951 454.424988 C 1138.625 452.074982 1134.950073 450.899994 1130.550049 450.899994 Z M 1079.550049 438.899994 C 1082.75 438.899994 1085.650024 439.549988 1088.25 440.850006 C 1088.949951 441.149994 1089.199951 441.75 1089 442.649994 L 1086.599976 453.899994 C 1086.5 454.799988 1085.900024 455.100006 1084.800049 454.799988 C 1083.099976 454.100006 1081.099976 453.75 1078.800049 453.75 L 1076.699951 453.899994 C 1072 454.100006 1068.125 455.724976 1065.074951 458.774994 C 1062.025024 461.825012 1060.5 465.799988 1060.5 470.700012 L 1060.5 514.5 C 1060.5 515.5 1060 516 1059 516 L 1047.599976 516 C 1046.599976 516 1046.099976 515.5 1046.099976 514.5 L 1046.099976 441.149994 C 1046.099976 440.149994 1046.599976 439.649994 1047.599976 439.649994 L 1059 439.649994 C 1060 439.649994 1060.5 440.149994 1060.5 441.149994 L 1060.5 449.100006 C 1060.5 449.399994 1060.574951 449.575012 1060.724976 449.625 C 1060.875 449.674988 1061 449.600006 1061.099976 449.399994 C 1065.599976 442.399963 1071.75 438.899994 1079.550049 438.899994 Z M 1027.5 468.299988 C 1027.900024 472.400024 1028.050049 476.999969 1027.949951 482.100006 C 1027.949951 483.100006 1027.449951 483.600006 1026.449951 483.600006 L 978.600037 483.600006 C 978.200012 483.600006 978.000061 483.799988 978.000061 484.200012 C 978.000061 487.600006 978.300049 490.199982 978.900024 492 C 980.000061 496.000031 982.225037 499.125 985.575012 501.375 C 988.925049 503.625 993.150024 504.75 998.250061 504.75 C 1005.650085 504.75 1011.350037 501.700043 1015.350037 495.600006 C 1015.850037 494.600006 1016.500061 494.450012 1017.300049 495.149994 L 1025.849976 500.850006 C 1026.550049 501.450012 1026.699951 502.100006 1026.300049 502.799988 C 1023.5 507.300018 1019.525085 510.849976 1014.375061 513.450012 C 1009.225037 516.049988 1003.400085 517.349976 996.900024 517.349976 C 989.599976 517.349976 983.450073 515.75 978.450012 512.549988 C 973.450012 509.349976 969.700073 504.800018 967.200012 498.899994 C 964.800049 492.999969 963.600037 485.850037 963.600037 477.450012 C 963.600037 470.149963 964.150024 464.600037 965.250061 460.799988 C 967.050049 453.899963 970.650024 448.450012 976.050049 444.450012 C 981.450073 440.449982 988 438.450012 995.700012 438.450012 C 1005.80011 438.450012 1013.350037 440.974976 1018.350037 446.024994 C 1023.350037 451.075012 1026.400024 458.499939 1027.5 468.299988 Z M 995.700012 450.899994 C 991.400024 450.899994 987.850037 451.974976 985.050049 454.125 C 982.25 456.275024 980.350037 459.149963 979.350037 462.75 C 978.650024 464.950012 978.200012 467.75 978.000061 471.149994 C 978.000061 471.549988 978.200012 471.75 978.600037 471.75 L 1012.950012 471.75 C 1013.350037 471.75 1013.550049 471.549988 1013.550049 471.149994 C 1013.350037 467.849976 1013.050049 465.400024 1012.650024 463.799988 C 1011.650024 459.899963 1009.675049 456.775024 1006.725037 454.424988 C 1003.775024 452.074982 1000.100037 450.899994 995.700012 450.899994 Z M 874.500061 516 C 873.700012 516 873.150024 515.599976 872.850037 514.799988 L 851.250061 441.299988 L 851.100037 440.850006 C 851.100037 440.049988 851.600037 439.649994 852.600037 439.649994 L 864.300049 439.649994 C 865.200012 439.649994 865.750061 440.100006 865.950012 441 L 880.200012 495.450012 C 880.300049 495.649994 880.425049 495.75 880.575012 495.75 C 880.725037 495.75 880.850037 495.649994 880.950012 495.450012 L 895.500061 441 C 895.700012 440.100006 896.250061 439.649994 897.150024 439.649994 L 907.500061 439.649994 C 908.400024 439.649994 908.950012 440.100006 909.150024 441 L 924.000061 495.299988 C 924.100037 495.5 924.225037 495.600006 924.375061 495.600006 C 924.525024 495.600006 924.650024 495.5 924.750061 495.299988 L 939.600037 441 C 939.800049 440.100006 940.350037 439.649994 941.250061 439.649994 L 952.800049 439.799988 C 953.300049 439.799988 953.675049 439.950012 953.925049 440.25 C 954.175049 440.549988 954.250061 440.950012 954.150024 441.450012 L 932.400024 514.799988 C 932.100037 515.599976 931.550049 516 930.750061 516 L 919.050049 516 C 918.250061 516 917.700012 515.599976 917.400024 514.799988 L 902.700012 464.100006 C 902.600037 463.899994 902.475037 463.799988 902.325012 463.799988 C 902.175049 463.799988 902.050049 463.899994 901.950012 464.100006 L 888.000061 514.650024 C 887.800049 515.549988 887.250061 516 886.350037 516 L 874.500061 516 Z M 808.950012 517.200012 C 801.549988 517.200012 795.100037 515.325012 789.600037 511.575012 C 784.100037 507.824982 780.250061 502.600037 778.050049 495.899994 C 776.25 490.499969 775.350037 484.400024 775.350037 477.600006 C 775.350037 470.499969 776.200012 464.500031 777.900024 459.600006 C 780.100037 452.999969 783.950012 447.825012 789.450012 444.075012 C 794.950073 440.324982 801.5 438.450012 809.100037 438.450012 C 816.300049 438.450012 822.575012 440.324982 827.925049 444.075012 C 833.275085 447.825012 837.100037 452.949951 839.400024 459.450012 C 841.200073 464.550018 842.100037 470.549957 842.100037 477.450012 C 842.100037 484.450043 841.200073 490.599976 839.400024 495.899994 C 837.200012 502.600037 833.400085 507.824982 828.000061 511.575012 C 822.600037 515.325012 816.250061 517.200012 808.950012 517.200012 Z M 808.950012 504.75 C 812.950073 504.75 816.450012 503.625 819.450012 501.375 C 822.450073 499.125 824.600037 495.950012 825.900024 491.850006 C 827.000061 488.049988 827.550049 483.350037 827.550049 477.75 C 827.550049 472.149963 827.050049 467.5 826.050049 463.799988 C 824.75 459.699982 822.600037 456.525024 819.600037 454.274994 C 816.600037 452.024994 812.950073 450.899994 808.650024 450.899994 C 804.549988 450.899994 801.000061 452.024994 798.000061 454.274994 C 795 456.525024 792.850037 459.699982 791.550049 463.799988 C 790.450012 467.300018 789.900024 471.949982 789.900024 477.75 C 789.900024 483.550018 790.450012 488.249969 791.550049 491.850006 C 792.750061 495.950012 794.875 499.125 797.925049 501.375 C 800.975037 503.625 804.650024 504.75 808.950012 504.75 Z M 735.000061 410.850006 C 741.100037 410.850006 746.475037 412.125 751.125061 414.674988 C 755.775085 417.225006 759.375 420.799988 761.925049 425.399994 C 764.475037 430.000031 765.750061 435.299988 765.750061 441.299988 C 765.750061 447.300049 764.450073 452.549988 761.850037 457.049988 C 759.25 461.550018 755.575073 465.049988 750.825012 467.549988 C 746.075012 470.050018 740.600098 471.299988 734.400024 471.299988 L 708 471.299988 C 707.600037 471.299988 707.400024 471.5 707.400024 471.899994 L 707.400024 514.5 C 707.400024 515.5 706.900024 516 705.900024 516 L 694.5 516 C 693.5 516 693 515.5 693 514.5 L 693 412.350006 C 693 411.349976 693.5 410.850006 694.5 410.850006 L 735.000061 410.850006 Z M 733.050049 459.600006 C 738.550049 459.600006 742.975037 457.950012 746.325012 454.649994 C 749.675049 451.349976 751.350037 447.000031 751.350037 441.600006 C 751.350037 436.099976 749.675049 431.675018 746.325012 428.325012 C 742.975037 424.974976 738.550049 423.299988 733.050049 423.299988 L 708 423.299988 C 707.600037 423.299988 707.400024 423.5 707.400024 423.899994 L 707.400024 459 C 707.400024 459.399994 707.600037 459.600006 708 459.600006 L 733.050049 459.600006 Z"/>
        <g id="Sesam-Logo-Cyan">
            <path id="Path" fill="#009fdc" stroke="none" d="M 1962.099976 424.547424 C 1956.478638 416.172607 1947.237427 411.542053 1929.188232 411.542053 C 1910.003906 411.542053 1900.309692 417.043945 1894.972046 426.897522 C 1889.659424 417.043945 1880.0896 411.542053 1860.616455 411.542053 C 1842.876099 411.542053 1833.450684 416.172607 1827.829346 424.547424 L 1853.063232 424.547424 C 1855.586182 424.151215 1858.132935 423.924988 1860.686279 423.87027 C 1864.013062 423.946564 1867.327515 424.303009 1870.594604 424.935791 C 1880.478027 427.54483 1887.379028 434.864044 1888.180664 446.16156 L 1888.180664 510.824768 L 1901.71875 510.824768 L 1901.71875 446.480225 C 1902.415771 435.003479 1909.356689 427.559753 1919.324707 424.940765 C 1922.591797 424.308533 1925.90625 423.952087 1929.233032 423.875244 C 1931.786377 423.929749 1934.33313 424.156006 1936.856079 424.552399 Z"/>
            <path id="path1" fill="#009fdc" stroke="none" d="M 1822.317505 440.05722 C 1821.766724 443.897705 1821.502075 447.773804 1821.525757 451.653473 L 1821.525757 510.824768 L 1833.639893 510.824768 L 1834.635742 499.507355 C 1834.725342 498.755524 1835.039063 487.597412 1835.039063 487.597412 L 1835.039063 487.597412 L 1835.088745 447.222107 C 1835.162231 444.806824 1835.48584 442.405701 1836.054688 440.05722 Z"/>
            <path id="path2" fill="#009fdc" stroke="none" d="M 1953.904419 440.05722 C 1954.984863 443.009796 1954.900269 448.830322 1954.900269 448.875153 L 1954.900269 487.597412 L 1954.900269 487.597412 C 1954.900269 487.597412 1955.213867 498.755524 1955.303589 499.507355 L 1956.299316 510.824768 L 1968.408447 510.824768 L 1968.408447 451.653473 C 1968.433105 447.77356 1968.166748 443.897278 1967.611816 440.05722 Z"/>
            <path id="path3" fill="#009fdc" stroke="none" d="M 1666.178711 424.547424 C 1668.804077 423.486633 1671.607544 422.93576 1674.439087 422.924255 C 1681.588989 422.924255 1688.733887 425.70755 1694.096436 429.894958 L 1701.440552 420.763306 C 1693.897217 414.609192 1684.964844 411.432556 1674.837402 411.432556 C 1663.385498 411.432556 1653.163452 416.048126 1648.069824 424.567322 Z"/>
            <path id="path4" fill="#009fdc" stroke="none" d="M 1682.156616 456.687317 C 1671.322144 452.146393 1660.348267 448.671021 1657.868652 440.05722 L 1644.768799 440.05722 C 1646.078247 455.6716 1658.998901 461.123657 1671.04834 466.018097 C 1681.967407 470.38974 1692.293945 474.358032 1692.293945 485.476318 C 1692.293945 496.594604 1681.374878 501.56369 1672.039185 501.56369 C 1662.907471 501.56369 1655.563354 497.580444 1649.802612 491.436279 L 1641.661865 499.975372 C 1649.372437 508.366669 1660.259888 513.123596 1671.655762 513.080322 C 1687.937256 513.080322 1705.807251 502.753723 1705.807251 485.695404 C 1705.787231 468.403076 1694.061523 461.651459 1682.156616 456.687317 Z"/>
            <path id="path5" fill="#009fdc" stroke="none" d="M 1492.533569 424.547424 C 1495.585327 423.014252 1498.952148 422.213013 1502.36731 422.207245 C 1509.512207 422.207245 1516.662231 424.985565 1522.024658 429.177948 L 1529.368774 420.041351 C 1521.825439 413.887207 1512.888062 410.710571 1502.76062 410.710571 C 1491.01001 410.710571 1480.534058 415.595032 1475.594849 424.567322 Z"/>
            <path id="path6" fill="#009fdc" stroke="none" d="M 1510.109741 455.970337 C 1499.588989 451.553894 1488.94873 448.14325 1486.070801 440.037292 L 1472.766724 440.037292 C 1474.39978 455.113953 1487.121338 460.451477 1498.991455 465.281189 C 1509.910522 469.647827 1520.232178 473.621155 1520.232178 484.73941 C 1520.232178 495.857697 1509.31311 500.821838 1499.9823 500.821838 C 1490.845703 500.821838 1483.501587 496.838562 1477.740845 490.694397 L 1469.599976 499.23349 C 1477.307983 507.622742 1488.191406 512.379517 1499.583984 512.33844 C 1515.865479 512.33844 1533.735474 502.01181 1533.735474 484.953522 C 1533.735474 467.681122 1522.024658 460.929504 1510.109741 455.970337 Z"/>
            <path id="path7" fill="#009fdc" stroke="none" d="M 1761.279053 411.024231 C 1743.324463 411.024231 1734.083374 415.70459 1728.481934 424.164032 L 1753.033691 424.164032 C 1755.80835 423.689056 1758.614136 423.417786 1761.428345 423.352417 C 1764.755005 423.431793 1768.069336 423.788208 1771.336792 424.417969 C 1781.329712 426.673492 1787.060669 435.117981 1787.060669 448.2229 L 1787.100464 465.799011 L 1735.766235 465.799011 L 1735.766235 448.372253 C 1735.79187 445.457031 1736.085205 442.550354 1736.642578 439.688782 L 1723.039795 439.688782 C 1722.500122 443.481812 1722.240479 447.309448 1722.263062 451.140625 L 1722.263062 510.306946 L 1734.39209 510.306946 L 1735.387817 498.984558 C 1735.477417 498.232697 1735.791138 487.074585 1735.791138 487.074585 L 1735.791138 487.074585 L 1735.791138 477.280762 L 1787.110474 477.280762 L 1787.110474 487.074585 L 1787.110474 487.074585 C 1787.110474 487.074585 1787.424194 498.232697 1787.513794 498.984558 L 1788.509521 510.306946 L 1800.613647 510.306946 L 1800.613647 451.135651 C 1800.613647 426.115814 1792.43811 411.024231 1761.279053 411.024231 Z"/>
            <path id="path8" fill="#009fdc" stroke="none" d="M 1612.056274 492.920044 C 1604.015015 503.405975 1586.015747 501.6633 1586.015747 501.6633 C 1568.837891 499.835968 1562.673828 488.359192 1561.991699 474.671753 C 1561.991699 474.636871 1561.951782 465.306091 1561.951782 465.306091 L 1627.272217 465.306091 L 1627.272217 458.021729 C 1627.272217 436.073975 1627.680542 410.909729 1587.504395 410.909729 C 1571.377197 410.909729 1561.259766 414.629089 1555.005981 424.059479 L 1579.403442 424.059479 C 1581.85022 423.568268 1584.341797 423.334656 1586.83728 423.362396 L 1589.29187 423.362396 C 1614.187256 423.362396 1614.052856 443.711853 1614.052856 446.544952 C 1614.052856 446.913391 1614.082764 453.839294 1614.082764 453.839294 L 1561.951782 453.839294 C 1561.951782 453.839294 1561.976685 446.594727 1561.976685 446.559875 C 1561.991089 444.203461 1562.264893 441.855774 1562.793335 439.559326 L 1549.319946 439.559326 C 1548.951416 442.367523 1548.822021 447.983887 1548.822021 448.292603 C 1548.822021 449.044434 1548.777222 470.135803 1548.777222 470.135803 C 1548.777222 502.997681 1565.805664 512.612244 1586.189941 512.612244 C 1587.245483 512.612244 1588.490234 512.5625 1589.356689 512.5625 C 1605.643188 512.5625 1621.755493 507.180084 1626.04248 493.034546 Z"/>
        </g>
    </g>
</svg>