<svg viewBox="0 0 306 35" fill="none" xmlns:xlink="http://www.w3.org/1999/xlink" xmlns="http://www.w3.org/2000/svg">
  <g clip-path="url(#p.0)">
    <path fill="#000000" fill-opacity="0.0" d="m0 0l306.1942 0l0 100.0l-306.1942 0z" fill-rule="evenodd" />
    <path fill="#009fdc" d="m236.0584 1.4879562l68.7874 0l0 33.41732l-68.7874 0z" fill-rule="evenodd" />
    <path fill="#000000" fill-opacity="0.0" d="m-9.327434 -11.097345l318.58267 0l0 58.173225l-318.58267 0z" fill-rule="evenodd" />
    <path fill="#000000" d="m16.03194 6.4820304q0.15625 -0.265625 0.4375 -0.265625l3.75 0q0.15625 0 0.265625 0.125q0.109375 0.109375 0.109375 0.265625l0 21.625q0 0.171875 -0.109375 0.28125q-0.109375 0.109375 -0.265625 0.109375l-3.75 0q-0.15625 0 -0.265625 -0.109375q-0.109375 -0.109375 -0.109375 -0.28125l0 -14.109375q0 -0.125 -0.078125 -0.125q-0.062499046 0 -0.12499905 0.09375l-3.390625 5.3125q-0.15625 0.265625 -0.4375 0.265625l-1.890625 0q-0.296875 0 -0.453125 -0.265625l-3.3906255 -5.3125q-0.0625 -0.09375 -0.125 -0.078125q-0.0625 0.015625 -0.0625 0.140625l0 14.078125q0 0.171875 -0.125 0.28125q-0.109375 0.109375 -0.265625 0.109375l-3.7343748 0q-0.171875 0 -0.28125 -0.109375q-0.109375 -0.109375 -0.109375 -0.28125l0 -21.625q0 -0.15625 0.109375 -0.265625q0.109375 -0.125 0.28125 -0.125l3.7343748 0q0.296875 0 0.453125 0.265625l4.7968755 7.4531255q0.09375 0.1875 0.1875 0l4.843749 -7.4531255zm14.739426 5.4375005q2.078125 0 3.703125 0.71875q1.640625 0.71875 2.546875 1.96875q0.921875 1.25 0.921875 2.78125l0 10.84375q0 0.171875 -0.109375 0.28125q-0.109375 0.109375 -0.265625 0.109375l-3.75 0q-0.15625 0 -0.28125 -0.109375q-0.109375 -0.109375 -0.109375 -0.28125l0 -1.046875q0 -0.09375 -0.0625 -0.125q-0.0625 -0.03125 -0.125 0.0625q-1.34375 1.75 -4.3125 1.75q-2.5 0 -4.046875 -1.203125q-1.53125 -1.21875 -1.53125 -3.59375q0 -2.46875 1.71875 -3.828125q1.734375 -1.359375 4.9375 -1.359375l3.265625 0q0.15625 0 0.15625 -0.15625l0 -0.703125q0 -1.046875 -0.640625 -1.640625q-0.640625 -0.59375 -1.921875 -0.59375q-0.984375 0 -1.640625 0.359375q-0.65625 0.34375 -0.84375 0.984375q-0.09375 0.34375 -0.421875 0.3125l-3.875 -0.515625q-0.375 -0.0625 -0.34375 -0.28125q0.125 -1.34375 1.0625 -2.421875q0.953125 -1.09375 2.5 -1.703125q1.546875 -0.609375 3.46875 -0.609375zm-0.640625 13.59375q1.375 0 2.328125 -0.734375q0.96875 -0.734375 0.96875 -1.890625l0 -1.140625q0 -0.171875 -0.15625 -0.171875l-2.296875 0q-1.453125 0 -2.265625 0.546875q-0.8125 0.546875 -0.8125 1.546875q0 0.859375 0.609375 1.359375q0.609375 0.484375 1.625 0.484375zm11.364792 3.109375q-0.15625 0 -0.28125 -0.109375q-0.109375 -0.109375 -0.109375 -0.28125l0 -21.625q0 -0.15625 0.109375 -0.265625q0.125 -0.125 0.28125 -0.125l3.75 0q0.15625 0 0.265625 0.125q0.109375 0.109375 0.109375 0.265625l0 10.78125q0 0.09375 0.0625 0.109375q0.0625 0.015625 0.140625 -0.046875l4.34375 -5.046875q0.21875 -0.234375 0.484375 -0.234375l4.25 0q0.328125 0 0.328125 0.234375q0 0.09375 -0.09375 0.25l-4.078125 5.15625q-0.0625 0.125 -0.03125 0.21875l4.78125 10.140625q0.0625 0.140625 0.0625 0.203125q0 0.25 -0.359375 0.25l-3.9375 0q-0.3125 0 -0.4375 -0.28125l-3.171875 -7.5q-0.03125 -0.0625 -0.125 -0.078125q-0.078125 -0.015625 -0.109375 0.046875l-2.046875 2.5625q-0.0625 0.125 -0.0625 0.1875l0 4.671875q0 0.171875 -0.109375 0.28125q-0.109375 0.109375 -0.265625 0.109375l-3.75 0zm19.102905 -18.296875q-1.078125 0 -1.8125 -0.71875q-0.71875 -0.734375 -0.71875 -1.8125005q0 -1.125 0.703125 -1.828125q0.703125 -0.703125 1.828125 -0.703125q1.125 0 1.828125 0.703125q0.703125 0.703125 0.703125 1.828125q0 1.0781255 -0.71875 1.8125005q-0.71875 0.71875 -1.8125 0.71875zm-1.921875 18.296875q-0.15625 0 -0.265625 -0.109375q-0.109375 -0.109375 -0.109375 -0.28125l0 -15.703125q0 -0.15625 0.109375 -0.265625q0.109375 -0.125 0.265625 -0.125l3.75 0q0.15625 0 0.265625 0.125q0.109375 0.109375 0.109375 0.265625l0 15.703125q0 0.171875 -0.109375 0.28125q-0.109375 0.109375 -0.265625 0.109375l-3.75 0zm16.222523 -16.703125q2.5625 0 4.125 1.578125q1.578125 1.5625 1.578125 4.25l0 10.484375q0 0.171875 -0.109375 0.28125q-0.109375 0.109375 -0.28125 0.109375l-3.734375 0q-0.171875 0 -0.28125 -0.109375q-0.109375 -0.109375 -0.109375 -0.28125l0 -9.5625q0 -1.28125 -0.71875 -2.078125q-0.71875 -0.796875 -1.90625 -0.796875q-1.1875 0 -1.90625 0.796875q-0.71875 0.796875 -0.71875 2.078125l0 9.5625q0 0.171875 -0.109375 0.28125q-0.109375 0.109375 -0.265625 0.109375l-3.75 0q-0.15625 0 -0.28125 -0.109375q-0.109375 -0.109375 -0.109375 -0.28125l0 -15.671875q0 -0.15625 0.109375 -0.265625q0.125 -0.125 0.28125 -0.125l3.75 0q0.15625 0 0.265625 0.125q0.109375 0.109375 0.109375 0.265625l0 1.125q0 0.09375 0.0625 0.125q0.0625 0.03125 0.109375 -0.03125q1.296875 -1.859375 3.890625 -1.859375zm18.988403 0.640625q0 -0.15625 0.109375 -0.265625q0.109375 -0.125 0.265625 -0.125l3.75 0q0.15625 0 0.265625 0.125q0.109375 0.109375 0.109375 0.265625l0 14.59375q0 4.1875 -2.421875 5.968748q-2.40625 1.796875 -6.21875 1.796875q-1.109375 0 -2.484375 -0.15625q-0.328125 -0.03125 -0.328125 -0.40625l0.125 -3.296873q0 -0.421875 0.453125 -0.359375q1.15625 0.1875 2.109375 0.1875q2.046875 0 3.15625 -0.890625q1.109375 -0.890625 1.109375 -2.875q0 -0.09375 -0.078125 -0.109375q-0.0625 -0.015625 -0.125 0.046875q-1.21875 1.3125 -3.546875 1.3125q-2.078125 0 -3.828125 -1.0q-1.734375 -1.015625 -2.484375 -3.265625q-0.46875 -1.46875 -0.46875 -3.796875q0 -2.5 0.578125 -4.078125q0.671875 -1.953125 2.265625 -3.125q1.59375 -1.1875 3.71875 -1.1875q2.453125 0 3.765625 1.46875q0.0625 0.0625 0.125 0.046875q0.078125 -0.015625 0.078125 -0.109375l0 -0.765625zm-0.265625 10.328125q0.265625 -0.953125 0.265625 -2.625q0 -0.984375 -0.078125 -1.53125q-0.0625 -0.546875 -0.21875 -1.015625q-0.28125 -0.875 -0.953125 -1.390625q-0.671875 -0.53125 -1.671875 -0.53125q-0.953125 0 -1.625 0.53125q-0.671875 0.515625 -1.0 1.390625q-0.4375 0.953125 -0.4375 2.59375q0 1.78125 0.375 2.546875q0.296875 0.875 1.015625 1.40625q0.71875 0.515625 1.703125 0.515625q1.03125 0 1.703125 -0.515625q0.671875 -0.53125 0.921875 -1.375zm30.145172 -16.671875q0.15625 0 0.265625 0.125q0.125 0.109375 0.125 0.265625l0 3.1406255q0 0.15625 -0.125 0.265625q-0.109375 0.109375 -0.265625 0.109375l-5.71875 0q-0.171875 0 -0.171875 0.15625l0 17.953125q0 0.171875 -0.109375 0.28125q-0.109375 0.109375 -0.265625 0.109375l-3.75 0q-0.15625 0 -0.265625 -0.109375q-0.109375 -0.109375 -0.109375 -0.28125l0 -17.953125q0 -0.15625 -0.171875 -0.15625l-5.5625 0q-0.15625 0 -0.28125 -0.109375q-0.109375 -0.109375 -0.109375 -0.265625l0 -3.1406255q0 -0.15625 0.109375 -0.265625q0.125 -0.125 0.28125 -0.125l16.125 0zm9.349144 5.7343755q1.15625 0 1.828125 0.453125q0.25 0.125 0.1875 0.46875l-0.671875 3.65625q-0.03125 0.375 -0.453125 0.21875q-0.484375 -0.15625 -1.125 -0.15625q-0.25 0 -0.703125 0.0625q-1.140625 0.09375 -1.953125 0.84375q-0.796875 0.75 -0.796875 2.0l0 8.734375q0 0.171875 -0.109375 0.28125q-0.109375 0.109375 -0.265625 0.109375l-3.7499924 0q-0.15625 0 -0.28125 -0.109375q-0.109375 -0.109375 -0.109375 -0.28125l0 -15.671875q0 -0.15625 0.109375 -0.265625q0.125 -0.125 0.28125 -0.125l3.7499924 0q0.15625 0 0.265625 0.125q0.109375 0.109375 0.109375 0.265625l0 1.21875q0 0.09375 0.0625 0.125q0.0625 0.03125 0.109375 -0.03125q1.296875 -1.921875 3.515625 -1.921875zm6.490402 -1.625q-1.078125 0 -1.8125 -0.71875q-0.71875 -0.734375 -0.71875 -1.8125005q0 -1.125 0.703125 -1.828125q0.703125 -0.703125 1.828125 -0.703125q1.125 0 1.828125 0.703125q0.703125 0.703125 0.703125 1.828125q0 1.0781255 -0.71875 1.8125005q-0.71875 0.71875 -1.8125 0.71875zm-1.921875 18.296875q-0.15625 0 -0.265625 -0.109375q-0.109375 -0.109375 -0.109375 -0.28125l0 -15.703125q0 -0.15625 0.109375 -0.265625q0.109375 -0.125 0.265625 -0.125l3.75 0q0.15625 0 0.265625 0.125q0.109375 0.109375 0.109375 0.265625l0 15.703125q0 0.171875 -0.109375 0.28125q-0.109375 0.109375 -0.265625 0.109375l-3.75 0zm22.347519 -12.03125q0.5625 1.625 0.5625 3.84375q0 2.203125 -0.609375 4.0q-0.734375 2.046875 -2.3125 3.25q-1.578125 1.1875 -3.921875 1.1875q-2.296875 0 -3.578125 -1.59375q-0.0625 -0.09375 -0.140625 -0.0625q-0.0625 0.03125 -0.0625 0.125l0 6.843748q0 0.171875 -0.109375 0.28125q-0.109375 0.109375 -0.265625 0.109375l-3.75 0q-0.15625 0 -0.265625 -0.109375q-0.109375 -0.109375 -0.109375 -0.28125l0 -21.624998q0 -0.15625 0.109375 -0.265625q0.109375 -0.125 0.265625 -0.125l3.75 0q0.15625 0 0.265625 0.125q0.109375 0.109375 0.109375 0.265625l0 1.046875q0 0.109375 0.0625 0.125q0.078125 0.015625 0.140625 -0.046875q1.34375 -1.765625 3.703125 -1.765625q2.21875 0 3.828125 1.234375q1.609375 1.234375 2.328125 3.4375zm-4.90625 7.171875q0.796875 -1.25 0.796875 -3.390625q0 -2.015625 -0.671875 -3.203125q-0.734375 -1.375 -2.359375 -1.375q-1.46875 0 -2.203125 1.375q-0.671875 1.15625 -0.671875 3.234375q0 2.140625 0.703125 3.328125q0.734375 1.28125 2.171875 1.28125q1.4375 0 2.234375 -1.25zm8.769791 4.859375q-0.15625 0 -0.28125 -0.109375q-0.109375 -0.109375 -0.109375 -0.28125l0 -21.625q0 -0.15625 0.109375 -0.265625q0.125 -0.125 0.28125 -0.125l3.75 0q0.15625 0 0.265625 0.125q0.109375 0.109375 0.109375 0.265625l0 21.625q0 0.171875 -0.109375 0.28125q-0.109375 0.109375 -0.265625 0.109375l-3.75 0zm21.979889 -9.921875q0.203125 1.21875 0.140625 2.71875q-0.046875 0.390625 -0.421875 0.390625l-9.890625 0q-0.1875 0 -0.125 0.15625q0.09375 0.640625 0.34375 1.28125q0.84375 1.796875 3.390625 1.796875q2.0625 -0.03125 3.234375 -1.671875q0.140625 -0.1875 0.296875 -0.1875q0.09375 0 0.21875 0.125l2.3125 2.265625q0.15625 0.171875 0.15625 0.296875q0 0.0625 -0.125 0.25q-1.0625 1.3125 -2.734375 2.03125q-1.65625 0.71875 -3.640625 0.71875q-2.75 0 -4.65625 -1.234375q-1.90625 -1.25 -2.734375 -3.5q-0.671875 -1.59375 -0.671875 -4.1875q0 -1.765625 0.484375 -3.109375q0.734375 -2.265625 2.5625 -3.609375q1.84375 -1.34375 4.375 -1.34375q3.203125 0 5.140625 1.859375q1.9375 1.84375 2.34375 4.953125zm-7.453125 -2.90625q-2.015625 0 -2.65625 1.890625q-0.125 0.40625 -0.21875 1.015625q0 0.15625 0.15625 0.15625l5.53125 0q0.203125 0 0.140625 -0.15625q-0.171875 -0.921875 -0.171875 -0.890625q-0.28125 -0.96875 -1.0 -1.484375q-0.71875 -0.53125 -1.78125 -0.53125zm19.431778 -0.390625q0 0.15625 -0.125 0.28125q-0.109375 0.109375 -0.265625 0.109375l-3.078125 0q-0.15625 0 -0.15625 0.15625l0 6.78125q0 1.0625 0.4375 1.578125q0.4375 0.5 1.390625 0.5l1.0625 0q0.15625 0 0.265625 0.125q0.109375 0.109375 0.109375 0.265625l0 3.03125q0 0.359375 -0.375 0.421875q-1.34375 0.0625 -1.921875 0.0625q-2.65625 0 -3.96875 -0.875q-1.3125 -0.875 -1.34375 -3.3125l0 -8.578125q0 -0.15625 -0.171875 -0.15625l-1.8125 0q-0.171875 0 -0.28125 -0.109375q-0.109375 -0.125 -0.109375 -0.28125l0 -2.84375q0 -0.15625 0.109375 -0.265625q0.109375 -0.125 0.28125 -0.125l1.8125 0q0.171875 0 0.171875 -0.15625l0 -3.8125q0 -0.15625 0.109375 -0.26562548q0.109375 -0.109375 0.265625 -0.109375l3.59375 0q0.15625 0 0.265625 0.109375q0.109375 0.10937548 0.109375 0.26562548l0 3.8125q0 0.15625 0.15625 0.15625l3.078125 0q0.15625 0 0.265625 0.125q0.125 0.109375 0.125 0.265625l0 2.84375zm17.045395 3.296875q0.203125 1.21875 0.140625 2.71875q-0.046875 0.390625 -0.421875 0.390625l-9.890625 0q-0.1875 0 -0.125 0.15625q0.09375 0.640625 0.34375 1.28125q0.84375 1.796875 3.390625 1.796875q2.0625 -0.03125 3.234375 -1.671875q0.140625 -0.1875 0.296875 -0.1875q0.09375 0 0.21875 0.125l2.3125 2.265625q0.15625 0.171875 0.15625 0.296875q0 0.0625 -0.125 0.25q-1.0625 1.3125 -2.734375 2.03125q-1.65625 0.71875 -3.640625 0.71875q-2.75 0 -4.65625 -1.234375q-1.90625 -1.25 -2.734375 -3.5q-0.671875 -1.59375 -0.671875 -4.1875q0 -1.765625 0.484375 -3.109375q0.734375 -2.265625 2.5625 -3.609375q1.84375 -1.34375 4.375 -1.34375q3.203125 0 5.140625 1.859375q1.9375 1.84375 2.34375 4.953125zm-7.453125 -2.90625q-2.015625 0 -2.65625 1.890625q-0.125 0.40625 -0.21875 1.015625q0 0.15625 0.15625 0.15625l5.53125 0q0.203125 0 0.140625 -0.15625q-0.171875 -0.921875 -0.171875 -0.890625q-0.28125 -0.96875 -1.0 -1.484375q-0.71875 -0.53125 -1.78125 -0.53125zm8.96965 12.828125q-0.234375 0 -0.3125 -0.140625q-0.078125 -0.140625 0.046875 -0.34375l5.15625 -7.640625q0.0625 -0.09375 0 -0.1875l-5.15625 -7.65625q-0.0625 -0.125 -0.0625 -0.21875q0 -0.265625 0.328125 -0.265625l4.0 0q0.28125 0 0.4375 0.265625l2.890625 4.375q0.125 0.203125 0.21875 0l2.875 -4.375q0.15625 -0.265625 0.453125 -0.265625l4.28125 0q0.234375 0 0.296875 0.15625q0.0625 0.140625 -0.0625 0.328125l-5.125 7.65625q-0.03125 0.09375 0 0.1875l5.125 7.640625q0.0625 0.09375 0.0625 0.234375q0 0.25 -0.296875 0.25l-4.03125 0q-0.28125 0 -0.4375 -0.25l-2.890625 -4.390625q-0.09375 -0.1875 -0.1875 0l-2.875 4.390625q-0.171875 0.25 -0.453125 0.25l-4.28125 0z" fill-rule="nonzero" />
    <path fill="#ffffff" d="m256.4073 6.2164054q0.15625 0 0.265625 0.125q0.125 0.109375 0.125 0.265625l0 3.1406255q0 0.15625 -0.125 0.265625q-0.109375 0.109375 -0.265625 0.109375l-5.7187653 0q-0.171875 0 -0.171875 0.15625l0 17.953125q0 0.171875 -0.109375 0.28125q-0.109375 0.109375 -0.265625 0.109375l-3.75 0q-0.15625 0 -0.265625 -0.109375q-0.109375 -0.109375 -0.109375 -0.28125l0 -17.953125q0 -0.15625 -0.171875 -0.15625l-5.5625 0q-0.15625 0 -0.28125 -0.109375q-0.109375 -0.109375 -0.109375 -0.265625l0 -3.1406255q0 -0.15625 0.109375 -0.265625q0.125 -0.125 0.28125 -0.125l16.125015 0zm8.380524 5.7031255q2.078125 0 3.703125 0.71875q1.640625 0.71875 2.546875 1.96875q0.921875 1.25 0.921875 2.78125l0 10.84375q0 0.171875 -0.109375 0.28125q-0.109375 0.109375 -0.265625 0.109375l-3.75 0q-0.15625 0 -0.28125 -0.109375q-0.109375 -0.109375 -0.109375 -0.28125l0 -1.046875q0 -0.09375 -0.0625 -0.125q-0.0625 -0.03125 -0.125 0.0625q-1.34375 1.75 -4.3125 1.75q-2.5 0 -4.046875 -1.203125q-1.53125 -1.21875 -1.53125 -3.59375q0 -2.46875 1.71875 -3.828125q1.734375 -1.359375 4.9375 -1.359375l3.265625 0q0.15625 0 0.15625 -0.15625l0 -0.703125q0 -1.046875 -0.640625 -1.640625q-0.640625 -0.59375 -1.921875 -0.59375q-0.984375 0 -1.640625 0.359375q-0.65625 0.34375 -0.84375 0.984375q-0.09375 0.34375 -0.421875 0.3125l-3.875 -0.515625q-0.375 -0.0625 -0.34375 -0.28125q0.125 -1.34375 1.0625 -2.421875q0.953125 -1.09375 2.5 -1.703125q1.546875 -0.609375 3.46875 -0.609375zm-0.640625 13.59375q1.375 0 2.328125 -0.734375q0.96875 -0.734375 0.96875 -1.890625l0 -1.140625q0 -0.171875 -0.15625 -0.171875l-2.296875 0q-1.453125 0 -2.265625 0.546875q-0.8125 0.546875 -0.8125 1.546875q0 0.859375 0.609375 1.359375q0.609375 0.484375 1.625 0.484375zm11.364807 3.109375q-0.15625 0 -0.28125 -0.109375q-0.109375 -0.109375 -0.109375 -0.28125l0 -21.625q0 -0.15625 0.109375 -0.265625q0.125 -0.125 0.28125 -0.125l3.75 0q0.15625 0 0.265625 0.125q0.109375 0.109375 0.109375 0.265625l0 21.625q0 0.171875 -0.109375 0.28125q-0.109375 0.109375 -0.265625 0.109375l-3.75 0zm7.8720093 0q-0.15625 0 -0.28125 -0.109375q-0.109375 -0.109375 -0.109375 -0.28125l0 -21.625q0 -0.15625 0.109375 -0.265625q0.125 -0.125 0.28125 -0.125l3.75 0q0.15625 0 0.265625 0.125q0.109375 0.109375 0.109375 0.265625l0 10.78125q0 0.09375 0.0625 0.109375q0.0625 0.015625 0.140625 -0.046875l4.34375 -5.046875q0.21875 -0.234375 0.484375 -0.234375l4.25 0q0.328125 0 0.328125 0.234375q0 0.09375 -0.09375 0.25l-4.078125 5.15625q-0.0625 0.125 -0.03125 0.21875l4.78125 10.140625q0.0625 0.140625 0.0625 0.203125q0 0.25 -0.359375 0.25l-3.9375 0q-0.3125 0 -0.4375 -0.28125l-3.171875 -7.5q-0.03125 -0.0625 -0.125 -0.078125q-0.078125 -0.015625 -0.109375 0.046875l-2.046875 2.5625q-0.0625 0.125 -0.0625 0.1875l0 4.671875q0 0.171875 -0.109375 0.28125q-0.109375 0.109375 -0.265625 0.109375l-3.75 0z" fill-rule="nonzero" />
  </g>
</svg>
