<?xml version="1.0" encoding="UTF-8" standalone="no" ?>
<!DOCTYPE svg PUBLIC "-//W3C//DTD SVG 1.1//EN" "http://www.w3.org/Graphics/SVG/1.1/DTD/svg11.dtd">
<svg xmlns="http://www.w3.org/2000/svg" xmlns:xlink="http://www.w3.org/1999/xlink" version="1.1" width="300" height="45" viewBox="0 0 300 45" xml:space="preserve">
<desc>Created with Fabric.js 5.2.4</desc>
<defs>
</defs>
<g transform="matrix(1 0 0 1 150 22.5)" id="d2746a3e-f1de-4c66-bfdf-db68cffc8741"  >
<rect style="stroke: none; stroke-width: 1; stroke-dasharray: none; stroke-linecap: butt; stroke-dashoffset: 0; stroke-linejoin: miter; stroke-miterlimit: 4; fill: rgb(255,255,255); fill-rule: nonzero; opacity: 1; visibility: hidden;" vector-effect="non-scaling-stroke"  x="-150" y="-22.5" rx="0" ry="0" width="300" height="45" />
</g>
<g transform="matrix(Infinity NaN NaN Infinity 0 0)" id="e7f59eb8-4360-4d5b-9195-a99e1bb7a01e"  >
</g>
<g transform="matrix(0.04 0 0 0.04 300 45)"  >
<g style="" vector-effect="non-scaling-stroke"   >
		<g transform="matrix(1 0 0 1 -195 0.25)"  >
<rect style="stroke: none; stroke-width: 1; stroke-dasharray: none; stroke-linecap: butt; stroke-dashoffset: 0; stroke-linejoin: miter; stroke-miterlimit: 4; fill: rgb(255,255,255); fill-opacity: 0; fill-rule: nonzero; opacity: 1;" vector-effect="non-scaling-stroke"  x="-50" y="-50" rx="0" ry="0" width="100" height="100" />
</g>
		<g transform="matrix(1 0 0 1 5 -27.25)"  >
<rect style="stroke: none; stroke-width: 1; stroke-dasharray: none; stroke-linecap: butt; stroke-dashoffset: 0; stroke-linejoin: miter; stroke-miterlimit: 4; fill: rgb(255,255,255); fill-rule: nonzero; opacity: 1; visibility: hidden;" vector-effect="non-scaling-stroke"  x="-250" y="-22.5" rx="0" ry="0" width="500" height="45" />
</g>
		<g transform="matrix(1 0 0 1 -205 -0.25)"  >
<rect style="stroke: none; stroke-width: 1; stroke-dasharray: none; stroke-linecap: butt; stroke-dashoffset: 0; stroke-linejoin: miter; stroke-miterlimit: 4; fill: rgb(255,255,255); fill-opacity: 0; fill-rule: nonzero; opacity: 1;" vector-effect="non-scaling-stroke"  x="-50" y="-50" rx="0" ry="0" width="100" height="100" />
</g>
		<g transform="matrix(1 0 0 1 -5 -27.75)"  >
<rect style="stroke: none; stroke-width: 1; stroke-dasharray: none; stroke-linecap: butt; stroke-dashoffset: 0; stroke-linejoin: miter; stroke-miterlimit: 4; fill: rgb(255,255,255); fill-rule: nonzero; opacity: 1; visibility: hidden;" vector-effect="non-scaling-stroke"  x="-250" y="-22.5" rx="0" ry="0" width="500" height="45" />
</g>
		<g transform="matrix(0.84 0 0 0.84 -185.96 -19.17)"  >
<path style="stroke: none; stroke-width: 1; stroke-dasharray: none; stroke-linecap: butt; stroke-dashoffset: 0; stroke-linejoin: miter; stroke-miterlimit: 4; fill: rgb(15,19,26); fill-rule: nonzero; opacity: 1;" vector-effect="non-scaling-stroke"  transform=" translate(-61.5, -34.96)" d="M 76.167 34.194 C 75.673 31.230000000000004 74.191 28.859 71.623 27.378000000000004 C 70.635 26.785000000000004 69.45 26.489000000000004 68.26400000000001 26.291000000000004 C 67.07900000000001 26.192000000000004 65.89300000000001 26.291000000000004 64.80600000000001 26.587000000000003 C 59.86700000000001 27.970000000000002 57.39700000000001 33.206 58.780000000000015 37.75 C 59.076000000000015 38.837 59.66900000000002 39.923 60.36100000000002 40.911 C 61.05300000000002 41.800000000000004 62.04000000000002 42.59 63.02800000000002 43.183 C 64.01600000000002 43.775999999999996 65.20100000000002 44.072 66.38700000000001 44.27 C 67.57200000000002 44.369 68.75800000000001 44.27 69.84500000000001 43.974000000000004 C 71.52400000000002 43.480000000000004 73.00600000000001 42.591 74.09300000000002 41.208000000000006 C 75.27800000000002 39.726000000000006 75.97000000000001 37.94800000000001 76.26600000000002 36.17 L 72.21600000000002 37.355000000000004 C 71.82100000000003 38.93600000000001 70.83300000000003 40.121 68.95600000000002 40.714000000000006 C 66.68400000000001 41.406000000000006 64.01700000000002 40.61500000000001 63.02900000000002 38.047000000000004 L 76.16800000000002 34.194 Z M 62.238 34.984 C 61.942 33.403 62.93 30.835 65.794 29.946 C 68.65899999999999 29.057000000000002 70.931 30.736 71.524 32.317 L 62.238 34.984 Z M 105.507 34.194 C 105.013 31.230000000000004 103.531 28.859 100.96300000000001 27.378000000000004 C 99.97500000000001 26.785000000000004 98.79 26.489000000000004 97.60400000000001 26.291000000000004 C 96.41900000000001 26.192000000000004 95.23300000000002 26.291000000000004 94.14600000000002 26.587000000000003 C 89.20700000000002 27.970000000000002 86.73700000000001 33.206 88.12000000000002 37.75 C 88.41600000000003 38.935 89.00900000000001 39.923 89.70100000000002 40.911 C 90.39300000000001 41.800000000000004 91.38000000000002 42.59 92.36800000000002 43.183 C 93.35600000000002 43.775999999999996 94.54100000000003 44.072 95.72700000000002 44.27 C 96.91200000000002 44.369 98.09800000000001 44.27 99.18500000000002 43.974000000000004 C 100.86400000000002 43.480000000000004 102.34600000000002 42.591 103.43300000000002 41.208000000000006 C 104.61800000000002 39.726000000000006 105.31000000000002 37.94800000000001 105.60600000000002 36.17 L 101.55600000000003 37.355000000000004 C 101.16100000000003 38.93600000000001 100.17300000000003 40.121 98.29600000000002 40.714000000000006 C 96.02400000000002 41.406000000000006 93.35700000000003 40.61500000000001 92.36900000000003 38.047000000000004 L 105.50800000000002 34.194 Z M 91.578 34.984 C 91.282 33.403 92.27 30.835 95.134 29.946 C 97.998 29.057000000000002 100.271 30.736 100.864 32.317 L 91.578 34.984 Z M 105.409 44.073 L 110.34800000000001 44.073 L 114.20100000000001 38.244 L 118.054 44.073 L 122.993 44.073 L 116.66999999999999 35.083 L 122.39999999999999 27.080999999999996 L 117.559 27.080999999999996 L 114.2 32.31699999999999 L 110.84100000000001 27.080999999999992 L 105.90200000000002 27.080999999999992 L 111.63200000000002 35.08299999999999 L 105.40800000000002 44.07299999999999 Z M 48.605 35.379 C 48.605 39.726 45.443999999999996 44.369 39.516 44.369 C 37.738 44.369 36.058 43.875 34.477999999999994 42.986 L 34.477999999999994 50 L 30.427999999999994 50 L 30.427999999999994 35.379 C 30.427999999999994 31.031999999999996 33.58899999999999 26.388999999999996 39.516999999999996 26.388999999999996 C 45.445 26.388999999999996 48.605999999999995 31.031999999999996 48.605999999999995 35.379 Z M 44.555 35.379 C 44.555 32.415 42.283 30.142999999999997 39.516999999999996 30.142999999999997 C 36.75099999999999 30.142999999999997 34.577999999999996 32.217999999999996 34.479 35.081999999999994 L 34.479 35.971 C 34.577999999999996 37.254999999999995 35.171 38.342 36.06 39.230999999999995 C 36.949000000000005 40.11999999999999 38.233000000000004 40.51499999999999 39.419000000000004 40.51499999999999 C 42.284000000000006 40.61399999999999 44.556000000000004 38.34199999999999 44.556000000000004 35.37799999999999 M 55.125 20.956 L 51.371 20.956 L 51.371 43.875 L 55.421 43.875 L 55.421 20.956 L 55.125 20.956 Z M 22.524 26.883 L 26.574 26.883 L 26.574 43.875 L 22.524 43.875 L 22.524 26.883 Z M 24.5 24.413 C 24.994 24.413 25.389 24.314 25.784 24.018 C 26.179 23.722 26.476 23.425 26.573999999999998 23.03 C 26.772 22.635 26.772 22.141000000000002 26.673 21.746000000000002 C 26.573999999999998 21.351000000000003 26.377 20.956000000000003 26.08 20.561000000000003 C 25.784 20.265000000000004 25.387999999999998 20.067000000000004 24.895 19.968000000000004 C 24.5 19.869000000000003 24.006 19.968000000000004 23.611 20.067000000000004 C 23.216 20.265000000000004 22.821 20.561000000000003 22.623 20.857000000000003 C 22.327 21.252000000000002 22.228 21.647000000000002 22.228 22.141000000000002 C 22.228 22.734 22.426000000000002 23.326 22.92 23.722 C 23.315 24.216 23.908 24.414 24.501 24.414 Z M 13.337 35.28 C 13.436 32.316 15.708 30.242 18.474 30.242 C 18.77 30.242 19.166 30.242 19.462 30.341 L 19.462 26.488 C 19.166 26.488 18.77 26.389 18.474 26.389 C 12.448 26.389 9.287 31.032 9.287 35.478 L 9.287 43.875 L 13.436 43.875 L 13.337 35.28 Z M 8.298 26.192 L 4.05 26.192 L 4.05 20.956 L 0 20.956 L 0 43.875 L 4.05 43.875 L 4.05 30.341 L 8.298 30.341 L 8.298 26.192 Z M 87.133 26.192 L 82.88499999999999 26.192 L 82.88499999999999 20.956 L 78.835 20.956 L 78.835 43.875 L 82.88499999999999 43.875 L 82.88499999999999 30.341 L 87.133 30.341 L 87.133 26.192 Z" stroke-linecap="round" />
</g>
		<g transform="matrix(0.84 0 0 0.84 -118.17 -34.91)"  >
<path style="stroke: none; stroke-width: 1; stroke-dasharray: none; stroke-linecap: butt; stroke-dashoffset: 0; stroke-linejoin: miter; stroke-miterlimit: 4; fill: rgb(88,179,205); fill-rule: nonzero; opacity: 1;" vector-effect="non-scaling-stroke"  transform=" translate(-142.21, -16.24)" d="M 142.554 16.708 L 142.554 15.818999999999999 L 147.987 15.818999999999999 C 147.887286039404 14.437831950926254 147.290859674906 13.139476761980328 146.308 12.164 C 145.41899999999998 11.275 144.135 10.682 142.85 10.485 C 141.566 10.386 140.183 10.683 139.096 11.373999999999999 C 138.00900000000001 12.064999999999998 137.12 13.152 136.725 14.338 C 136.32999999999998 15.524 136.32999999999998 16.907 136.725 18.191 C 137.219 19.375999999999998 138.009 20.462999999999997 139.195 21.154999999999998 C 140.28199999999998 21.846999999999998 141.665 22.142999999999997 142.94899999999998 21.944999999999997 C 144.23299999999998 21.746999999999996 145.41899999999998 21.154999999999998 146.308 20.166999999999998 C 147.197 19.179 147.79 17.994 147.88899999999998 16.708999999999996 L 142.55399999999997 16.708999999999996 Z" stroke-linecap="round" />
</g>
		<g transform="matrix(0.84 0 0 0.84 -126.77 -26.34)"  >
<path style="stroke: none; stroke-width: 1; stroke-dasharray: none; stroke-linecap: butt; stroke-dashoffset: 0; stroke-linejoin: miter; stroke-miterlimit: 4; fill: rgb(26,185,109); fill-rule: nonzero; opacity: 1;" vector-effect="non-scaling-stroke"  transform=" translate(-131.96, -26.44)" d="M 131.489 26.784 L 132.37800000000001 26.784 L 132.37800000000001 32.217 C 133.75916804907376 32.117286039403986 135.05752323801968 31.52085967490598 136.03300000000002 30.538 C 136.92200000000003 29.649 137.51500000000001 28.365000000000002 137.71200000000002 27.08 C 137.811 25.796 137.514 24.412999999999997 136.823 23.325999999999997 C 136.131 22.238999999999997 135.04500000000002 21.349999999999998 133.859 20.955 C 132.60503842558285 20.559993861475565 131.25996157441716 20.559993861475565 130.006 20.955 C 128.821 21.448999999999998 127.734 22.238999999999997 127.042 23.424999999999997 C 126.35000000000001 24.511999999999997 126.054 25.894999999999996 126.252 27.179 C 126.44999999999999 28.463 127.042 29.648999999999997 128.03 30.537999999999997 C 129.018 31.426999999999996 130.203 32.019999999999996 131.488 32.119 L 131.488 26.784 Z" stroke-linecap="round" />
</g>
		<g transform="matrix(0.84 0 0 0.84 -126.8 -43.68)"  >
<path style="stroke: none; stroke-width: 1; stroke-dasharray: none; stroke-linecap: butt; stroke-dashoffset: 0; stroke-linejoin: miter; stroke-miterlimit: 4; fill: rgb(1,10,89); fill-rule: nonzero; opacity: 1;" vector-effect="non-scaling-stroke"  transform=" translate(-131.93, -5.78)" d="M 132.378 5.94 L 131.68599999999998 5.248 L 135.539 1.395 C 134.452 0.40700000000000003 132.97 -0.08699999999999997 131.48899999999998 0.01200000000000001 C 130.01076873820466 0.11774991086006036 128.63045197265143 0.7901751818030736 127.63599999999998 1.8889999999999993 C 126.64799999999998 2.976 126.05499999999998 4.458 126.15399999999998 5.939 C 126.25299999999999 7.42 126.74699999999999 8.804 127.83299999999998 9.891 C 128.92 10.978 130.303 11.57 131.785 11.57 C 133.267 11.57 134.749 11.076 135.835 10.088000000000001 C 136.92100000000002 9.100000000000001 137.613 7.7170000000000005 137.71200000000002 6.235000000000001 C 137.811 4.753000000000001 137.317 3.2710000000000012 136.329 2.1850000000000014 L 132.377 5.939000000000002 Z" stroke-linecap="round" />
</g>
		<g transform="matrix(1 0 0 1 -15.09 -25.66)" style=""  >
		<text xml:space="preserve" font-family="Lato" font-size="22" font-style="normal" font-weight="700" style="stroke: none; stroke-width: 1; stroke-dasharray: none; stroke-linecap: butt; stroke-dashoffset: 0; stroke-linejoin: miter; stroke-miterlimit: 4; fill: rgb(0,0,0); fill-rule: nonzero; opacity: 1; white-space: pre;" ><tspan x="-47.97" y="6.91" >Data Sync</tspan></text>
</g>
</g>
</g>
<g transform="matrix(1 0 0 1 47 49.75)"  >
<rect style="stroke: none; stroke-width: 1; stroke-dasharray: none; stroke-linecap: butt; stroke-dashoffset: 0; stroke-linejoin: miter; stroke-miterlimit: 4; fill: rgb(255,255,255); fill-opacity: 0; fill-rule: nonzero; opacity: 1;" vector-effect="non-scaling-stroke"  x="-50" y="-50" rx="0" ry="0" width="100" height="100" />
</g>
<g transform="matrix(1 0 0 1 247 22.25)"  >
<rect style="stroke: none; stroke-width: 1; stroke-dasharray: none; stroke-linecap: butt; stroke-dashoffset: 0; stroke-linejoin: miter; stroke-miterlimit: 4; fill: rgb(255,255,255); fill-rule: nonzero; opacity: 1; visibility: hidden;" vector-effect="non-scaling-stroke"  x="-250" y="-22.5" rx="0" ry="0" width="500" height="45" />
</g>
<g transform="matrix(1 0 0 1 37 49.25)"  >
<rect style="stroke: none; stroke-width: 1; stroke-dasharray: none; stroke-linecap: butt; stroke-dashoffset: 0; stroke-linejoin: miter; stroke-miterlimit: 4; fill: rgb(255,255,255); fill-opacity: 0; fill-rule: nonzero; opacity: 1;" vector-effect="non-scaling-stroke"  x="-50" y="-50" rx="0" ry="0" width="100" height="100" />
</g>
<g transform="matrix(1 0 0 1 237 21.75)"  >
<rect style="stroke: none; stroke-width: 1; stroke-dasharray: none; stroke-linecap: butt; stroke-dashoffset: 0; stroke-linejoin: miter; stroke-miterlimit: 4; fill: rgb(255,255,255); fill-rule: nonzero; opacity: 1; visibility: hidden;" vector-effect="non-scaling-stroke"  x="-250" y="-22.5" rx="0" ry="0" width="500" height="45" />
</g>
<g transform="matrix(0.84 0 0 0.84 56.04 30.33)"  >
<path style="stroke: none; stroke-width: 1; stroke-dasharray: none; stroke-linecap: butt; stroke-dashoffset: 0; stroke-linejoin: miter; stroke-miterlimit: 4; fill: rgb(15,19,26); fill-rule: nonzero; opacity: 1;" vector-effect="non-scaling-stroke"  transform=" translate(-61.5, -34.96)" d="M 76.167 34.194 C 75.673 31.230000000000004 74.191 28.859 71.623 27.378000000000004 C 70.635 26.785000000000004 69.45 26.489000000000004 68.26400000000001 26.291000000000004 C 67.07900000000001 26.192000000000004 65.89300000000001 26.291000000000004 64.80600000000001 26.587000000000003 C 59.86700000000001 27.970000000000002 57.39700000000001 33.206 58.780000000000015 37.75 C 59.076000000000015 38.837 59.66900000000002 39.923 60.36100000000002 40.911 C 61.05300000000002 41.800000000000004 62.04000000000002 42.59 63.02800000000002 43.183 C 64.01600000000002 43.775999999999996 65.20100000000002 44.072 66.38700000000001 44.27 C 67.57200000000002 44.369 68.75800000000001 44.27 69.84500000000001 43.974000000000004 C 71.52400000000002 43.480000000000004 73.00600000000001 42.591 74.09300000000002 41.208000000000006 C 75.27800000000002 39.726000000000006 75.97000000000001 37.94800000000001 76.26600000000002 36.17 L 72.21600000000002 37.355000000000004 C 71.82100000000003 38.93600000000001 70.83300000000003 40.121 68.95600000000002 40.714000000000006 C 66.68400000000001 41.406000000000006 64.01700000000002 40.61500000000001 63.02900000000002 38.047000000000004 L 76.16800000000002 34.194 Z M 62.238 34.984 C 61.942 33.403 62.93 30.835 65.794 29.946 C 68.65899999999999 29.057000000000002 70.931 30.736 71.524 32.317 L 62.238 34.984 Z M 105.507 34.194 C 105.013 31.230000000000004 103.531 28.859 100.96300000000001 27.378000000000004 C 99.97500000000001 26.785000000000004 98.79 26.489000000000004 97.60400000000001 26.291000000000004 C 96.41900000000001 26.192000000000004 95.23300000000002 26.291000000000004 94.14600000000002 26.587000000000003 C 89.20700000000002 27.970000000000002 86.73700000000001 33.206 88.12000000000002 37.75 C 88.41600000000003 38.935 89.00900000000001 39.923 89.70100000000002 40.911 C 90.39300000000001 41.800000000000004 91.38000000000002 42.59 92.36800000000002 43.183 C 93.35600000000002 43.775999999999996 94.54100000000003 44.072 95.72700000000002 44.27 C 96.91200000000002 44.369 98.09800000000001 44.27 99.18500000000002 43.974000000000004 C 100.86400000000002 43.480000000000004 102.34600000000002 42.591 103.43300000000002 41.208000000000006 C 104.61800000000002 39.726000000000006 105.31000000000002 37.94800000000001 105.60600000000002 36.17 L 101.55600000000003 37.355000000000004 C 101.16100000000003 38.93600000000001 100.17300000000003 40.121 98.29600000000002 40.714000000000006 C 96.02400000000002 41.406000000000006 93.35700000000003 40.61500000000001 92.36900000000003 38.047000000000004 L 105.50800000000002 34.194 Z M 91.578 34.984 C 91.282 33.403 92.27 30.835 95.134 29.946 C 97.998 29.057000000000002 100.271 30.736 100.864 32.317 L 91.578 34.984 Z M 105.409 44.073 L 110.34800000000001 44.073 L 114.20100000000001 38.244 L 118.054 44.073 L 122.993 44.073 L 116.66999999999999 35.083 L 122.39999999999999 27.080999999999996 L 117.559 27.080999999999996 L 114.2 32.31699999999999 L 110.84100000000001 27.080999999999992 L 105.90200000000002 27.080999999999992 L 111.63200000000002 35.08299999999999 L 105.40800000000002 44.07299999999999 Z M 48.605 35.379 C 48.605 39.726 45.443999999999996 44.369 39.516 44.369 C 37.738 44.369 36.058 43.875 34.477999999999994 42.986 L 34.477999999999994 50 L 30.427999999999994 50 L 30.427999999999994 35.379 C 30.427999999999994 31.031999999999996 33.58899999999999 26.388999999999996 39.516999999999996 26.388999999999996 C 45.445 26.388999999999996 48.605999999999995 31.031999999999996 48.605999999999995 35.379 Z M 44.555 35.379 C 44.555 32.415 42.283 30.142999999999997 39.516999999999996 30.142999999999997 C 36.75099999999999 30.142999999999997 34.577999999999996 32.217999999999996 34.479 35.081999999999994 L 34.479 35.971 C 34.577999999999996 37.254999999999995 35.171 38.342 36.06 39.230999999999995 C 36.949000000000005 40.11999999999999 38.233000000000004 40.51499999999999 39.419000000000004 40.51499999999999 C 42.284000000000006 40.61399999999999 44.556000000000004 38.34199999999999 44.556000000000004 35.37799999999999 M 55.125 20.956 L 51.371 20.956 L 51.371 43.875 L 55.421 43.875 L 55.421 20.956 L 55.125 20.956 Z M 22.524 26.883 L 26.574 26.883 L 26.574 43.875 L 22.524 43.875 L 22.524 26.883 Z M 24.5 24.413 C 24.994 24.413 25.389 24.314 25.784 24.018 C 26.179 23.722 26.476 23.425 26.573999999999998 23.03 C 26.772 22.635 26.772 22.141000000000002 26.673 21.746000000000002 C 26.573999999999998 21.351000000000003 26.377 20.956000000000003 26.08 20.561000000000003 C 25.784 20.265000000000004 25.387999999999998 20.067000000000004 24.895 19.968000000000004 C 24.5 19.869000000000003 24.006 19.968000000000004 23.611 20.067000000000004 C 23.216 20.265000000000004 22.821 20.561000000000003 22.623 20.857000000000003 C 22.327 21.252000000000002 22.228 21.647000000000002 22.228 22.141000000000002 C 22.228 22.734 22.426000000000002 23.326 22.92 23.722 C 23.315 24.216 23.908 24.414 24.501 24.414 Z M 13.337 35.28 C 13.436 32.316 15.708 30.242 18.474 30.242 C 18.77 30.242 19.166 30.242 19.462 30.341 L 19.462 26.488 C 19.166 26.488 18.77 26.389 18.474 26.389 C 12.448 26.389 9.287 31.032 9.287 35.478 L 9.287 43.875 L 13.436 43.875 L 13.337 35.28 Z M 8.298 26.192 L 4.05 26.192 L 4.05 20.956 L 0 20.956 L 0 43.875 L 4.05 43.875 L 4.05 30.341 L 8.298 30.341 L 8.298 26.192 Z M 87.133 26.192 L 82.88499999999999 26.192 L 82.88499999999999 20.956 L 78.835 20.956 L 78.835 43.875 L 82.88499999999999 43.875 L 82.88499999999999 30.341 L 87.133 30.341 L 87.133 26.192 Z" stroke-linecap="round" />
</g>
<g transform="matrix(0.84 0 0 0.84 123.83 14.59)"  >
<path style="stroke: none; stroke-width: 1; stroke-dasharray: none; stroke-linecap: butt; stroke-dashoffset: 0; stroke-linejoin: miter; stroke-miterlimit: 4; fill: rgb(88,179,205); fill-rule: nonzero; opacity: 1;" vector-effect="non-scaling-stroke"  transform=" translate(-142.21, -16.24)" d="M 142.554 16.708 L 142.554 15.818999999999999 L 147.987 15.818999999999999 C 147.887286039404 14.437831950926254 147.290859674906 13.139476761980328 146.308 12.164 C 145.41899999999998 11.275 144.135 10.682 142.85 10.485 C 141.566 10.386 140.183 10.683 139.096 11.373999999999999 C 138.00900000000001 12.064999999999998 137.12 13.152 136.725 14.338 C 136.32999999999998 15.524 136.32999999999998 16.907 136.725 18.191 C 137.219 19.375999999999998 138.009 20.462999999999997 139.195 21.154999999999998 C 140.28199999999998 21.846999999999998 141.665 22.142999999999997 142.94899999999998 21.944999999999997 C 144.23299999999998 21.746999999999996 145.41899999999998 21.154999999999998 146.308 20.166999999999998 C 147.197 19.179 147.79 17.994 147.88899999999998 16.708999999999996 L 142.55399999999997 16.708999999999996 Z" stroke-linecap="round" />
</g>
<g transform="matrix(0.84 0 0 0.84 115.23 23.16)"  >
<path style="stroke: none; stroke-width: 1; stroke-dasharray: none; stroke-linecap: butt; stroke-dashoffset: 0; stroke-linejoin: miter; stroke-miterlimit: 4; fill: rgb(26,185,109); fill-rule: nonzero; opacity: 1;" vector-effect="non-scaling-stroke"  transform=" translate(-131.96, -26.44)" d="M 131.489 26.784 L 132.37800000000001 26.784 L 132.37800000000001 32.217 C 133.75916804907376 32.117286039403986 135.05752323801968 31.52085967490598 136.03300000000002 30.538 C 136.92200000000003 29.649 137.51500000000001 28.365000000000002 137.71200000000002 27.08 C 137.811 25.796 137.514 24.412999999999997 136.823 23.325999999999997 C 136.131 22.238999999999997 135.04500000000002 21.349999999999998 133.859 20.955 C 132.60503842558285 20.559993861475565 131.25996157441716 20.559993861475565 130.006 20.955 C 128.821 21.448999999999998 127.734 22.238999999999997 127.042 23.424999999999997 C 126.35000000000001 24.511999999999997 126.054 25.894999999999996 126.252 27.179 C 126.44999999999999 28.463 127.042 29.648999999999997 128.03 30.537999999999997 C 129.018 31.426999999999996 130.203 32.019999999999996 131.488 32.119 L 131.488 26.784 Z" stroke-linecap="round" />
</g>
<g transform="matrix(0.84 0 0 0.84 115.2 5.82)"  >
<path style="stroke: none; stroke-width: 1; stroke-dasharray: none; stroke-linecap: butt; stroke-dashoffset: 0; stroke-linejoin: miter; stroke-miterlimit: 4; fill: rgb(1,10,89); fill-rule: nonzero; opacity: 1;" vector-effect="non-scaling-stroke"  transform=" translate(-131.93, -5.78)" d="M 132.378 5.94 L 131.68599999999998 5.248 L 135.539 1.395 C 134.452 0.40700000000000003 132.97 -0.08699999999999997 131.48899999999998 0.01200000000000001 C 130.01076873820466 0.11774991086006036 128.63045197265143 0.7901751818030736 127.63599999999998 1.8889999999999993 C 126.64799999999998 2.976 126.05499999999998 4.458 126.15399999999998 5.939 C 126.25299999999999 7.42 126.74699999999999 8.804 127.83299999999998 9.891 C 128.92 10.978 130.303 11.57 131.785 11.57 C 133.267 11.57 134.749 11.076 135.835 10.088000000000001 C 136.92100000000002 9.100000000000001 137.613 7.7170000000000005 137.71200000000002 6.235000000000001 C 137.811 4.753000000000001 137.317 3.2710000000000012 136.329 2.1850000000000014 L 132.377 5.939000000000002 Z" stroke-linecap="round" />
</g>
<g transform="matrix(1 0 0 1 176.91 29.84)" style=""  >
		<text xml:space="preserve" font-family="Lato" font-size="22" font-style="normal" font-weight="700" style="stroke: none; stroke-width: 1; stroke-dasharray: none; stroke-linecap: butt; stroke-dashoffset: 0; stroke-linejoin: miter; stroke-miterlimit: 4; fill: rgb(0,0,0); fill-rule: nonzero; opacity: 1; white-space: pre;" ><tspan x="-47.97" y="6.91" >Data Sync</tspan></text>
</g>
</svg>