<svg xmlns="http://www.w3.org/2000/svg" viewBox="0 0 300 45">
	<title>Tripletex logo</title>
	
	<g transform="matrix(1 0 0 0.9 1 0)">
		<path fill="#0f131a" d="M76.167 34.194c-.494-2.964-1.976-5.335-4.544-6.816-.988-.593-2.173-.889-3.359-1.087-1.185-.099-2.371 0-3.458.296-4.939 1.383-7.409 6.619-6.026 11.163.296 1.087.889 2.173 1.581 3.161.692.889 1.679 1.679 2.667 2.272.988.593 2.173.889 3.359 1.087 1.185.099 2.371 0 3.458-.296 1.679-.494 3.161-1.383 4.248-2.766 1.185-1.482 1.877-3.26 2.173-5.038l-4.05 1.185c-.395 1.581-1.383 2.766-3.26 3.359-2.272.692-4.939-.099-5.927-2.667l13.139-3.853Zm-13.929.79c-.296-1.581.692-4.149 3.556-5.038 2.865-.889 5.137.79 5.73 2.371l-9.286 2.667ZM105.507 34.194c-.494-2.964-1.976-5.335-4.544-6.816-.988-.593-2.173-.889-3.359-1.087-1.185-.099-2.371 0-3.458.296-4.939 1.383-7.409 6.619-6.026 11.163.296 1.185.889 2.173 1.581 3.161.692.889 1.679 1.679 2.667 2.272s2.173.889 3.359 1.087c1.185.099 2.371 0 3.458-.296 1.679-.494 3.161-1.383 4.248-2.766 1.185-1.482 1.877-3.26 2.173-5.038l-4.05 1.185c-.395 1.581-1.383 2.766-3.26 3.359-2.272.692-4.939-.099-5.927-2.667l13.139-3.853Zm-13.929.79c-.296-1.581.692-4.149 3.556-5.038s5.137.79 5.73 2.371l-9.286 2.667ZM105.409 44.073h4.939l3.853-5.829 3.853 5.829h4.939l-6.323-8.99 5.73-8.002h-4.841l-3.359 5.236-3.359-5.236h-4.939l5.73 8.002-6.224 8.99ZM48.605 35.379c0 4.347-3.161 8.99-9.089 8.99-1.778 0-3.458-.494-5.038-1.383V50h-4.05V35.379c0-4.347 3.161-8.99 9.089-8.99s9.089 4.643 9.089 8.99Zm-4.05 0c0-2.964-2.272-5.236-5.038-5.236s-4.939 2.075-5.038 4.939v.889c.099 1.284.692 2.371 1.581 3.26s2.173 1.284 3.359 1.284c2.865.099 5.137-2.173 5.137-5.137M55.125 20.956h-3.754v22.919h4.05V20.956h-.296ZM22.524 26.883h4.05v16.992h-4.05V26.883Zm1.976-2.47c.494 0 .889-.099 1.284-.395s.692-.593.79-.988c.198-.395.198-.889.099-1.284s-.296-.79-.593-1.185c-.296-.296-.692-.494-1.185-.593-.395-.099-.889 0-1.284.099-.395.198-.79.494-.988.79-.296.395-.395.79-.395 1.284 0 .593.198 1.185.692 1.581.395.494.988.692 1.581.692ZM13.337 35.28c.099-2.964 2.371-5.038 5.137-5.038.296 0 .692 0 .988.099v-3.853c-.296 0-.692-.099-.988-.099-6.026 0-9.187 4.643-9.187 9.089v8.397h4.149l-.099-8.595ZM8.298 26.192H4.05v-5.236H0v22.919h4.05V30.341h4.248v-4.149ZM87.133 26.192h-4.248v-5.236h-4.05v22.919h4.05V30.341h4.248v-4.149Z"/>
		<path fill="#58b3cd" d="M142.554 16.708v-.889h5.433a5.731 5.731 0 0 0-1.679-3.655c-.889-.889-2.173-1.482-3.458-1.679-1.284-.099-2.667.198-3.754.889s-1.976 1.778-2.371 2.964-.395 2.569 0 3.853c.494 1.185 1.284 2.272 2.47 2.964 1.087.692 2.47.988 3.754.79s2.47-.79 3.359-1.778 1.482-2.173 1.581-3.458h-5.335Z"/>
		<path fill="#1ab96d" d="M131.489 26.784h.889v5.433a5.731 5.731 0 0 0 3.655-1.679c.889-.889 1.482-2.173 1.679-3.458.099-1.284-.198-2.667-.889-3.754-.692-1.087-1.778-1.976-2.964-2.371a6.412 6.412 0 0 0-3.853 0c-1.185.494-2.272 1.284-2.964 2.47-.692 1.087-.988 2.47-.79 3.754s.79 2.47 1.778 3.359 2.173 1.482 3.458 1.581v-5.335Z"/>
		<path fill="#010a59" d="m132.378 5.94-.692-.692 3.853-3.853c-1.087-.988-2.569-1.482-4.05-1.383a5.75 5.75 0 0 0-3.853 1.877c-.988 1.087-1.581 2.569-1.482 4.05s.593 2.865 1.679 3.952c1.087 1.087 2.47 1.679 3.952 1.679s2.964-.494 4.05-1.482 1.778-2.371 1.877-3.853c.099-1.482-.395-2.964-1.383-4.05l-3.952 3.754Z"/>
	</g>
	
	<g transform="matrix(1 0 0 1 -45 10)" fill="#0f131a" >
		<text x="200" y="29" font-weight="700" font-family="Barlow, sans-serif">
			DataSync
		</text>
	</g>
</svg>