<?xml version="1.0" encoding="UTF-8"?>
<!-- Generated by Pixelmator Pro 3.4.2 -->
<svg width="2247" height="546" viewBox="0 0 2247 546" xmlns="http://www.w3.org/2000/svg">
    <path id="Rounded-Rectangle" fill="#009fdc" fill-rule="evenodd" stroke="none" d="M 1652 311 L 2247 311 L 2247 0 L 1652 0 Z"/>
    <path id="Making-Wave-Talk" fill="#000000" fill-rule="evenodd" stroke="none" d="M 1235.800781 251.304688 C 1220.824707 251.304688 1208.727783 247.655426 1199.511719 240.359375 C 1190.295654 233.063354 1185.6875 222.311584 1185.6875 208.103516 C 1185.6875 193.319427 1190.872192 181.847565 1201.240234 173.6875 C 1211.608276 165.527466 1226.391602 161.447266 1245.591797 161.447266 L 1274.96875 161.447266 C 1275.928711 161.447266 1276.408203 160.967834 1276.408203 160.007813 L 1276.408203 153.671875 C 1276.408203 147.335846 1274.488525 142.391876 1270.648438 138.839844 C 1266.808472 135.287842 1261.047241 133.511719 1253.367188 133.511719 C 1247.415161 133.511719 1242.471191 134.567688 1238.535156 136.679688 C 1234.599121 138.791718 1232.056274 141.767395 1230.904297 145.607422 C 1230.328247 147.719421 1229.080078 148.680267 1227.160156 148.488281 L 1192.3125 143.880859 C 1190.008423 143.496857 1188.952515 142.631134 1189.144531 141.287109 C 1189.912476 133.223083 1193.128906 125.928436 1198.792969 119.400391 C 1204.457031 112.872375 1211.943848 107.78476 1221.255859 104.136719 C 1230.567871 100.488708 1240.983765 98.664063 1252.503906 98.664063 C 1264.983887 98.664063 1276.120117 100.824493 1285.912109 105.144531 C 1295.704224 109.464539 1303.336548 115.367432 1308.808594 122.855469 C 1314.28064 130.343506 1317.015625 138.696075 1317.015625 147.912109 L 1317.015625 245.544922 C 1317.015625 246.504913 1316.67981 247.32019 1316.007813 247.992188 C 1315.335693 248.664185 1314.520508 249 1313.560547 249 L 1279.863281 249 C 1278.90332 249 1278.088013 248.664185 1277.416016 247.992188 C 1276.744019 247.32019 1276.408203 246.504913 1276.408203 245.544922 L 1276.408203 236.039063 C 1276.408203 235.463043 1276.215942 235.080658 1275.832031 234.888672 C 1275.447998 234.696655 1275.063599 234.888855 1274.679688 235.464844 C 1266.615601 246.024902 1253.65686 251.304688 1235.800781 251.304688 Z M 1551.160156 251.304688 C 1534.648071 251.304688 1520.679932 247.560303 1509.255859 240.072266 C 1497.831787 232.584229 1489.624878 222.119751 1484.632813 208.679688 C 1480.60083 199.079651 1478.583984 186.503235 1478.583984 170.951172 C 1478.583984 160.391113 1480.02417 151.079681 1482.904297 143.015625 C 1487.320313 129.383575 1495.047852 118.536713 1506.087891 110.472656 C 1517.12793 102.40863 1530.2323 98.376953 1545.400391 98.376953 C 1564.600464 98.376953 1580.008911 103.944031 1591.625 115.080078 C 1603.241089 126.216156 1610.296997 141.096649 1612.792969 159.720703 C 1613.944946 167.016724 1614.327393 175.175171 1613.943359 184.199219 C 1613.751343 186.503204 1612.503296 187.65625 1610.199219 187.65625 L 1521.207031 187.65625 C 1520.055054 187.65625 1519.672607 188.135681 1520.056641 189.095703 C 1520.632568 192.935699 1521.688599 196.775208 1523.224609 200.615234 C 1528.216675 211.367279 1538.391968 216.744141 1553.751953 216.744141 C 1566.040039 216.552155 1575.73584 211.559631 1582.839844 201.767578 C 1583.60791 200.61557 1584.47168 200.039063 1585.431641 200.039063 C 1586.00769 200.039063 1586.679321 200.423431 1587.447266 201.191406 L 1608.183594 221.640625 C 1609.143677 222.600616 1609.625 223.464417 1609.625 224.232422 C 1609.625 224.616425 1609.240601 225.383148 1608.472656 226.535156 C 1602.136597 234.407196 1593.976318 240.504181 1583.992188 244.824219 C 1574.008179 249.144226 1563.064209 251.304688 1551.160156 251.304688 Z M 1005.400391 249 C 1003.28833 249 1001.943237 248.039154 1001.367188 246.119141 L 950.392578 51.144531 L 950.103516 49.992188 C 950.103516 48.26416 951.159485 47.400391 953.271484 47.400391 L 988.984375 47.400391 C 990.904358 47.400391 992.152466 48.359283 992.728516 50.279297 L 1020.087891 167.496094 C 1020.279907 168.264099 1020.567139 168.648438 1020.951172 168.648438 C 1021.335144 168.648438 1021.624451 168.264099 1021.816406 167.496094 L 1048.3125 50.568359 C 1048.88855 48.45636 1050.136597 47.400391 1052.056641 47.400391 L 1086.904297 47.400391 C 1089.016235 47.400391 1090.359497 48.359283 1090.935547 50.279297 L 1119.736328 167.496094 C 1119.928345 168.072083 1120.215576 168.407898 1120.599609 168.503906 C 1120.983643 168.599915 1121.272827 168.264099 1121.464844 167.496094 L 1147.960938 50.568359 C 1148.536987 48.45636 1149.783081 47.400391 1151.703125 47.400391 L 1185.6875 47.400391 C 1188.375488 47.400391 1189.431519 48.648499 1188.855469 51.144531 L 1141.625 246.119141 C 1141.04895 248.039154 1139.703735 249 1137.591797 249 L 1103.320313 249 C 1101.400391 249 1100.1521 248.039154 1099.576172 246.119141 L 1070.199219 121.416016 C 1070.007324 120.648041 1069.719849 120.263672 1069.335938 120.263672 C 1068.951904 120.263672 1068.664551 120.648041 1068.472656 121.416016 L 1041.111328 245.832031 C 1040.727295 247.944031 1039.479126 249 1037.367188 249 L 1005.400391 249 Z M 1382.679688 249 C 1380.759644 249 1379.511475 248.039154 1378.935547 246.119141 L 1332.855469 104.712891 C 1332.663452 104.328888 1332.568359 103.847473 1332.568359 103.271484 C 1332.568359 101.543488 1333.62439 100.679688 1335.736328 100.679688 L 1372.888672 100.679688 C 1375.000732 100.679688 1376.343872 101.640533 1376.919922 103.560547 L 1400.535156 190.824219 C 1400.727173 191.400208 1401.016357 191.6875 1401.400391 191.6875 C 1401.784424 191.6875 1402.071655 191.400208 1402.263672 190.824219 L 1425.880859 103.560547 C 1426.456909 101.640533 1427.800171 100.679688 1429.912109 100.679688 L 1467.064453 101.255859 C 1468.216553 101.255859 1469.0802 101.591675 1469.65625 102.263672 C 1470.2323 102.935669 1470.327393 103.943115 1469.943359 105.287109 L 1424.152344 246.119141 C 1423.576416 248.039154 1422.328247 249 1420.408203 249 L 1382.679688 249 Z M 1246.744141 221.064453 C 1255.000122 221.064453 1262.007568 218.855469 1267.767578 214.439453 C 1273.52771 210.023438 1276.408203 204.359314 1276.408203 197.447266 L 1276.408203 187.080078 C 1276.408203 186.120087 1275.928711 185.640625 1274.96875 185.640625 L 1254.232422 185.640625 C 1245.592285 185.640625 1238.82373 187.271118 1233.927734 190.535156 C 1229.031738 193.799164 1226.583984 198.407349 1226.583984 204.359375 C 1226.583984 209.543427 1228.408569 213.623596 1232.056641 216.599609 C 1235.70459 219.575623 1240.600098 221.064453 1246.744141 221.064453 Z M 1521.207031 161.160156 L 1571.03125 161.160156 C 1572.183228 161.160156 1572.567627 160.680695 1572.183594 159.720703 C 1571.223633 154.152679 1570.744141 151.464233 1570.744141 151.65625 C 1569.016113 145.89621 1565.991943 141.431671 1561.671875 138.263672 C 1557.351807 135.095642 1552.02356 133.511719 1545.6875 133.511719 C 1533.591431 133.511719 1525.623169 139.175842 1521.783203 150.503906 C 1521.015137 152.999908 1520.343628 156.072693 1519.767578 159.720703 C 1519.767578 160.680695 1520.24707 161.160156 1521.207031 161.160156 Z M 830.872009 104.424011 C 830.872009 103.463989 831.208008 102.64801 831.880005 101.976013 C 832.552002 101.303986 833.367981 100.967987 834.328003 100.967987 L 868.023987 100.967987 C 868.984009 100.967987 869.799988 101.303986 870.471985 101.976013 C 871.143982 102.64801 871.47998 103.463989 871.47998 104.424011 L 871.47998 235.752014 C 871.47998 260.904114 864.232056 278.855957 849.736023 289.608002 C 835.239929 300.360046 816.568115 305.735992 793.719971 305.735992 C 786.999939 305.735992 779.512024 305.256012 771.255981 304.296021 C 769.335999 304.104004 768.375977 302.856018 768.375977 300.552002 L 769.528015 270.888 C 769.528015 268.391998 770.872009 267.335999 773.559998 267.720001 C 780.472046 268.872009 786.807983 269.447998 792.567993 269.447998 C 804.856079 269.447998 814.311951 266.76004 820.935974 261.384003 C 827.560059 256.007965 830.872009 247.368073 830.872009 235.463989 C 830.872009 234.888 830.679993 234.552002 830.296021 234.455994 C 829.911987 234.359985 829.528015 234.503998 829.143982 234.888 C 821.847961 242.76004 811.192078 246.696014 797.176025 246.696014 C 784.695923 246.696014 773.22406 243.672028 762.76001 237.623993 C 752.295959 231.575958 744.856018 221.832062 740.440002 208.391998 C 737.559998 199.559967 736.119995 188.136078 736.119995 174.119995 C 736.119995 159.143921 737.847961 146.952057 741.304016 137.544006 C 745.335999 125.83194 752.151978 116.424042 761.752014 109.320007 C 771.352051 102.215973 782.487915 98.664001 795.159973 98.664001 C 809.944092 98.664001 821.271973 103.079956 829.143982 111.911987 C 829.528015 112.29599 829.911987 112.440002 830.296021 112.343994 C 830.679993 112.247986 830.872009 111.912018 830.872009 111.335999 L 830.872009 104.424011 Z M 828.567993 197.447998 C 830.104004 191.687958 830.872009 183.81604 830.872009 173.832001 C 830.872009 167.879974 830.679993 163.272003 830.296021 160.007996 C 829.911987 156.743988 829.23999 153.672028 828.280029 150.791992 C 826.552002 145.607971 823.671997 141.432007 819.640015 138.264008 C 815.607971 135.095978 810.616028 133.511993 804.664001 133.511993 C 798.903992 133.511993 794.007996 135.095978 789.976013 138.264008 C 785.94397 141.432007 782.968018 145.607971 781.047974 150.791992 C 778.359985 156.552032 777.015991 164.327942 777.015991 174.119995 C 777.015991 184.87204 778.167969 192.551971 780.471985 197.160004 C 782.200012 202.344025 785.223999 206.519989 789.544006 209.687988 C 793.864014 212.856018 799 214.440002 804.952026 214.440002 C 811.096008 214.440002 816.18396 212.856018 820.216003 209.687988 C 824.248047 206.519989 827.031982 202.440033 828.567993 197.447998 Z M 660.088013 98.664001 C 675.448059 98.664001 687.83197 103.36795 697.23999 112.776001 C 706.648071 122.184052 711.35199 134.951904 711.35199 151.079987 L 711.35199 245.544006 C 711.35199 246.503998 711.015991 247.320007 710.343994 247.992004 C 709.671997 248.664001 708.856018 249 707.895996 249 L 674.200012 249 C 673.23999 249 672.424011 248.664001 671.752014 247.992004 C 671.080017 247.320007 670.744019 246.503998 670.744019 245.544006 L 670.744019 159.432007 C 670.744019 151.751953 668.584045 145.512024 664.263977 140.712006 C 659.94397 135.911987 654.232056 133.511993 647.127991 133.511993 C 640.023987 133.511993 634.312012 135.911987 629.992004 140.712006 C 625.671997 145.512024 623.512024 151.751953 623.512024 159.432007 L 623.512024 245.544006 C 623.512024 246.503998 623.176025 247.320007 622.504028 247.992004 C 621.83197 248.664001 621.015991 249 620.05603 249 L 586.359985 249 C 585.400024 249 584.583984 248.664001 583.911987 247.992004 C 583.23999 247.320007 582.903992 246.503998 582.903992 245.544006 L 582.903992 104.424011 C 582.903992 103.463989 583.23999 102.64801 583.911987 101.976013 C 584.583984 101.303986 585.400024 100.967987 586.359985 100.967987 L 620.05603 100.967987 C 621.015991 100.967987 621.83197 101.303986 622.504028 101.976013 C 623.176025 102.64801 623.512024 103.463989 623.512024 104.424011 L 623.512024 114.503998 C 623.512024 115.080017 623.703979 115.463989 624.088013 115.656006 C 624.471985 115.847992 624.76001 115.752014 624.952026 115.368011 C 632.824036 104.231934 644.53595 98.664001 660.088013 98.664001 Z M 531.35199 84.264008 C 524.823975 84.264008 519.400024 82.104034 515.080017 77.783997 C 510.759979 73.463989 508.600006 68.040039 508.600006 61.511993 C 508.600006 54.791962 510.711975 49.320007 514.935974 45.096008 C 519.160034 40.871979 524.631958 38.76001 531.35199 38.76001 C 538.072021 38.76001 543.544006 40.871979 547.768005 45.096008 C 551.992004 49.320007 554.104004 54.791962 554.104004 61.511993 C 554.104004 68.040039 551.944031 73.463989 547.624023 77.783997 C 543.303955 82.104034 537.880005 84.264008 531.35199 84.264008 Z M 514.072021 249 C 513.112 249 512.296021 248.664001 511.623993 247.992004 C 510.951996 247.320007 510.615997 246.503998 510.615997 245.544006 L 510.615997 104.135986 C 510.615997 103.175995 510.951996 102.360016 511.623993 101.687988 C 512.296021 101.015991 513.112 100.679993 514.072021 100.679993 L 547.768005 100.679993 C 548.728027 100.679993 549.544006 101.015991 550.216003 101.687988 C 550.888 102.360016 551.223999 103.175995 551.223999 104.135986 L 551.223999 245.544006 C 551.223999 246.503998 550.888 247.320007 550.216003 247.992004 C 549.544006 248.664001 548.728027 249 547.768005 249 L 514.072021 249 Z M 359.415985 249 C 358.455994 249 357.640015 248.664001 356.967987 247.992004 C 356.29599 247.320007 355.959991 246.503998 355.959991 245.544006 L 355.959991 50.855988 C 355.959991 49.895996 356.29599 49.080017 356.967987 48.40799 C 357.640015 47.735992 358.455994 47.399994 359.415985 47.399994 L 393.112 47.399994 C 394.071991 47.399994 394.888 47.735992 395.559998 48.40799 C 396.231995 49.080017 396.567993 49.895996 396.567993 50.855988 L 396.567993 147.911987 C 396.567993 148.488007 396.76001 148.824005 397.144012 148.920013 C 397.528015 149.015991 397.911987 148.872009 398.29599 148.488007 L 437.463989 102.984009 C 438.808014 101.639984 440.247986 100.967987 441.783997 100.967987 L 480.088013 100.967987 C 482.007996 100.967987 482.967987 101.639984 482.967987 102.984009 C 482.967987 103.559998 482.679993 104.328003 482.104004 105.287994 L 445.528015 151.656006 C 445.144012 152.424011 445.048004 153.096008 445.23999 153.671997 L 488.152008 244.967987 C 488.536011 245.735992 488.727997 246.312012 488.727997 246.696014 C 488.727997 248.231995 487.671997 249 485.559998 249 L 450.135986 249 C 448.216003 249 446.872009 248.136017 446.104004 246.40799 L 417.59201 179.015991 C 417.399994 178.631989 417.063995 178.391998 416.584015 178.29599 C 416.104004 178.200012 415.768005 178.343994 415.575989 178.727997 L 397.144012 201.768005 C 396.76001 202.536011 396.567993 203.112 396.567993 203.496002 L 396.567993 245.544006 C 396.567993 246.503998 396.231995 247.320007 395.559998 247.992004 C 394.888 248.664001 394.071991 249 393.112 249 L 359.415985 249 Z M 262.936005 98.664001 C 275.416077 98.664001 286.551941 100.823975 296.343994 105.144012 C 306.136047 109.46402 313.767975 115.36795 319.23999 122.855988 C 324.712036 130.344025 327.447998 138.695953 327.447998 147.911987 L 327.447998 245.544006 C 327.447998 246.503998 327.112 247.320007 326.440002 247.992004 C 325.768005 248.664001 324.951996 249 323.992004 249 L 290.29599 249 C 289.335999 249 288.519989 248.664001 287.847992 247.992004 C 287.175995 247.320007 286.839996 246.503998 286.839996 245.544006 L 286.839996 236.040009 C 286.839996 235.463989 286.64801 235.079987 286.264008 234.888 C 285.880005 234.695984 285.496002 234.888 285.112 235.463989 C 277.047974 246.024048 264.088104 251.303986 246.231995 251.303986 C 231.25592 251.303986 219.160049 247.656036 209.944 240.359985 C 200.727951 233.063965 196.119995 222.312073 196.119995 208.104004 C 196.119995 193.319916 201.303955 181.848053 211.671997 173.687988 C 222.040054 165.527954 236.823898 161.447998 256.023987 161.447998 L 285.399994 161.447998 C 286.360016 161.447998 286.839996 160.968018 286.839996 160.007996 L 286.839996 153.671997 C 286.839996 147.335968 284.920013 142.392029 281.079987 138.839996 C 277.23999 135.287994 271.480042 133.511993 263.799988 133.511993 C 257.847961 133.511993 252.904022 134.567993 248.968002 136.679993 C 245.031982 138.792023 242.488007 141.767975 241.335999 145.608002 C 240.759995 147.720001 239.512009 148.679993 237.591995 148.488007 L 202.744003 143.880005 C 200.439987 143.496002 199.384003 142.632019 199.576004 141.287994 C 200.344009 133.223969 203.559967 125.92804 209.223999 119.399994 C 214.888031 112.871979 222.375946 107.784027 231.688004 104.135986 C 241.000046 100.487976 251.415939 98.664001 262.936005 98.664001 Z M 257.175995 221.063995 C 265.432037 221.063995 272.439972 218.856018 278.200012 214.440002 C 283.960022 210.023987 286.839996 204.360046 286.839996 197.447998 L 286.839996 187.079987 C 286.839996 186.119995 286.360016 185.640015 285.399994 185.640015 L 264.664001 185.640015 C 256.023956 185.640015 249.256027 187.271973 244.360001 190.536011 C 239.463974 193.800018 237.016006 198.407959 237.016006 204.359985 C 237.016006 209.544037 238.839981 213.623993 242.488007 216.600006 C 246.136017 219.576019 251.031967 221.063995 257.175995 221.063995 Z M 130.167999 49.70401 C 131.128006 48.167999 132.471985 47.399994 134.199997 47.399994 L 167.895996 47.399994 C 168.856003 47.399994 169.671997 47.735992 170.343994 48.40799 C 171.016006 49.080017 171.352005 49.895996 171.352005 50.855988 L 171.352005 245.544006 C 171.352005 246.503998 171.016006 247.320007 170.343994 247.992004 C 169.671997 248.664001 168.856003 249 167.895996 249 L 134.199997 249 C 133.23999 249 132.423996 248.664001 131.751999 247.992004 C 131.080002 247.320007 130.744003 246.503998 130.744003 245.544006 L 130.744003 118.536011 C 130.744003 117.768005 130.552002 117.384003 130.167999 117.384003 C 129.783997 117.384003 129.400009 117.671997 129.016006 118.247986 L 98.487999 166.056 C 97.527992 167.59201 96.184006 168.359985 94.456001 168.359985 L 77.463997 168.359985 C 75.735992 168.359985 74.392006 167.59201 73.431999 166.056 L 42.903999 118.247986 C 42.519997 117.671997 42.136002 117.432007 41.751999 117.528015 C 41.367996 117.623993 41.175999 118.056 41.175999 118.824005 L 41.175999 245.544006 C 41.175999 246.503998 40.840004 247.320007 40.167999 247.992004 C 39.495998 248.664001 38.680004 249 37.720001 249 L 4.024 249 C 3.063995 249 2.248003 248.664001 1.576 247.992004 C 0.903997 247.320007 0.568 246.503998 0.568 245.544006 L 0.568 50.855988 C 0.568 49.895996 0.903997 49.080017 1.576 48.40799 C 2.248003 47.735992 3.063995 47.399994 4.024 47.399994 L 37.720001 47.399994 C 39.448009 47.399994 40.791996 48.167999 41.751999 49.70401 L 84.952003 116.808014 C 85.528 117.959991 86.103996 117.959991 86.68 116.808014 L 130.167999 49.70401 Z"/>
    <path id="Shape" fill="#ffffff" fill-rule="evenodd" stroke="none" d="M 2081.080078 249 C 2080.120117 249 2079.303955 248.664001 2078.63208 247.992004 C 2077.959961 247.320007 2077.624023 246.503998 2077.624023 245.544006 L 2077.624023 50.855988 C 2077.624023 49.895996 2077.959961 49.080017 2078.63208 48.40799 C 2079.303955 47.735992 2080.120117 47.399994 2081.080078 47.399994 L 2114.775879 47.399994 C 2115.736084 47.399994 2116.552002 47.735992 2117.224121 48.40799 C 2117.895996 49.080017 2118.231934 49.895996 2118.231934 50.855988 L 2118.231934 147.911987 C 2118.231934 148.488007 2118.424072 148.824005 2118.808105 148.920013 C 2119.191895 149.015991 2119.575928 148.872009 2119.959961 148.488007 L 2159.12793 102.984009 C 2160.471924 101.639984 2161.912109 100.967987 2163.447998 100.967987 L 2201.751953 100.967987 C 2203.672119 100.967987 2204.63208 101.639984 2204.63208 102.984009 C 2204.63208 103.559998 2204.343994 104.328003 2203.768066 105.287994 L 2167.191895 151.656006 C 2166.808105 152.424011 2166.711914 153.096008 2166.904053 153.671997 L 2209.815918 244.967987 C 2210.199951 245.735992 2210.39209 246.312012 2210.39209 246.696014 C 2210.39209 248.231995 2209.335938 249 2207.224121 249 L 2171.800049 249 C 2169.879883 249 2168.535889 248.136017 2167.768066 246.40799 L 2139.256104 179.015991 C 2139.063965 178.631989 2138.728027 178.391998 2138.248047 178.29599 C 2137.768066 178.200012 2137.431885 178.343994 2137.23999 178.727997 L 2118.808105 201.768005 C 2118.424072 202.536011 2118.231934 203.112 2118.231934 203.496002 L 2118.231934 245.544006 C 2118.231934 246.503998 2117.895996 247.320007 2117.224121 247.992004 C 2116.552002 248.664001 2115.736084 249 2114.775879 249 L 2081.080078 249 Z M 2010.232056 249 C 2009.271973 249 2008.456055 248.664001 2007.784058 247.992004 C 2007.111938 247.320007 2006.776001 246.503998 2006.776001 245.544006 L 2006.776001 50.855988 C 2006.776001 49.895996 2007.111938 49.080017 2007.784058 48.40799 C 2008.456055 47.735992 2009.271973 47.399994 2010.232056 47.399994 L 2043.927979 47.399994 C 2044.888062 47.399994 2045.703979 47.735992 2046.375977 48.40799 C 2047.047974 49.080017 2047.384033 49.895996 2047.384033 50.855988 L 2047.384033 245.544006 C 2047.384033 246.503998 2047.047974 247.320007 2046.375977 247.992004 C 2045.703979 248.664001 2044.888062 249 2043.927979 249 L 2010.232056 249 Z M 1913.751953 98.664001 C 1926.232056 98.664001 1937.36792 100.823975 1947.160034 105.144012 C 1956.952026 109.46402 1964.583984 115.36795 1970.05603 122.855988 C 1975.528076 130.344025 1978.264038 138.695953 1978.264038 147.911987 L 1978.264038 245.544006 C 1978.264038 246.503998 1977.927979 247.320007 1977.255981 247.992004 C 1976.583984 248.664001 1975.767944 249 1974.807983 249 L 1941.112061 249 C 1940.151978 249 1939.33606 248.664001 1938.66394 247.992004 C 1937.991943 247.320007 1937.656006 246.503998 1937.656006 245.544006 L 1937.656006 236.040009 C 1937.656006 235.463989 1937.463989 235.079987 1937.079956 234.888 C 1936.696045 234.695984 1936.312012 234.888 1935.927979 235.463989 C 1927.864014 246.024048 1914.904053 251.303986 1897.047974 251.303986 C 1882.071899 251.303986 1869.976074 247.656036 1860.76001 240.359985 C 1851.543945 233.063965 1846.936035 222.312073 1846.936035 208.104004 C 1846.936035 193.319916 1852.119995 181.848053 1862.488037 173.687988 C 1872.856079 165.527954 1887.639893 161.447998 1906.839966 161.447998 L 1936.215942 161.447998 C 1937.176025 161.447998 1937.656006 160.968018 1937.656006 160.007996 L 1937.656006 153.671997 C 1937.656006 147.335968 1935.735962 142.392029 1931.895996 138.839996 C 1928.05603 135.287994 1922.296021 133.511993 1914.615967 133.511993 C 1908.66394 133.511993 1903.719971 134.567993 1899.784058 136.679993 C 1895.848022 138.792023 1893.303955 141.767975 1892.151978 145.608002 C 1891.57605 147.720001 1890.328003 148.679993 1888.407959 148.488007 L 1853.560059 143.880005 C 1851.255981 143.496002 1850.199951 142.632019 1850.391968 141.287994 C 1851.160034 133.223969 1854.375977 125.92804 1860.040039 119.399994 C 1865.703979 112.871979 1873.191895 107.784027 1882.504028 104.135986 C 1891.81604 100.487976 1902.231934 98.664001 1913.751953 98.664001 Z M 1907.991943 221.063995 C 1916.248047 221.063995 1923.255981 218.856018 1929.015991 214.440002 C 1934.776001 210.023987 1937.656006 204.360046 1937.656006 197.447998 L 1937.656006 187.079987 C 1937.656006 186.119995 1937.176025 185.640015 1936.215942 185.640015 L 1915.47998 185.640015 C 1906.839966 185.640015 1900.072021 187.271973 1895.176025 190.536011 C 1890.280029 193.800018 1887.832031 198.407959 1887.832031 204.359985 C 1887.832031 209.544037 1889.656006 213.623993 1893.303955 216.600006 C 1896.952026 219.576019 1901.848022 221.063995 1907.991943 221.063995 Z M 1838.296021 47.399994 C 1839.255981 47.399994 1840.072021 47.735992 1840.744019 48.40799 C 1841.416016 49.080017 1841.751953 49.895996 1841.751953 50.855988 L 1841.751953 79.079987 C 1841.751953 80.040009 1841.416016 80.855988 1840.744019 81.528015 C 1840.072021 82.200012 1839.255981 82.536011 1838.296021 82.536011 L 1786.744019 82.536011 C 1785.783936 82.536011 1785.303955 83.015991 1785.303955 83.976013 L 1785.303955 245.544006 C 1785.303955 246.503998 1784.968018 247.320007 1784.296021 247.992004 C 1783.624023 248.664001 1782.807983 249 1781.848022 249 L 1748.151978 249 C 1747.192017 249 1746.375977 248.664001 1745.703979 247.992004 C 1745.031982 247.320007 1744.696045 246.503998 1744.696045 245.544006 L 1744.696045 83.976013 C 1744.696045 83.015991 1744.216064 82.536011 1743.255981 82.536011 L 1693.144043 82.536011 C 1692.18396 82.536011 1691.368042 82.200012 1690.696045 81.528015 C 1690.024048 80.855988 1689.687988 80.040009 1689.687988 79.079987 L 1689.687988 50.855988 C 1689.687988 49.895996 1690.024048 49.080017 1690.696045 48.40799 C 1691.368042 47.735992 1692.18396 47.399994 1693.144043 47.399994 L 1838.296021 47.399994 Z"/>
    <g id="Group">
        <path id="Powered-by" fill="#000000" fill-rule="evenodd" stroke="none" d="M 1164.5 545.849976 C 1163.799927 545.849976 1163.449951 545.349976 1163.449951 544.349976 L 1163.449951 535.5 C 1163.449951 534.5 1163.949951 534 1164.949951 534 L 1165.25 534 C 1169.25 533.900024 1172.400024 533.400024 1174.699951 532.5 C 1177 531.599976 1178.900024 529.924988 1180.400024 527.474976 C 1181.900024 525.024963 1183.349976 521.350037 1184.75 516.450012 C 1184.849976 516.349976 1184.875 516.174988 1184.824951 515.924988 C 1184.775024 515.674988 1184.75 515.549988 1184.75 515.549988 L 1159.699951 441.299988 L 1159.549927 440.700012 C 1159.549927 440 1160 439.649994 1160.900024 439.649994 L 1173.049927 439.649994 C 1173.949951 439.649994 1174.549927 440.049988 1174.849976 440.850006 L 1191.799927 497.399994 C 1191.900024 497.600006 1192.049927 497.700012 1192.25 497.700012 C 1192.449951 497.700012 1192.599976 497.600006 1192.699951 497.399994 L 1209.5 440.850006 C 1209.799927 440.049988 1210.400024 439.649994 1211.299927 439.649994 L 1223.150024 439.649994 C 1224.25 439.649994 1224.650024 440.200012 1224.349976 441.299988 L 1197.049927 521.25 C 1194.75 528.150024 1192.449951 533.274963 1190.150024 536.625 C 1187.849976 539.975037 1184.849976 542.349976 1181.150024 543.75 C 1177.449951 545.150024 1172.25 545.849976 1165.549927 545.849976 L 1164.5 545.849976 Z M 1147.549927 459.450012 C 1149.150024 464.550018 1149.949951 470.599976 1149.949951 477.600006 C 1149.949951 485.100037 1149 491.499969 1147.099976 496.799988 C 1144.900024 503.300049 1141.425049 508.324982 1136.674927 511.875 C 1131.924927 515.425049 1125.949951 517.200012 1118.75 517.200012 C 1115.25 517.200012 1112 516.5 1109 515.099976 C 1106 513.700012 1103.400024 511.75 1101.199951 509.25 C 1101 509.049988 1100.824951 509 1100.674927 509.100006 C 1100.525024 509.200012 1100.449951 509.350006 1100.449951 509.549988 L 1100.449951 514.5 C 1100.449951 515.5 1099.949951 516 1098.949951 516 L 1087.549927 516 C 1086.549927 516 1086.049927 515.5 1086.049927 514.5 L 1086.049927 412.5 C 1086.049927 411.5 1086.549927 411 1087.549927 411 L 1098.949951 411 C 1099.949951 411 1100.449951 411.5 1100.449951 412.5 L 1100.449951 445.950012 C 1100.449951 446.149994 1100.525024 446.299988 1100.674927 446.399994 C 1100.824951 446.5 1101 446.450012 1101.199951 446.25 C 1103.400024 443.75 1106.024902 441.825012 1109.074951 440.475006 C 1112.125 439.125 1115.349976 438.450012 1118.75 438.450012 C 1126.25 438.450012 1132.399902 440.299988 1137.199951 444 C 1142 447.700012 1145.449951 452.849976 1147.549927 459.450012 Z M 1131.650024 496.5 C 1134.150024 491.799988 1135.400024 485.600037 1135.400024 477.899994 C 1135.400024 469.699951 1133.800049 463.100037 1130.599976 458.100006 C 1127.699951 453.299988 1123.25 450.899994 1117.25 450.899994 C 1111.649902 450.899994 1107.400024 453.449982 1104.5 458.549988 C 1101.899902 463.150024 1100.599976 469.549957 1100.599976 477.75 C 1100.599976 485.950043 1101.799927 492.249969 1104.199951 496.649994 C 1107.199951 502.050018 1111.599976 504.75 1117.400024 504.75 C 1124 504.75 1128.75 502.000031 1131.650024 496.5 Z M 1020.350037 412.5 C 1020.350037 411.5 1020.850037 411 1021.850037 411 L 1033.25 411 C 1034.25 411 1034.75 411.5 1034.75 412.5 L 1034.75 514.5 C 1034.75 515.5 1034.25 516 1033.25 516 L 1021.850037 516 C 1020.850037 516 1020.350037 515.5 1020.350037 514.5 L 1020.350037 509.549988 C 1020.350037 509.350006 1020.275024 509.200012 1020.125061 509.100006 C 1019.975037 509 1019.800049 509.049988 1019.600037 509.25 C 1017.400024 511.75 1014.800049 513.700012 1011.800049 515.099976 C 1008.800049 516.5 1005.550049 517.200012 1002.050049 517.200012 C 994.849976 517.200012 988.875061 515.425049 984.125061 511.875 C 979.375 508.324982 975.900024 503.300049 973.700012 496.799988 C 971.800049 491.499969 970.850037 485.100037 970.850037 477.600006 C 970.850037 470.599976 971.650024 464.550018 973.250061 459.450012 C 975.350037 452.849976 978.799988 447.700012 983.600037 444 C 988.400085 440.299988 994.549988 438.450012 1002.050049 438.450012 C 1005.450073 438.450012 1008.675049 439.125 1011.725037 440.475006 C 1014.775024 441.825012 1017.400024 443.75 1019.600037 446.25 C 1019.800049 446.450012 1019.975037 446.5 1020.125061 446.399994 C 1020.275024 446.299988 1020.350037 446.149994 1020.350037 445.950012 L 1020.350037 412.5 Z M 1016.600037 496.649994 C 1018.900024 492.449982 1020.050049 486.150055 1020.050049 477.75 C 1020.050049 469.349976 1018.800049 462.950012 1016.300049 458.549988 C 1013.400024 453.449982 1009.150085 450.899994 1003.550049 450.899994 C 997.549988 450.899994 993.100037 453.299988 990.200012 458.100006 C 987 463.100037 985.400024 469.699951 985.400024 477.899994 C 985.400024 485.600037 986.650024 491.799988 989.150024 496.5 C 992.050049 502.000031 996.799988 504.75 1003.400024 504.75 C 1009.200073 504.75 1013.600037 502.050018 1016.600037 496.649994 Z M 954.350037 468.299988 C 954.750061 472.400024 954.900024 476.999969 954.800049 482.100006 C 954.800049 483.100006 954.300049 483.600006 953.300049 483.600006 L 905.450012 483.600006 C 905.050049 483.600006 904.850037 483.799988 904.850037 484.200012 C 904.850037 487.600006 905.150024 490.199982 905.750061 492 C 906.850037 496.000031 909.075012 499.125 912.425049 501.375 C 915.775024 503.625 920 504.75 925.100037 504.75 C 932.500061 504.75 938.200012 501.700043 942.200012 495.600006 C 942.700012 494.600006 943.350037 494.450012 944.150024 495.149994 L 952.700012 500.850006 C 953.400024 501.450012 953.550049 502.100006 953.150024 502.799988 C 950.350037 507.300018 946.375061 510.849976 941.225037 513.450012 C 936.075012 516.049988 930.250061 517.349976 923.750061 517.349976 C 916.450012 517.349976 910.300049 515.75 905.300049 512.549988 C 900.299988 509.349976 896.550049 504.800018 894.050049 498.899994 C 891.650024 492.999969 890.450012 485.850037 890.450012 477.450012 C 890.450012 470.149963 891.000061 464.600037 892.100037 460.799988 C 893.900024 453.899963 897.5 448.450012 902.900024 444.450012 C 908.300049 440.449982 914.849976 438.450012 922.550049 438.450012 C 932.650085 438.450012 940.200012 440.974976 945.200012 446.024994 C 950.200073 451.075012 953.250061 458.499939 954.350037 468.299988 Z M 922.550049 450.899994 C 918.25 450.899994 914.700073 451.974976 911.900024 454.125 C 909.100037 456.275024 907.200012 459.149963 906.200012 462.75 C 905.500061 464.950012 905.050049 467.75 904.850037 471.149994 C 904.850037 471.549988 905.050049 471.75 905.450012 471.75 L 939.800049 471.75 C 940.200012 471.75 940.400024 471.549988 940.400024 471.149994 C 940.200012 467.849976 939.900024 465.400024 939.500061 463.799988 C 938.500061 459.899963 936.525024 456.775024 933.575012 454.424988 C 930.625 452.074982 926.950073 450.899994 922.550049 450.899994 Z M 871.550049 438.899994 C 874.750061 438.899994 877.650024 439.549988 880.250061 440.850006 C 880.950012 441.149994 881.200012 441.75 881.000061 442.649994 L 878.600037 453.899994 C 878.500061 454.799988 877.900024 455.100006 876.800049 454.799988 C 875.100037 454.100006 873.100037 453.75 870.800049 453.75 L 868.700012 453.899994 C 864 454.100006 860.125061 455.724976 857.075012 458.774994 C 854.025024 461.825012 852.500061 465.799988 852.500061 470.700012 L 852.500061 514.5 C 852.500061 515.5 852.000061 516 851.000061 516 L 839.600037 516 C 838.600037 516 838.100037 515.5 838.100037 514.5 L 838.100037 441.149994 C 838.100037 440.149994 838.600037 439.649994 839.600037 439.649994 L 851.000061 439.649994 C 852.000061 439.649994 852.500061 440.149994 852.500061 441.149994 L 852.500061 449.100006 C 852.500061 449.399994 852.575012 449.575012 852.725037 449.625 C 852.875061 449.674988 853.000061 449.600006 853.100037 449.399994 C 857.600037 442.399963 863.75 438.899994 871.550049 438.899994 Z M 819.500061 468.299988 C 819.900024 472.400024 820.050049 476.999969 819.950012 482.100006 C 819.950012 483.100006 819.450012 483.600006 818.450012 483.600006 L 770.600037 483.600006 C 770.200012 483.600006 770.000061 483.799988 770.000061 484.200012 C 770.000061 487.600006 770.300049 490.199982 770.900024 492 C 772.000061 496.000031 774.225037 499.125 777.575012 501.375 C 780.925049 503.625 785.150024 504.75 790.250061 504.75 C 797.650085 504.75 803.350037 501.700043 807.350037 495.600006 C 807.850037 494.600006 808.500061 494.450012 809.300049 495.149994 L 817.850037 500.850006 C 818.550049 501.450012 818.700012 502.100006 818.300049 502.799988 C 815.5 507.300018 811.525085 510.849976 806.375061 513.450012 C 801.225037 516.049988 795.400085 517.349976 788.900024 517.349976 C 781.599976 517.349976 775.450073 515.75 770.450012 512.549988 C 765.450012 509.349976 761.700073 504.800018 759.200012 498.899994 C 756.800049 492.999969 755.600037 485.850037 755.600037 477.450012 C 755.600037 470.149963 756.150024 464.600037 757.250061 460.799988 C 759.050049 453.899963 762.650024 448.450012 768.050049 444.450012 C 773.450073 440.449982 780 438.450012 787.700012 438.450012 C 797.80011 438.450012 805.350037 440.974976 810.350037 446.024994 C 815.350037 451.075012 818.400024 458.499939 819.500061 468.299988 Z M 787.700012 450.899994 C 783.400024 450.899994 779.850037 451.974976 777.050049 454.125 C 774.25 456.275024 772.350037 459.149963 771.350037 462.75 C 770.650024 464.950012 770.200012 467.75 770.000061 471.149994 C 770.000061 471.549988 770.200012 471.75 770.600037 471.75 L 804.950012 471.75 C 805.350037 471.75 805.550049 471.549988 805.550049 471.149994 C 805.350037 467.849976 805.050049 465.400024 804.650024 463.799988 C 803.650024 459.899963 801.675049 456.775024 798.725037 454.424988 C 795.775024 452.074982 792.100037 450.899994 787.700012 450.899994 Z M 666.500061 516 C 665.700012 516 665.150024 515.599976 664.850037 514.799988 L 643.250061 441.299988 L 643.100037 440.850006 C 643.100037 440.049988 643.600037 439.649994 644.600037 439.649994 L 656.300049 439.649994 C 657.200012 439.649994 657.750061 440.100006 657.950012 441 L 672.200012 495.450012 C 672.300049 495.649994 672.425049 495.75 672.575012 495.75 C 672.725037 495.75 672.850037 495.649994 672.950012 495.450012 L 687.500061 441 C 687.700012 440.100006 688.250061 439.649994 689.150024 439.649994 L 699.500061 439.649994 C 700.400024 439.649994 700.950012 440.100006 701.150024 441 L 716.000061 495.299988 C 716.100037 495.5 716.225037 495.600006 716.375061 495.600006 C 716.525024 495.600006 716.650024 495.5 716.750061 495.299988 L 731.600037 441 C 731.800049 440.100006 732.350037 439.649994 733.250061 439.649994 L 744.800049 439.799988 C 745.300049 439.799988 745.675049 439.950012 745.925049 440.25 C 746.175049 440.549988 746.250061 440.950012 746.150024 441.450012 L 724.400024 514.799988 C 724.100037 515.599976 723.550049 516 722.750061 516 L 711.050049 516 C 710.250061 516 709.700012 515.599976 709.400024 514.799988 L 694.700012 464.100006 C 694.600037 463.899994 694.475037 463.799988 694.325012 463.799988 C 694.175049 463.799988 694.050049 463.899994 693.950012 464.100006 L 680.000061 514.650024 C 679.800049 515.549988 679.250061 516 678.350037 516 L 666.500061 516 Z M 600.950012 517.200012 C 593.549988 517.200012 587.100037 515.325012 581.600037 511.575012 C 576.100037 507.824982 572.250061 502.600037 570.050049 495.899994 C 568.25 490.499969 567.350037 484.400024 567.350037 477.600006 C 567.350037 470.499969 568.200012 464.500031 569.900024 459.600006 C 572.100037 452.999969 575.950012 447.825012 581.450012 444.075012 C 586.950073 440.324982 593.5 438.450012 601.100037 438.450012 C 608.300049 438.450012 614.575012 440.324982 619.925049 444.075012 C 625.275085 447.825012 629.100037 452.949951 631.400024 459.450012 C 633.200073 464.550018 634.100037 470.549957 634.100037 477.450012 C 634.100037 484.450043 633.200073 490.599976 631.400024 495.899994 C 629.200012 502.600037 625.400085 507.824982 620.000061 511.575012 C 614.600037 515.325012 608.250061 517.200012 600.950012 517.200012 Z M 600.950012 504.75 C 604.950073 504.75 608.450012 503.625 611.450012 501.375 C 614.450073 499.125 616.600037 495.950012 617.900024 491.850006 C 619.000061 488.049988 619.550049 483.350037 619.550049 477.75 C 619.550049 472.149963 619.050049 467.5 618.050049 463.799988 C 616.75 459.699982 614.600037 456.525024 611.600037 454.274994 C 608.600037 452.024994 604.950073 450.899994 600.650024 450.899994 C 596.549988 450.899994 593.000061 452.024994 590.000061 454.274994 C 587 456.525024 584.850037 459.699982 583.550049 463.799988 C 582.450012 467.300018 581.900024 471.949982 581.900024 477.75 C 581.900024 483.550018 582.450012 488.249969 583.550049 491.850006 C 584.750061 495.950012 586.875 499.125 589.925049 501.375 C 592.975037 503.625 596.650024 504.75 600.950012 504.75 Z M 527.000061 410.850006 C 533.100037 410.850006 538.475037 412.125 543.125061 414.674988 C 547.775085 417.225006 551.375 420.799988 553.925049 425.399994 C 556.475037 430.000031 557.750061 435.299988 557.750061 441.299988 C 557.750061 447.300049 556.450073 452.549988 553.850037 457.049988 C 551.25 461.550018 547.575073 465.049988 542.825012 467.549988 C 538.075012 470.050018 532.600098 471.299988 526.400024 471.299988 L 500 471.299988 C 499.600006 471.299988 499.399994 471.5 499.399994 471.899994 L 499.399994 514.5 C 499.399994 515.5 498.900024 516 497.899994 516 L 486.5 516 C 485.5 516 485 515.5 485 514.5 L 485 412.350006 C 485 411.349976 485.5 410.850006 486.5 410.850006 L 527.000061 410.850006 Z M 525.050049 459.600006 C 530.550049 459.600006 534.975037 457.950012 538.325012 454.649994 C 541.675049 451.349976 543.350037 447.000031 543.350037 441.600006 C 543.350037 436.099976 541.675049 431.675018 538.325012 428.325012 C 534.975037 424.974976 530.550049 423.299988 525.050049 423.299988 L 500 423.299988 C 499.600006 423.299988 499.399994 423.5 499.399994 423.899994 L 499.399994 459 C 499.399994 459.399994 499.600006 459.600006 500 459.600006 L 525.050049 459.600006 Z"/>
        <g id="Sesam-Logo-Cyan">
            <path id="Path" fill="#009fdc" stroke="none" d="M 1757.099976 424.547424 C 1751.478638 416.172607 1742.237427 411.542053 1724.188232 411.542053 C 1705.003906 411.542053 1695.309692 417.043945 1689.972046 426.897522 C 1684.659424 417.043945 1675.0896 411.542053 1655.616455 411.542053 C 1637.876099 411.542053 1628.450684 416.172607 1622.829346 424.547424 L 1648.063232 424.547424 C 1650.586182 424.151215 1653.132935 423.924988 1655.686279 423.87027 C 1659.013062 423.946564 1662.327515 424.303009 1665.594604 424.935791 C 1675.478027 427.54483 1682.379028 434.864044 1683.180664 446.16156 L 1683.180664 510.824768 L 1696.71875 510.824768 L 1696.71875 446.480225 C 1697.415771 435.003479 1704.356689 427.559753 1714.324707 424.940765 C 1717.591797 424.308533 1720.90625 423.952087 1724.233032 423.875244 C 1726.786377 423.929749 1729.33313 424.156006 1731.856079 424.552399 Z"/>
            <path id="path1" fill="#009fdc" stroke="none" d="M 1617.317505 440.05722 C 1616.766724 443.897705 1616.502075 447.773804 1616.525757 451.653473 L 1616.525757 510.824768 L 1628.639893 510.824768 L 1629.635742 499.507355 C 1629.725342 498.755524 1630.039063 487.597412 1630.039063 487.597412 L 1630.039063 487.597412 L 1630.088745 447.222107 C 1630.162231 444.806824 1630.48584 442.405701 1631.054688 440.05722 Z"/>
            <path id="path2" fill="#009fdc" stroke="none" d="M 1748.904419 440.05722 C 1749.984863 443.009796 1749.900269 448.830322 1749.900269 448.875153 L 1749.900269 487.597412 L 1749.900269 487.597412 C 1749.900269 487.597412 1750.213867 498.755524 1750.303589 499.507355 L 1751.299316 510.824768 L 1763.408447 510.824768 L 1763.408447 451.653473 C 1763.433105 447.77356 1763.166748 443.897278 1762.611816 440.05722 Z"/>
            <path id="path3" fill="#009fdc" stroke="none" d="M 1461.178711 424.547424 C 1463.804077 423.486633 1466.607544 422.93576 1469.439087 422.924255 C 1476.588989 422.924255 1483.733887 425.70755 1489.096436 429.894958 L 1496.440552 420.763306 C 1488.897217 414.609192 1479.964844 411.432556 1469.837402 411.432556 C 1458.385498 411.432556 1448.163452 416.048126 1443.069824 424.567322 Z"/>
            <path id="path4" fill="#009fdc" stroke="none" d="M 1477.156616 456.687317 C 1466.322144 452.146393 1455.348267 448.671021 1452.868652 440.05722 L 1439.768799 440.05722 C 1441.078247 455.6716 1453.998901 461.123657 1466.04834 466.018097 C 1476.967407 470.38974 1487.293945 474.358032 1487.293945 485.476318 C 1487.293945 496.594604 1476.374878 501.56369 1467.039185 501.56369 C 1457.907471 501.56369 1450.563354 497.580444 1444.802612 491.436279 L 1436.661865 499.975372 C 1444.372437 508.366669 1455.259888 513.123596 1466.655762 513.080322 C 1482.937256 513.080322 1500.807251 502.753723 1500.807251 485.695404 C 1500.787231 468.403076 1489.061523 461.651459 1477.156616 456.687317 Z"/>
            <path id="path5" fill="#009fdc" stroke="none" d="M 1287.533569 424.547424 C 1290.585327 423.014252 1293.952148 422.213013 1297.36731 422.207245 C 1304.512207 422.207245 1311.662231 424.985565 1317.024658 429.177948 L 1324.368774 420.041351 C 1316.825439 413.887207 1307.888062 410.710571 1297.76062 410.710571 C 1286.01001 410.710571 1275.534058 415.595032 1270.594849 424.567322 Z"/>
            <path id="path6" fill="#009fdc" stroke="none" d="M 1305.109741 455.970337 C 1294.588989 451.553894 1283.94873 448.14325 1281.070801 440.037292 L 1267.766724 440.037292 C 1269.39978 455.113953 1282.121338 460.451477 1293.991455 465.281189 C 1304.910522 469.647827 1315.232178 473.621155 1315.232178 484.73941 C 1315.232178 495.857697 1304.31311 500.821838 1294.9823 500.821838 C 1285.845703 500.821838 1278.501587 496.838562 1272.740845 490.694397 L 1264.599976 499.23349 C 1272.307983 507.622742 1283.191406 512.379517 1294.583984 512.33844 C 1310.865479 512.33844 1328.735474 502.01181 1328.735474 484.953522 C 1328.735474 467.681122 1317.024658 460.929504 1305.109741 455.970337 Z"/>
            <path id="path7" fill="#009fdc" stroke="none" d="M 1556.279053 411.024231 C 1538.324463 411.024231 1529.083374 415.70459 1523.481934 424.164032 L 1548.033691 424.164032 C 1550.80835 423.689056 1553.614136 423.417786 1556.428345 423.352417 C 1559.755005 423.431793 1563.069336 423.788208 1566.336792 424.417969 C 1576.329712 426.673492 1582.060669 435.117981 1582.060669 448.2229 L 1582.100464 465.799011 L 1530.766235 465.799011 L 1530.766235 448.372253 C 1530.79187 445.457031 1531.085205 442.550354 1531.642578 439.688782 L 1518.039795 439.688782 C 1517.500122 443.481812 1517.240479 447.309448 1517.263062 451.140625 L 1517.263062 510.306946 L 1529.39209 510.306946 L 1530.387817 498.984558 C 1530.477417 498.232697 1530.791138 487.074585 1530.791138 487.074585 L 1530.791138 487.074585 L 1530.791138 477.280762 L 1582.110474 477.280762 L 1582.110474 487.074585 L 1582.110474 487.074585 C 1582.110474 487.074585 1582.424194 498.232697 1582.513794 498.984558 L 1583.509521 510.306946 L 1595.613647 510.306946 L 1595.613647 451.135651 C 1595.613647 426.115814 1587.43811 411.024231 1556.279053 411.024231 Z"/>
            <path id="path8" fill="#009fdc" stroke="none" d="M 1407.056274 492.920044 C 1399.015015 503.405975 1381.015747 501.6633 1381.015747 501.6633 C 1363.837891 499.835968 1357.673828 488.359192 1356.991699 474.671753 C 1356.991699 474.636871 1356.951782 465.306091 1356.951782 465.306091 L 1422.272217 465.306091 L 1422.272217 458.021729 C 1422.272217 436.073975 1422.680542 410.909729 1382.504395 410.909729 C 1366.377197 410.909729 1356.259766 414.629089 1350.005981 424.059479 L 1374.403442 424.059479 C 1376.85022 423.568268 1379.341797 423.334656 1381.83728 423.362396 L 1384.29187 423.362396 C 1409.187256 423.362396 1409.052856 443.711853 1409.052856 446.544952 C 1409.052856 446.913391 1409.082764 453.839294 1409.082764 453.839294 L 1356.951782 453.839294 C 1356.951782 453.839294 1356.976685 446.594727 1356.976685 446.559875 C 1356.991089 444.203461 1357.264893 441.855774 1357.793335 439.559326 L 1344.319946 439.559326 C 1343.951416 442.367523 1343.822021 447.983887 1343.822021 448.292603 C 1343.822021 449.044434 1343.777222 470.135803 1343.777222 470.135803 C 1343.777222 502.997681 1360.805664 512.612244 1381.189941 512.612244 C 1382.245483 512.612244 1383.490234 512.5625 1384.356689 512.5625 C 1400.643188 512.5625 1416.755493 507.180084 1421.04248 493.034546 Z"/>
        </g>
    </g>
</svg>
