<svg width="300" height="25" viewBox="0 0 300 25" fill="#333">
  <title>PowerOffice</title>
  <image href="/poweroffice-logo-naked.png" height="100%" />
  <g transform="translate(30)">
    <svg width="150" height="25" viewBox="0 0 300 25">
    <path d="M11.0884 14.4945H3.42372V22.5402H0.304688V1.07031H10.9377C13.596 1.07031 15.6074 2.5235 15.7049 5.28809C15.7669 6.83874 15.7049 8.34507 15.7049 9.89572C15.7049 12.7578 13.9327 14.4945 11.0706 14.4945H11.0884ZM12.577 6.35137C12.577 4.87161 11.4251 4.19819 10.0694 4.19819H3.40599V11.2869H10.0073C11.7086 11.2869 12.577 10.6401 12.577 8.86788V6.35137Z"></path>
    <path d="M29.9218 21.7427C29.5154 22.0602 29.0501 22.2942 28.5528 22.4311C28.0555 22.5679 27.536 22.605 27.0243 22.5401H22.2218C21.1579 22.6714 20.0845 22.3856 19.2268 21.7427C18.7581 21.3523 18.3886 20.8566 18.1483 20.296C17.9081 19.7354 17.8039 19.1259 17.8445 18.5173V10.5425C17.804 9.93008 17.9079 9.31668 18.1481 8.75181C18.3882 8.18694 18.7577 7.68643 19.2268 7.29061C19.6436 6.95586 20.1237 6.70874 20.6384 6.5641C21.153 6.41945 21.6916 6.38024 22.2218 6.44882H27.0243C27.5408 6.38451 28.0649 6.42263 28.5666 6.56099C29.0683 6.69934 29.5379 6.93523 29.9484 7.25516C30.4027 7.66765 30.7575 8.17778 30.9862 8.74718C31.2149 9.31658 31.3115 9.93041 31.2687 10.5425V18.5173C31.3156 19.1232 31.218 19.7315 30.9839 20.2922C30.7497 20.853 30.3857 21.3501 29.9218 21.7427ZM28.5041 11.278C28.542 11.0065 28.5198 10.73 28.439 10.468C28.3581 10.2061 28.2207 9.96514 28.0364 9.76223C27.8521 9.55931 27.6254 9.39941 27.3724 9.29385C27.1194 9.18829 26.8463 9.13964 26.5724 9.15137H22.6116C22.3339 9.13495 22.056 9.17984 21.7976 9.28284C21.5392 9.38584 21.3066 9.54444 21.1163 9.74738C20.9261 9.95033 20.7828 10.1927 20.6967 10.4572C20.6105 10.7217 20.5837 11.0019 20.6179 11.278V17.773C20.5902 18.0402 20.6212 18.3102 20.7088 18.5642C20.7963 18.8181 20.9384 19.0499 21.1249 19.2432C21.3115 19.4365 21.538 19.5867 21.7887 19.6832C22.0394 19.7798 22.3082 19.8204 22.5762 19.8021H26.6522C26.9128 19.8186 27.1739 19.7773 27.4167 19.6811C27.6595 19.5849 27.878 19.4362 28.0567 19.2457C28.2353 19.0552 28.3697 18.8276 28.4501 18.5791C28.5305 18.3307 28.555 18.0675 28.5218 17.8084L28.5041 11.278Z"></path>
    <path d="M50.6661 20.5462C50.3737 21.7424 49.7357 22.7703 48.38 22.7703C47.0243 22.7703 46.4484 21.769 46.1914 20.6436L43.7104 10.3119L41.3268 20.6436C41.2734 21.2108 41.0157 21.7392 40.6017 22.1305C40.1876 22.5217 39.6454 22.7491 39.0761 22.7703C37.7293 22.7703 37.1179 21.7069 36.8255 20.5462L33.4141 6.4131H36.1166L39.209 19.0398L41.7787 8.34476C42.0356 7.3169 42.5496 6.28906 43.7812 6.28906C45.0129 6.28906 45.5534 7.3169 45.7749 8.34476L48.318 19.0398L51.4016 6.4131H54.113L50.6661 20.5462Z"></path>
    <path d="M58.6887 17.0726V17.5511C58.6887 19.1638 59.3622 19.7752 60.9394 19.7752H69.242V22.5398H60.5495C59.3726 22.6737 58.1885 22.3572 57.2355 21.6537C56.742 21.2287 56.361 20.6886 56.1261 20.0812C55.8911 19.4738 55.8096 18.8178 55.8887 18.1714V10.5422C55.8887 7.68011 57.5545 6.42188 60.3191 6.42188H65.1837C68.0812 6.42188 69.304 7.90163 69.304 10.7371V12.7662L58.6887 17.0726ZM66.442 10.9586C66.442 9.60292 65.4761 9.18646 64.2533 9.18646H61.2052C59.7875 9.18646 58.6621 9.63838 58.6621 11.2511V14.4321L66.4508 11.2511L66.442 10.9586Z"></path>
    <path d="M77.501 9.15101C75.7288 9.15101 74.8427 9.50546 74.8427 11.4726V22.5398H72.0781V10.7282C72.0781 7.83074 73.487 6.42188 76.3845 6.42188H78.4491V9.15101H77.501Z"></path>
    <path d="M91.3299 22.5401H86.5982C85.2792 22.6514 83.9649 22.2764 82.9033 21.4857C82.4048 20.9961 82.0153 20.4068 81.7603 19.7564C81.5053 19.1059 81.3905 18.4089 81.4235 17.711V5.97033C81.3974 5.26691 81.5178 4.56575 81.7771 3.91135C82.0364 3.25695 82.429 2.66361 82.9298 2.16903C83.965 1.34305 85.2795 0.949342 86.5982 1.07028H91.3654C94.6793 1.07028 96.487 2.5589 96.487 5.97033V17.6844C96.487 21.0604 94.6173 22.5401 91.3299 22.5401ZM93.3945 6.86528C93.3945 4.90703 92.5616 4.20703 90.6299 4.20703H87.3426C85.4109 4.20703 84.5425 4.88045 84.5425 6.86528V16.816C84.5192 17.1845 84.5699 17.5538 84.6917 17.9023C84.8134 18.2508 85.0038 18.5714 85.2514 18.8451C85.5399 19.0828 85.8752 19.2569 86.2356 19.3561C86.5959 19.4554 86.9731 19.4775 87.3426 19.4211H90.6299C92.4641 19.4211 93.3945 18.8452 93.3945 16.9135V6.86528Z"></path>
    <path d="M102.852 9.15127V22.54H100.078V4.67656C100.078 2.20438 101.948 0.724609 104.331 0.724609H106.396V3.38286H104.952C104.673 3.36607 104.393 3.40865 104.132 3.5078C103.871 3.60694 103.633 3.76041 103.436 3.95804C103.238 4.15568 103.085 4.393 102.985 4.65433C102.886 4.91565 102.844 5.19503 102.86 5.47403V6.41327H106.405V9.14243L102.852 9.15127Z"></path>
    <path d="M111.712 9.15127V22.54H108.965V4.67656C108.965 2.20438 110.826 0.724609 113.209 0.724609H115.256V3.38286H113.803C113.524 3.36607 113.244 3.40865 112.983 3.5078C112.722 3.60694 112.485 3.76041 112.287 3.95804C112.089 4.15568 111.936 4.393 111.837 4.65433C111.737 4.91565 111.695 5.19503 111.712 5.47403V6.41327H115.256V9.14243L111.712 9.15127Z"></path>
    <path d="M119.261 3.96739C118.791 3.96739 118.34 3.78068 118.008 3.44833C117.676 3.11598 117.489 2.66522 117.489 2.19522C117.48 1.83233 117.58 1.47515 117.776 1.16973C117.973 0.864319 118.256 0.624682 118.589 0.481738C118.923 0.338795 119.292 0.29909 119.648 0.36776C120.005 0.43643 120.333 0.610318 120.589 0.866994C120.846 1.12367 121.02 1.45137 121.088 1.80781C121.157 2.16425 121.117 2.53308 120.974 2.86674C120.832 3.20041 120.592 3.4836 120.286 3.67978C119.981 3.87596 119.624 3.97613 119.261 3.96739ZM117.914 6.41298H120.679V22.5397H117.914V6.41298Z"></path>
    <path d="M128.6 22.5398C125.667 22.5398 124.09 21.2904 124.09 18.26V10.4713C124.09 7.90164 125.215 6.42188 127.891 6.42188H134.811V9.15101H129.043C127.475 9.15101 126.854 9.60292 126.854 11.2422V17.622C126.854 19.1017 127.741 19.7752 129.176 19.7752H134.874V22.5398H128.6Z"></path>
    <path d="M140.375 17.0726V17.5511C140.375 19.1638 141.057 19.7752 142.634 19.7752H150.937V22.5398H142.245C141.067 22.6764 139.882 22.3596 138.931 21.6537C138.436 21.2291 138.054 20.6894 137.817 20.082C137.581 19.4747 137.498 18.8185 137.575 18.1714V10.5422C137.575 7.68011 139.25 6.42188 142.005 6.42188H146.861C149.759 6.42188 150.981 7.90163 150.981 10.7371V12.7662L140.375 17.0726ZM148.137 10.9586C148.137 9.60292 147.171 9.18646 145.948 9.18646H142.891C141.474 9.18646 140.348 9.63838 140.348 11.2511V14.4321L148.137 11.2511V10.9586Z"></path>
    </svg>
  </g>
</svg>